<?xml version="1.0" encoding="UTF-8" standalone="no"?>
<!-- Created with Inkscape (http://www.inkscape.org/) -->

<svg
   width="40.639999mm"
   height="128.5mm"
   viewBox="0 0 40.64 128.5"
   version="1.1"
   id="svg5"
   inkscape:version="1.1.2 (0a00cf5339, 2022-02-04)"
   sodipodi:docname="MyClock.svg"
   xmlns:inkscape="http://www.inkscape.org/namespaces/inkscape"
   xmlns:sodipodi="http://sodipodi.sourceforge.net/DTD/sodipodi-0.dtd"
   xmlns="http://www.w3.org/2000/svg"
   xmlns:svg="http://www.w3.org/2000/svg">
  <sodipodi:namedview
     id="namedview7"
     pagecolor="#ffffff"
     bordercolor="#666666"
     borderopacity="1.0"
     inkscape:pageshadow="2"
     inkscape:pageopacity="0.0"
     inkscape:pagecheckerboard="0"
     inkscape:document-units="mm"
     showgrid="true"
     width="40.64mm"
     showborder="true"
     inkscape:showpageshadow="false"
     inkscape:zoom="2.8284272"
     inkscape:cx="138.59293"
     inkscape:cy="247.31059"
     inkscape:window-width="1846"
     inkscape:window-height="1016"
     inkscape:window-x="74"
     inkscape:window-y="27"
     inkscape:window-maximized="1"
     inkscape:current-layer="layer2"
     inkscape:snap-page="true"
     objecttolerance="10"
     guidetolerance="20"
     inkscape:snap-perpendicular="false"
     gridtolerance="10"
     inkscape:snap-center="true">
    <inkscape:grid
       type="xygrid"
       id="grid1011"
       units="mm"
       spacingx="0.40640002"
       spacingy="0.1285"
       originx="0"
       originy="0"
       empspacing="5"
       color="#3f3f40"
       opacity="0.1254902"
       empcolor="#ff3300"
       empopacity="0.25098039" />
  </sodipodi:namedview>
  <defs
     id="defs2">
    <rect
       x="180.43639"
       y="242.83465"
       width="3.8836179"
       height="48.566929"
       id="rect109323" />
    <rect
       x="132.48"
       y="407.96222"
       width="80.639999"
       height="53.423622"
       id="rect326210" />
    <linearGradient
       id="SVGID_1_-2"
       gradientUnits="userSpaceOnUse"
       x1="-602.2439"
       y1="-1759.6412"
       x2="-578.86902"
       y2="-1759.6412"
       gradientTransform="rotate(90,-1175.1201,-572.7211)">
      <stop
         offset="0"
         style="stop-color:#818080"
         id="stop53683-7" />
      <stop
         offset="1"
         style="stop-color:#575757"
         id="stop53685-0" />
    </linearGradient>
    <linearGradient
       id="SVGID_00000133507252578815705350000014969287794782242715_-9"
       gradientUnits="userSpaceOnUse"
       x1="1061.9836"
       y1="4127.6396"
       x2="1084.1836"
       y2="4127.6396"
       gradientTransform="matrix(0,1,1,0,-4115.8398,-1061.2317)">
      <stop
         offset="0.00559"
         style="stop-color:#FFFFFF"
         id="stop53692-3" />
      <stop
         offset="1"
         style="stop-color:#7B7B7B"
         id="stop53694-6" />
    </linearGradient>
    <linearGradient
       id="SVGID_00000016783443767324647770000012896450620973326471_-0"
       gradientUnits="userSpaceOnUse"
       x1="58.8937"
       y1="90.555496"
       x2="58.8937"
       y2="87.782799"
       gradientTransform="translate(-47.0062,-77.3266)">
      <stop
         offset="0"
         style="stop-color:#FFFAFC"
         id="stop53701-6" />
      <stop
         offset="1"
         style="stop-color:#808080"
         id="stop53703-2" />
    </linearGradient>
    <linearGradient
       id="SVGID_00000142168628243639577640000009478606774827061173_-6"
       gradientUnits="userSpaceOnUse"
       x1="-1250.7072"
       y1="417.8472"
       x2="-1233.2302"
       y2="417.8472"
       gradientTransform="rotate(-90,-818.08665,-412.03944)">
      <stop
         offset="0"
         style="stop-color:#AFADAD"
         id="stop53708-1" />
      <stop
         offset="1"
         style="stop-color:#616262"
         id="stop53710-8" />
    </linearGradient>
    <linearGradient
       id="SVGID_00000129173681066646684810000007828613576644480430_-7"
       gradientUnits="userSpaceOnUse"
       x1="-1894.8135"
       y1="14.4203"
       x2="-1894.8135"
       y2="29.682699"
       gradientTransform="matrix(-1,0,0,1,-1883.0134,-10.2203)">
      <stop
         offset="0.00559"
         style="stop-color:#707171"
         id="stop53719-9" />
      <stop
         offset="1"
         style="stop-color:#181717"
         id="stop53721-2" />
    </linearGradient>
    <linearGradient
       id="SVGID_00000158015276085111732840000007822288051635862172_-0"
       gradientUnits="userSpaceOnUse"
       x1="-1894.8135"
       y1="27.2339"
       x2="-1894.8135"
       y2="16.892099"
       gradientTransform="matrix(-1,0,0,1,-1883.0134,-10.2203)">
      <stop
         offset="0"
         style="stop-color:#595A5A"
         id="stop53736-2" />
      <stop
         offset="1"
         style="stop-color:#181717"
         id="stop53738-3" />
    </linearGradient>
  </defs>
  <g
     inkscape:groupmode="layer"
     id="layer1"
     inkscape:label="Background"
     style="display:inline">
    <rect
       style="fill:#ffd5d5;stroke-width:1.24726"
       id="rect213"
       width="40.639999"
       height="128.5"
       x="0"
       y="0"
       rx="6.0550775e-07" />
    <circle
       style="display:inline;fill:#800000;fill-opacity:1;fill-rule:evenodd;stroke:#000000;stroke-width:0.1;stroke-linecap:butt;stroke-linejoin:miter;stroke-miterlimit:4;stroke-dasharray:none;stroke-dashoffset:0;stroke-opacity:1;paint-order:normal"
       id="path4954-4-6-8-3"
       cx="10.795002"
       cy="100.52546"
       inkscape:label=""
       r="5.75" />
    <g
       aria-label="MØ  "
       transform="matrix(-0.00189572,-0.74371248,0.75217567,-0.00187439,14.990785,27.800813)"
       id="text192522"
       style="font-size:10.5833px;line-height:1.25;display:inline;stroke-width:0.264583">
      <path
         d="m -123.33763,0.54124944 1.43867,5.48597226 h -0.7028 l -0.87229,-3.3527683 -1.50069,3.55534 -1.50482,-3.5801447 -0.88056,3.377573 h -0.7028 l 1.43867,-5.48597226 1.64951,3.92741046 z"
         style="font-size:8.46667px;font-family:'Tw Cen MT';-inkscape-font-specification:'Tw Cen MT'"
         id="path296409" />
      <path
         d="m -116.26829,0.17744722 0.47542,0.40514339 -0.73173,0.85576209 q 0.36793,0.4299481 0.52916,0.926042 0.16537,0.4960939 0.16537,0.9095056 0,1.2154301 -0.75655,2.0174487 -0.75654,0.8020185 -1.90169,0.8020185 -0.23564,0 -0.63252,-0.066146 -0.39687,-0.062012 -1.01699,-0.3886069 l -0.74414,0.8640302 -0.49196,-0.4010092 0.75241,-0.8805668 q -0.43409,-0.5994468 -0.56224,-1.0417973 -0.12403,-0.4423504 -0.12403,-0.888835 0,-1.1658207 0.78962,-1.9554369 0.79375,-0.79375036 1.9637,-0.79375036 0.33073,0 0.65733,0.0826823 0.33073,0.0826823 0.9095,0.38447286 z m -3.57188,4.12171388 2.1084,-2.4308603 q -0.43821,-0.2439129 -0.85576,-0.2439129 -0.63252,0 -1.07487,0.5002281 -0.44235,0.500228 -0.44235,1.2195642 0,0.3679364 0.26458,0.9549809 z m 2.53835,-1.9471687 -2.08359,2.4225921 q 0.42168,0.2439128 0.83922,0.2439128 0.64906,0 1.06247,-0.4588869 0.41755,-0.463021 0.41755,-1.1906255 0,-0.463021 -0.11163,-0.7524091 -0.004,-0.020671 -0.004,-0.024805 l -0.062,-0.1529623 q -0.0331,-0.086816 -0.0579,-0.086816 z"
         style="font-weight:bold;fill:#800000"
         id="path296411" />
    </g>
    <g
       aria-label="JØ"
       transform="matrix(-0.00533298,-0.74369609,0.7521591,-0.00527294,14.990779,27.800797)"
       id="text231945"
       style="font-size:8.46667px;line-height:1.25;display:inline;stroke-width:0.264583">
      <path
         d="m -123.20599,7.0810457 h 0.71934 V 10.94231 q 0,1.575099 -1.31052,1.575099 -0.45475,0 -0.8971,-0.235645 l 0.35553,-0.587045 q 0.34727,0.11989 0.56638,0.11989 0.56637,0 0.56637,-0.760678 z"
         style="font-family:'Tw Cen MT';-inkscape-font-specification:'Tw Cen MT'"
         id="path296414" />
      <path
         d="m -116.28961,6.4898671 0.47542,0.4051434 -0.73174,0.8557621 q 0.36794,0.429948 0.52917,0.926042 0.16536,0.4960939 0.16536,0.9095056 0,1.2154298 -0.75654,2.0174488 -0.75654,0.802018 -1.90169,0.802018 -0.23565,0 -0.63252,-0.06615 -0.39688,-0.06201 -1.01699,-0.388607 l -0.74415,0.86403 -0.49196,-0.401009 0.75241,-0.880567 q -0.43408,-0.599447 -0.56224,-1.041797 -0.12402,-0.442351 -0.12402,-0.8888354 0,-1.1658207 0.78962,-1.9554369 0.79375,-0.7937504 1.9637,-0.7937504 0.33073,0 0.65733,0.082682 0.33073,0.082682 0.9095,0.3844728 z m -3.57188,4.1217139 2.1084,-2.4308604 q -0.43821,-0.2439128 -0.85576,-0.2439128 -0.63252,0 -1.07487,0.5002281 -0.44235,0.500228 -0.44235,1.2195642 0,0.3679359 0.26458,0.9549809 z m 2.53835,-1.9471688 -2.0836,2.4225918 q 0.42168,0.243913 0.83923,0.243913 0.64906,0 1.06247,-0.458887 0.41754,-0.463021 0.41754,-1.1906252 0,-0.463021 -0.11162,-0.7524091 -0.004,-0.020671 -0.004,-0.024805 l -0.062,-0.1529623 q -0.0331,-0.086817 -0.0579,-0.086817 z"
         style="font-weight:bold;fill:#800000"
         id="path296416" />
    </g>
    <path
       d="m 19.573976,7.3827365 q 0.802665,0 1.421476,0.4647618 l 0.533626,-0.5317944 0.533619,0.5317944 -0.533619,0.5362651 q 0.452896,0.6077647 0.452896,1.4076967 0,0.9876139 -0.704015,1.6936919 -0.712975,0.706078 -1.703983,0.706078 -0.789201,0 -1.408028,-0.455826 l -0.533609,0.531805 -0.533617,-0.531805 0.533617,-0.531787 q -0.461876,-0.612233 -0.461876,-1.4121569 0,-0.9965645 0.704011,-1.7026431 0.712993,-0.7060805 1.699502,-0.7060805 z m 0.869929,1.0189012 Q 20.058269,8.155851 19.650204,8.155851 q -0.744371,0 -1.228662,0.4781692 -0.479805,0.4781679 -0.479805,1.1574399 0,0.4781609 0.246623,0.8580199 z M 18.721987,11.18127 q 0.38115,0.236857 0.784726,0.236857 0.739895,0 1.224184,-0.478174 0.479812,-0.478171 0.479812,-1.1484929 0,-0.478175 -0.237674,-0.8535618 z"
       style="font-weight:600;font-size:4.58611px;line-height:1.25;font-family:'URW Gothic';-inkscape-font-specification:'URW Gothic Semi-Bold';font-variant-ligatures:none;display:inline;fill:#800000;stroke-width:0.528913"
       id="path54609-1" />
    <g
       aria-label="Clock"
       id="text1385"
       style="font-size:6.35px;line-height:1.25;-inkscape-font-specification:'sans-serif, Normal';font-variant-ligatures:none;stroke-width:0.264583"
       transform="matrix(1.3474409,0,0,1.3474409,-7.0600001,-3.3554751)">
      <path
         d="m 15.630538,10.2803 c -0.19685,0.24765 -0.31115,0.37465 -0.4699,0.4953 -0.3175,0.24765 -0.7366,0.38735 -1.16205,0.38735 -1.0922,0 -1.9812,-0.89535 -1.9812,-2.0002496 0,-1.1303 0.8509,-1.9939 1.97485,-1.9939 0.4064,0 0.7874,0.10795 1.09855,0.3175 0.20955,0.13335 0.33655,0.27305 0.51435,0.55245 h 0.52705 c -0.36195,-0.80645 -1.18745,-1.30175 -2.159,-1.30175 -1.397,0 -2.43205,1.0414 -2.43205,2.44475 0,1.3779496 1.06045,2.4129996 2.4638,2.4129996 0.9525,0 1.6764,-0.4445 2.1463,-1.31445 z"
         style="font-family:'URW Gothic';-inkscape-font-specification:'URW Gothic'"
         id="path23085" />
      <path
         d="m 16.824336,11.5122 h 0.4699 V 6.8195504 h -0.4699 z"
         style="font-family:'URW Gothic';-inkscape-font-specification:'URW Gothic'"
         id="path23087" />
      <path
         d="m 25.18092,10.48985 c -0.36195,0.4826 -0.69215,0.6731 -1.1938,0.6731 -0.7747,0 -1.39065,-0.6096 -1.39065,-1.3842996 0,-0.78105 0.60325,-1.39065 1.37795,-1.39065 0.51435,0 0.9398,0.24765 1.2065,0.70485 h 0.52705 c -0.2794,-0.6985 -0.94615,-1.13665 -1.7272,-1.13665 -1.0414,0 -1.86055,0.8001 -1.86055,1.80975 0,1.0350496 0.8255,1.8287996 1.8923,1.8287996 0.4318,0 0.83185,-0.13335 1.1557,-0.3937 0.22225,-0.1778 0.3556,-0.34925 0.5461,-0.7112 z"
         style="font-family:'URW Gothic';-inkscape-font-specification:'URW Gothic'"
         id="path23091" />
      <path
         d="m 26.342965,11.5122 h 0.4699 v -0.71755 l 0.5461,-0.6731 1.1557,1.39065 h 0.5842 l -1.44145,-1.7271996 1.35255,-1.74625 h -0.57785 L 26.812865,10.14695 V 6.8195504 h -0.4699 z"
         style="font-family:'URW Gothic';-inkscape-font-specification:'URW Gothic'"
         id="path23093" />
    </g>
    <g
       aria-label="Clock generator"
       id="text27889"
       style="font-size:4.58611px;line-height:1.25;-inkscape-font-specification:'sans-serif, Normal';font-variant-ligatures:none;stroke-width:0.264583"
       transform="translate(-0.40639994)">
      <g
         aria-label="Pulse generator"
         id="text119727"
         style="fill:#4d4d4d;stroke-width:0.0700042">
        <path
           d="m 3.6523485,17.264061 h 0.3393722 v -1.371247 h 0.6512276 c 0.458611,0 0.706261,-0.05962 0.9126359,-0.210961 0.2201333,-0.160514 0.3393722,-0.440267 0.3393722,-0.779639 0,-0.389819 -0.1467555,-0.697088 -0.4035777,-0.84843 C 5.2804176,13.925373 5.0235955,13.874926 4.587915,13.874926 H 3.6523485 Z m 0.3393722,-1.678516 v -1.40335 h 0.4815415 c 0.3898194,0 0.6328832,0.0321 0.7704665,0.100894 0.2017889,0.100895 0.3072694,0.316442 0.3072694,0.619125 0,0.261409 -0.1054805,0.47237 -0.2797527,0.568678 -0.1421694,0.08255 -0.3393721,0.114653 -0.6512276,0.114653 z"
           style="font-family:'URW Gothic';-inkscape-font-specification:'URW Gothic'"
           id="path146547" />
        <path
           d="M 8.5182069,14.755459 H 8.1788348 v 1.288697 c 0,0.307269 -0.045861,0.499886 -0.1513417,0.655813 -0.1421694,0.201789 -0.3668888,0.311856 -0.6328832,0.311856 -0.2797527,0 -0.5136443,-0.114653 -0.6282971,-0.316442 C 6.688349,16.566972 6.647074,16.365183 6.647074,16.108361 V 14.755459 H 6.3077018 v 1.352902 c 0,0.376061 0.05962,0.628297 0.1972028,0.816328 0.1880305,0.261408 0.4907137,0.398991 0.8667748,0.398991 0.3898193,0 0.6374693,-0.137583 0.8071554,-0.449438 v 0.389819 h 0.3393721 z"
           style="font-family:'URW Gothic';-inkscape-font-specification:'URW Gothic'"
           id="path146549" />
        <path
           d="M 9.096056,17.264061 H 9.4354281 V 13.874926 H 9.096056 Z"
           style="font-family:'URW Gothic';-inkscape-font-specification:'URW Gothic'"
           id="path146551" />
        <path
           d="m 9.8068978,16.525697 c 0.00459,0.486128 0.3210282,0.797983 0.8071552,0.797983 0.454025,0 0.765881,-0.321027 0.765881,-0.779638 0,-0.30727 -0.14217,-0.518231 -0.435681,-0.642056 -0.385233,-0.160514 -0.403578,-0.1651 -0.472369,-0.201789 -0.155928,-0.07796 -0.229306,-0.183444 -0.229306,-0.3302 0,-0.201788 0.160514,-0.362302 0.362303,-0.362302 0.220133,0 0.348544,0.128411 0.366889,0.366889 h 0.343958 c -0.01376,-0.403578 -0.302683,-0.678745 -0.706261,-0.678745 -0.408164,0 -0.710847,0.298097 -0.710847,0.706261 0,0.183445 0.064206,0.334786 0.188031,0.449439 0.10548,0.09631 0.110066,0.100894 0.463197,0.243064 0.389819,0.160514 0.486127,0.252236 0.486127,0.481541 0,0.252237 -0.174272,0.435681 -0.421922,0.435681 -0.284339,0 -0.454025,-0.174272 -0.472369,-0.486128 z"
           style="font-family:'URW Gothic';-inkscape-font-specification:'URW Gothic'"
           id="path146553" />
        <path
           d="m 14.305865,16.12212 c 0,-0.343959 -0.04586,-0.55492 -0.169686,-0.775053 -0.22472,-0.403578 -0.6604,-0.651228 -1.141942,-0.651228 -0.729191,0 -1.297869,0.573264 -1.297869,1.302456 0,0.742949 0.582436,1.325385 1.325386,1.325385 0.545747,0 1.036461,-0.35313 1.219905,-0.885119 h -0.35313 c -0.14217,0.343958 -0.4953,0.573264 -0.875947,0.573264 -0.518231,0 -0.949325,-0.394406 -0.976842,-0.889705 z m -2.260952,-0.30727 c 0.09172,-0.481541 0.472369,-0.807155 0.949324,-0.807155 0.486128,0 0.853017,0.302683 0.972256,0.807155 z"
           style="font-family:'URW Gothic';-inkscape-font-specification:'URW Gothic'"
           id="path146555" />
        <path
           d="m 18.552595,14.755459 h -0.339372 v 0.444852 c -0.252236,-0.348544 -0.559506,-0.504472 -0.986014,-0.504472 -0.733778,0 -1.279525,0.568678 -1.279525,1.325386 0,0.733778 0.568678,1.302455 1.307042,1.302455 0.454024,0 0.761294,-0.183444 0.958497,-0.568677 v 0.169686 c 0,0.24765 -0.02752,0.403578 -0.100895,0.559505 -0.132997,0.288925 -0.431094,0.454025 -0.820914,0.454025 -0.279752,0 -0.495299,-0.08255 -0.674158,-0.252236 -0.08714,-0.07796 -0.142169,-0.155928 -0.24765,-0.343958 h -0.3302 c 0.183445,0.587022 0.628297,0.90805 1.261181,0.90805 0.43568,0 0.802569,-0.1651 1.018116,-0.449439 0.169686,-0.229306 0.233892,-0.4953 0.233892,-0.986014 z m -1.302456,0.252236 c 0.541161,0 0.963084,0.426508 0.963084,0.972255 0,0.587022 -0.41275,1.031875 -0.958497,1.031875 -0.550334,0 -0.963084,-0.435681 -0.963084,-1.018117 0,-0.573263 0.403578,-0.986013 0.958497,-0.986013 z"
           style="font-family:'URW Gothic';-inkscape-font-specification:'URW Gothic'"
           id="path146557" />
        <path
           d="m 21.675728,16.12212 c 0,-0.343959 -0.04586,-0.55492 -0.169686,-0.775053 -0.224719,-0.403578 -0.6604,-0.651228 -1.141941,-0.651228 -0.729192,0 -1.297869,0.573264 -1.297869,1.302456 0,0.742949 0.582436,1.325385 1.325385,1.325385 0.545748,0 1.036461,-0.35313 1.219906,-0.885119 h -0.353131 c -0.142169,0.343958 -0.4953,0.573264 -0.875947,0.573264 -0.51823,0 -0.949325,-0.394406 -0.976841,-0.889705 z m -2.260952,-0.30727 c 0.09172,-0.481541 0.472369,-0.807155 0.949325,-0.807155 0.486127,0 0.853016,0.302683 0.972255,0.807155 z"
           style="font-family:'URW Gothic';-inkscape-font-specification:'URW Gothic'"
           id="path146559" />
        <path
           d="m 22.14351,17.264061 h 0.339372 v -1.380419 c 0,-0.279753 0.03669,-0.426508 0.132998,-0.568678 0.132997,-0.192616 0.366888,-0.307269 0.632883,-0.307269 0.24765,0 0.472369,0.100894 0.609953,0.27058 0.119238,0.155928 0.165099,0.339372 0.165099,0.669572 v 1.316214 h 0.339373 v -1.316214 c 0,-0.421922 -0.05962,-0.646641 -0.220134,-0.862188 -0.197202,-0.252236 -0.499886,-0.38982 -0.853016,-0.38982 -0.3302,0 -0.596194,0.123825 -0.807156,0.385234 V 14.755459 H 22.14351 Z"
           style="font-family:'URW Gothic';-inkscape-font-specification:'URW Gothic'"
           id="path146561" />
        <path
           d="m 27.454218,16.12212 c 0,-0.343959 -0.04586,-0.55492 -0.169686,-0.775053 -0.224719,-0.403578 -0.6604,-0.651228 -1.141941,-0.651228 -0.729192,0 -1.297869,0.573264 -1.297869,1.302456 0,0.742949 0.582436,1.325385 1.325386,1.325385 0.545747,0 1.03646,-0.35313 1.219905,-0.885119 h -0.353131 c -0.142169,0.343958 -0.4953,0.573264 -0.875947,0.573264 -0.51823,0 -0.949324,-0.394406 -0.976841,-0.889705 z m -2.260952,-0.30727 c 0.09172,-0.481541 0.472369,-0.807155 0.949325,-0.807155 0.486128,0 0.853016,0.302683 0.972255,0.807155 z"
           style="font-family:'URW Gothic';-inkscape-font-specification:'URW Gothic'"
           id="path146563" />
        <path
           d="m 27.922,17.264061 h 0.339373 v -1.462969 c -0.0046,-0.454025 0.24765,-0.733778 0.710847,-0.770467 v -0.334786 c -0.362303,0.01835 -0.57785,0.14217 -0.710847,0.417336 V 14.755459 H 27.922 Z"
           style="font-family:'URW Gothic';-inkscape-font-specification:'URW Gothic'"
           id="path146565" />
        <path
           d="m 31.705531,14.755459 h -0.339373 v 0.444852 c -0.252236,-0.348544 -0.554919,-0.504472 -0.990599,-0.504472 -0.752122,0 -1.3208,0.568678 -1.3208,1.3208 0,0.752122 0.573264,1.307041 1.348316,1.307041 0.426509,0 0.692503,-0.137583 0.963083,-0.499886 v 0.440267 h 0.339373 z m -1.3208,0.252236 c 0.554919,0 0.981427,0.431094 0.981427,0.9906 0,0.573263 -0.421922,1.01353 -0.963083,1.01353 -0.568677,0 -1.004358,-0.444853 -1.004358,-1.018117 0,-0.545747 0.440267,-0.986013 0.986014,-0.986013 z"
           style="font-family:'URW Gothic';-inkscape-font-specification:'URW Gothic'"
           id="path146567" />
        <path
           d="m 32.608989,17.264061 h 0.339372 v -2.201333 h 0.564091 v -0.307269 h -0.564091 v -0.880533 h -0.339372 v 0.880533 h -0.541161 v 0.307269 h 0.541161 z"
           style="font-family:'URW Gothic';-inkscape-font-specification:'URW Gothic'"
           id="path146569" />
        <path
           d="m 34.966243,14.695839 c -0.747536,0 -1.316214,0.564092 -1.316214,1.297869 0,0.775053 0.564092,1.329972 1.34373,1.329972 0.733778,0 1.274939,-0.554919 1.274939,-1.307041 0,-0.76588 -0.545747,-1.3208 -1.302455,-1.3208 z m 0,0.311856 c 0.554919,0 0.958497,0.426508 0.958497,1.01353 0,0.57785 -0.394406,0.9906 -0.940153,0.9906 -0.57785,0 -0.9906,-0.417336 -0.9906,-1.008944 0,-0.568678 0.417336,-0.995186 0.972256,-0.995186 z"
           style="font-family:'URW Gothic';-inkscape-font-specification:'URW Gothic'"
           id="path146571" />
        <path
           d="m 36.750234,17.264061 h 0.339372 v -1.462969 c -0.0046,-0.454025 0.24765,-0.733778 0.710847,-0.770467 v -0.334786 c -0.362302,0.01835 -0.57785,0.14217 -0.710847,0.417336 v -0.357716 h -0.339372 z"
           style="font-family:'URW Gothic';-inkscape-font-specification:'URW Gothic'"
           id="path146573" />
      </g>
    </g>
    <path
       id="rect167813"
       style="display:inline;fill:#4d4d4d;stroke-width:0.152799"
       d="M 2.0320001,19.275 H 38.608002 c 0,0 0,0 0,0 v 0.5 c 0,0 0,0 0,0 H 2.0320001 c 0,0 0,0 0,0 v -0.5 c 0,0 0,0 0,0 z" />
    <rect
       style="display:inline;fill:#808080;stroke-width:0.232672"
       id="rect36354-3-1"
       width="14.630404"
       height="14.90615"
       x="22.000635"
       y="94.706947"
       ry="1.1600115" />
    <rect
       style="display:inline;fill:#333333;stroke-width:0.226201"
       id="rect36354-5"
       width="14.314801"
       height="14.399168"
       x="22.159695"
       y="94.955299"
       ry="1.1205578" />
    <g
       aria-label="Clock"
       transform="matrix(1.1170733,0,0,0.89519641,8.9958338,26.987511)"
       id="text64391"
       style="font-size:4.23333px;line-height:1.25;-inkscape-font-specification:'sans-serif, Normal';font-variant-ligatures:none;display:inline;stroke-width:0.204822">
      <path
         d="m 15.250353,91.102143 q -0.516466,0 -0.791633,-0.385233 -0.275166,-0.385233 -0.275166,-1.189566 0,-0.410633 0.0762,-0.694266 0.08043,-0.283633 0.220133,-0.461433 0.1397,-0.1778 0.3302,-0.254 0.1905,-0.08043 0.414866,-0.08043 0.186267,0 0.347133,0.0508 0.160867,0.04657 0.262467,0.118533 l -0.1143,0.3175 q -0.1016,-0.06773 -0.220134,-0.110067 -0.114299,-0.04233 -0.266699,-0.04233 -0.338667,0 -0.491067,0.283633 -0.152399,0.2794 -0.152399,0.872066 0,0.5969 0.160866,0.918633 0.160867,0.321733 0.524933,0.321733 0.173567,0 0.2794,-0.04233 0.110066,-0.04233 0.211666,-0.110066 l 0.105834,0.300566 q -0.09737,0.0762 -0.258234,0.131234 -0.156633,0.05503 -0.364066,0.05503 z"
         style="font-family:'Ubuntu Condensed';-inkscape-font-specification:'Ubuntu Condensed, ';fill:#ececec"
         id="path93527" />
      <path
         d="m 16.842084,91.080976 q -0.313266,-0.0085 -0.448733,-0.1524 -0.135466,-0.148166 -0.135466,-0.465666 v -2.645831 l 0.364066,-0.0635 v 2.717798 q 0,0.148166 0.05927,0.2159 0.05927,0.0635 0.207433,0.0889 z"
         style="font-family:'Ubuntu Condensed';-inkscape-font-specification:'Ubuntu Condensed, ';fill:#ececec"
         id="path93529" />
      <path
         d="m 18.721675,89.92951 q 0,0.262467 -0.04657,0.478367 -0.04657,0.211666 -0.143933,0.364066 -0.09313,0.1524 -0.2413,0.237067 -0.143933,0.08467 -0.342899,0.08467 -0.198967,0 -0.347133,-0.08467 -0.148167,-0.08467 -0.245534,-0.237067 -0.09313,-0.1524 -0.1397,-0.364066 -0.04657,-0.2159 -0.04657,-0.478367 0,-0.258233 0.04657,-0.474132 0.04657,-0.2159 0.1397,-0.3683 0.09737,-0.156633 0.245534,-0.2413 0.148166,-0.08467 0.347133,-0.08467 0.198966,0 0.342899,0.08467 0.148167,0.08467 0.2413,0.2413 0.09737,0.1524 0.143933,0.3683 0.04657,0.215899 0.04657,0.474132 z m -0.381,0 q 0,-0.186266 -0.02117,-0.338666 -0.02117,-0.156633 -0.06773,-0.2667 -0.04657,-0.1143 -0.122766,-0.173566 -0.0762,-0.0635 -0.182033,-0.0635 -0.110067,0 -0.186267,0.0635 -0.07197,0.05927 -0.122767,0.173566 -0.04657,0.110067 -0.06773,0.2667 -0.02117,0.1524 -0.02117,0.338666 0,0.186267 0.02117,0.3429 0.02117,0.1524 0.06773,0.262467 0.0508,0.110066 0.122767,0.173566 0.0762,0.05927 0.186267,0.05927 0.105833,0 0.182033,-0.05927 0.0762,-0.0635 0.122766,-0.173566 0.04657,-0.110067 0.06773,-0.262467 0.02117,-0.156633 0.02117,-0.3429 z"
         style="font-family:'Ubuntu Condensed';-inkscape-font-specification:'Ubuntu Condensed, ';fill:#ececec"
         id="path93531" />
      <path
         d="m 19.932404,91.093676 q -0.228599,0 -0.380999,-0.0889 -0.1524,-0.0889 -0.249767,-0.2413 -0.09313,-0.156633 -0.135466,-0.368299 -0.0381,-0.211667 -0.0381,-0.461433 0,-0.550333 0.198966,-0.859366 0.2032,-0.313267 0.6096,-0.313267 0.122766,0 0.220133,0.02963 0.09737,0.02963 0.182033,0.0762 l -0.09313,0.300566 q -0.131233,-0.08467 -0.2921,-0.08467 -0.2286,0 -0.338666,0.207433 -0.105834,0.207433 -0.105834,0.643466 0,0.182033 0.02117,0.338666 0.02117,0.1524 0.07197,0.262467 0.05503,0.110066 0.1397,0.173566 0.0889,0.0635 0.224366,0.0635 0.09313,0 0.1651,-0.02117 0.0762,-0.0254 0.143933,-0.0635 l 0.08043,0.283633 q -0.06773,0.04657 -0.182033,0.08467 -0.110066,0.0381 -0.2413,0.0381 z"
         style="font-family:'Ubuntu Condensed';-inkscape-font-specification:'Ubuntu Condensed, ';fill:#ececec"
         id="path93533" />
      <path
         d="m 22.125264,88.816145 q -0.1778,0.304799 -0.3429,0.558799 -0.160866,0.249767 -0.321733,0.4699 0.1016,0.118533 0.207433,0.2667 0.105833,0.148166 0.2032,0.309033 0.09737,0.156633 0.182033,0.317499 0.08467,0.156634 0.143933,0.300567 h -0.397933 q -0.0635,-0.1397 -0.148166,-0.2921 -0.08467,-0.1524 -0.1778,-0.296333 -0.09313,-0.148166 -0.186267,-0.2794 -0.09313,-0.131233 -0.173566,-0.220133 v 1.087966 h -0.364066 v -3.221564 l 0.364066,-0.0635 v 2.019298 q 0.0762,-0.1016 0.160867,-0.2286 0.0889,-0.126999 0.173566,-0.253999 0.08467,-0.131234 0.160867,-0.254 0.0762,-0.122767 0.126999,-0.220133 z"
         style="font-family:'Ubuntu Condensed';-inkscape-font-specification:'Ubuntu Condensed, ';fill:#ececec"
         id="path93535" />
    </g>
    <circle
       style="display:inline;fill:#800000;fill-opacity:1;fill-rule:evenodd;stroke:#000000;stroke-width:0.193958;stroke-linecap:butt;stroke-linejoin:miter;stroke-miterlimit:4;stroke-dasharray:none;stroke-dashoffset:0;stroke-opacity:1;paint-order:normal"
       id="path4954-4-6-8"
       cx="15.0368"
       cy="52.0425"
       inkscape:label=""
       r="11.153021" />
    <rect
       style="fill:#ececec;stroke-width:0.234528;stroke:#cccccc"
       id="rect89"
       width="36.576"
       height="14.134998"
       x="2.0320008"
       y="22.487501"
       ry="0.60000002" />
    <rect
       style="fill:#1a1a1a;stroke-width:0.628803"
       id="rect193"
       width="24.790401"
       height="12.85"
       x="2.4384"
       y="23.129999"
       rx="0.29460162"
       ry="0.25700083" />
    <rect
       style="display:inline;fill:#1a1a1a;stroke-width:0.410522"
       id="rect193-3"
       width="10.566401"
       height="12.85"
       x="27.635201"
       y="23.129999"
       rx="0.26794383"
       ry="0.25700083" />
    <g
       aria-label="BPM"
       transform="matrix(1.1333865,0,0,0.88241991,-26.989343,0.5268745)"
       id="text1625"
       style="font-size:4.35791px;line-height:1.25;-inkscape-font-specification:'sans-serif, Normal';font-variant-ligatures:none;fill:#800000;stroke-width:0.233458">
      <path
         d="m 26.714901,43.614925 h 0.270191 q 0.540381,0 0.540381,-0.488086 0,-0.152527 -0.04794,-0.248401 -0.04358,-0.100232 -0.117664,-0.152527 -0.07408,-0.05665 -0.174316,-0.07844 -0.09587,-0.02179 -0.204822,-0.02179 -0.06537,0 -0.135095,0.0044 -0.06537,0.0044 -0.130738,0.01307 z m 0,0.313769 v 1.089478 q 0.0828,0.01307 0.161243,0.02179 0.0828,0.0087 0.161243,0.0087 0.122021,0 0.230969,-0.02615 0.108948,-0.02615 0.18739,-0.08716 0.0828,-0.06101 0.126379,-0.1656 0.04794,-0.108948 0.04794,-0.265833 0,-0.27019 -0.148168,-0.422717 -0.143811,-0.152527 -0.453223,-0.152527 z M 26.322689,42.37292 q 0.152527,-0.03486 0.309412,-0.0523 0.161243,-0.02179 0.318128,-0.02179 0.196105,0 0.370422,0.03922 0.178674,0.03486 0.313769,0.126379 0.135096,0.08716 0.213538,0.235327 0.0828,0.143812 0.0828,0.361707 0,0.27019 -0.113305,0.444507 -0.113306,0.169958 -0.29198,0.252759 0.222253,0.08716 0.366064,0.265832 0.143811,0.178674 0.143811,0.492444 0,0.235327 -0.07844,0.39657 -0.07409,0.161243 -0.213538,0.265832 -0.139453,0.100232 -0.335559,0.148169 -0.191748,0.04358 -0.422717,0.04358 -0.152527,0 -0.318128,-0.01743 -0.1656,-0.01743 -0.344275,-0.0523 z"
         style="font-family:'Ubuntu Condensed';-inkscape-font-specification:'Ubuntu Condensed, '"
         id="path8991" />
      <path
         d="m 28.59316,42.37292 q 0.305054,-0.07408 0.597034,-0.07408 0.226611,0 0.409644,0.05665 0.18739,0.0523 0.318127,0.169958 0.135095,0.113306 0.204822,0.296338 0.07408,0.183032 0.07408,0.440149 0,0.261475 -0.07408,0.448865 -0.07409,0.183032 -0.20918,0.300695 -0.135095,0.113306 -0.326843,0.165601 -0.18739,0.0523 -0.41836,0.0523 h -0.183032 v 1.119983 H 28.59316 Z m 0.392212,1.512195 h 0.156885 q 0.148169,0 0.265832,-0.0305 0.122022,-0.03486 0.204822,-0.108948 0.0828,-0.07409 0.12638,-0.191748 0.04358,-0.117664 0.04358,-0.29198 0,-0.174317 -0.04358,-0.29198 -0.04358,-0.122022 -0.122022,-0.191748 -0.07408,-0.07408 -0.183032,-0.10459 -0.108948,-0.03051 -0.239685,-0.03051 -0.113306,0 -0.20918,0.01307 z"
         style="font-family:'Ubuntu Condensed';-inkscape-font-specification:'Ubuntu Condensed, '"
         id="path8993" />
      <path
         d="m 31.756997,44.931013 q -0.08716,-0.313769 -0.178674,-0.601391 -0.09152,-0.287622 -0.178675,-0.540381 -0.0828,-0.257117 -0.161242,-0.466296 -0.07844,-0.20918 -0.143811,-0.366065 -0.01743,0.248401 -0.03051,0.549097 -0.0087,0.296338 -0.02179,0.610107 -0.0087,0.31377 -0.01743,0.631897 -0.0044,0.31377 -0.0087,0.601392 h -0.37478 q 0.01307,-0.392212 0.02615,-0.788782 0.01307,-0.400928 0.03051,-0.784424 0.02179,-0.387854 0.04358,-0.753918 0.02615,-0.366065 0.05665,-0.692908 h 0.387854 q 0.07844,0.18739 0.178674,0.448865 0.100232,0.257117 0.200464,0.540381 0.10459,0.283264 0.200464,0.566528 0.09587,0.283264 0.165601,0.518591 0.06973,-0.235327 0.161242,-0.518591 0.09152,-0.283264 0.191748,-0.566528 0.100232,-0.283264 0.196106,-0.540381 0.100232,-0.261475 0.178675,-0.448865 h 0.387854 q 0.0305,0.326843 0.05229,0.692908 0.02615,0.366064 0.04358,0.753918 0.02179,0.383496 0.03486,0.784424 0.01307,0.39657 0.02615,0.788782 h -0.37478 q -0.0087,-0.287622 -0.01743,-0.60575 -0.0044,-0.318127 -0.01743,-0.636255 -0.0087,-0.322485 -0.02179,-0.623181 -0.01307,-0.305053 -0.0305,-0.557812 -0.03922,0.108948 -0.100232,0.274548 -0.05665,0.161243 -0.122022,0.352991 -0.06101,0.191748 -0.130737,0.39657 -0.06537,0.200464 -0.126379,0.387854 -0.05665,0.18739 -0.10459,0.344275 -0.04358,0.152526 -0.06973,0.2484 z"
         style="font-family:'Ubuntu Condensed';-inkscape-font-specification:'Ubuntu Condensed, '"
         id="path8995" />
    </g>
    <text
       xml:space="preserve"
       style="font-size:4.21313px;line-height:1.25;font-family:sans-serif;-inkscape-font-specification:'sans-serif, Normal';font-variant-ligatures:none;stroke-width:0.243065"
       x="23.718899"
       y="44.273525"
       id="text12009"
       transform="scale(1.0885247,0.91867461)"><tspan
         sodipodi:role="line"
         id="tspan12007"
         style="font-style:normal;font-variant:normal;font-weight:normal;font-stretch:normal;font-size:4.21313px;font-family:'Ubuntu Condensed';-inkscape-font-specification:'Ubuntu Condensed, ';fill:#800000;stroke-width:0.243065"
         x="23.718899"
         y="44.273525" /></text>
    <text
       xml:space="preserve"
       transform="scale(0.26458333)"
       id="text109321"
       style="line-height:1.25;font-family:sans-serif;font-size:24px;-inkscape-font-specification:'sans-serif, Normal';font-variant-ligatures:none;white-space:pre;shape-inside:url(#rect109323)" />
    <g
       aria-label="Pulse duration"
       transform="matrix(1.0561296,0,0,0.94685349,-2.6542907,18.322113)"
       id="text152426"
       style="font-size:3.175px;line-height:1.25;-inkscape-font-specification:'sans-serif, Normal';font-variant-ligatures:none;stroke-width:0.250521">
      <path
         d="m 4.4382641,94.681428 q 0.22225,-0.05397 0.434975,-0.05397 0.1651,0 0.29845,0.04127 0.136525,0.0381 0.231775,0.123825 0.098425,0.08255 0.149225,0.2159 0.053975,0.13335 0.053975,0.320675 0,0.1905 -0.053975,0.327025 -0.053975,0.13335 -0.1524,0.219075 -0.098425,0.08255 -0.238125,0.12065 -0.136525,0.0381 -0.3048,0.0381 h -0.13335 v 0.815975 h -0.28575 z m 0.28575,1.101725 h 0.1143 q 0.10795,0 0.193675,-0.02222 0.0889,-0.0254 0.149225,-0.07938 0.060325,-0.05397 0.092075,-0.1397 0.03175,-0.08572 0.03175,-0.212725 0,-0.127 -0.03175,-0.212725 -0.03175,-0.0889 -0.0889,-0.1397 -0.053975,-0.05397 -0.13335,-0.0762 -0.079375,-0.02223 -0.174625,-0.02223 -0.08255,0 -0.1524,0.0095 z"
         style="font-family:'Ubuntu Condensed';-inkscape-font-specification:'Ubuntu Condensed, ';fill:#800000"
         id="path202888" />
      <path
         d="m 6.9909599,96.802328 q -0.041275,0.01587 -0.1016,0.03175 -0.05715,0.0127 -0.123825,0.02222 -0.0635,0.0127 -0.130175,0.01905 -0.0635,0.0095 -0.117475,0.0095 -0.1301749,0 -0.2381249,-0.03175 Q 6.17181,96.824553 6.09561,96.748353 6.01941,96.672153 5.978135,96.541978 5.93686,96.408628 5.93686,96.208603 v -1.025525 h 0.27305 v 1.016 q 0,0.244475 0.073025,0.346075 0.0762,0.09843 0.2285999,0.09843 0.0508,0 0.1016,-0.0032 0.0508,-0.0064 0.104775,-0.02223 v -1.4351 h 0.27305 z"
         style="font-family:'Ubuntu Condensed';-inkscape-font-specification:'Ubuntu Condensed, ';fill:#800000"
         id="path202890" />
      <path
         d="m 7.9148836,96.881703 q -0.23495,-0.0063 -0.33655,-0.1143 -0.1016,-0.111125 -0.1016,-0.34925 v -1.984375 l 0.27305,-0.04763 v 2.03835 q 0,0.111125 0.04445,0.161925 0.04445,0.04762 0.155575,0.06668 z"
         style="font-family:'Ubuntu Condensed';-inkscape-font-specification:'Ubuntu Condensed, ';fill:#800000"
         id="path202892" />
      <path
         d="m 8.4863775,96.656278 q 0.12065,0 0.180975,-0.06668 0.0635,-0.06985 0.0635,-0.180975 0,-0.06985 -0.0254,-0.117475 -0.0254,-0.0508 -0.066675,-0.0889 -0.041275,-0.0381 -0.09525,-0.06668 -0.053975,-0.03175 -0.10795,-0.06667 -0.053975,-0.03175 -0.104775,-0.07303 -0.0508,-0.04445 -0.092075,-0.09843 -0.0381,-0.05715 -0.0635,-0.127 -0.022225,-0.07303 -0.022225,-0.168275 0,-0.206375 0.127,-0.333375 0.130175,-0.127 0.34925,-0.127 0.092075,0 0.174625,0.0254 0.08255,0.02223 0.136525,0.0508 l -0.060325,0.219075 q -0.05715,-0.03175 -0.1143,-0.04762 -0.05715,-0.01588 -0.123825,-0.01588 -0.1016,0 -0.161925,0.06033 -0.060325,0.05715 -0.060325,0.168275 0,0.0635 0.022225,0.111125 0.022225,0.04445 0.05715,0.08255 0.0381,0.03493 0.08255,0.06668 0.047625,0.03175 0.098425,0.06033 0.060325,0.03493 0.117475,0.0762 0.060325,0.04127 0.104775,0.09842 0.047625,0.05398 0.0762,0.130175 0.028575,0.07303 0.028575,0.1778 0,0.219075 -0.130175,0.352425 -0.127,0.13335 -0.37465,0.13335 -0.127,0 -0.2286,-0.03493 -0.1016,-0.03493 -0.1524,-0.0635 l 0.05715,-0.225425 q 0.047625,0.0254 0.127,0.05715 0.08255,0.03175 0.180975,0.03175 z"
         style="font-family:'Ubuntu Condensed';-inkscape-font-specification:'Ubuntu Condensed, ';fill:#800000"
         id="path202894" />
      <path
         d="m 9.5246013,96.097478 q 0.00317,0.12065 0.022225,0.22225 0.01905,0.09843 0.060325,0.174625 0.04445,0.07303 0.1143,0.1143 0.073025,0.04127 0.18415,0.04127 0.092075,0 0.1682747,-0.0254 0.07937,-0.02858 0.1143,-0.04762 l 0.0508,0.219075 q -0.04127,0.02857 -0.1397,0.06032 -0.09525,0.03493 -0.2285997,0.03493 -0.174625,0 -0.295275,-0.0635 -0.117475,-0.0635 -0.193675,-0.1778 -0.073025,-0.1143 -0.104775,-0.27305 -0.03175,-0.15875 -0.03175,-0.34925 0,-0.460375 0.1524,-0.6731 0.1524,-0.212725 0.403225,-0.212725 0.2825747,0 0.4000497,0.212725 0.117475,0.212725 0.117475,0.5969 0,0.03492 0,0.07302 0,0.03493 -0.0032,0.07303 z m 0.276225,-0.7239 q -0.136525,0 -0.200025,0.136525 -0.060325,0.136525 -0.073025,0.365125 h 0.5048247 q 0,-0.231775 -0.047625,-0.365125 -0.047625,-0.136525 -0.1841497,-0.136525 z"
         style="font-family:'Ubuntu Condensed';-inkscape-font-specification:'Ubuntu Condensed, ';fill:#800000"
         id="path202896" />
      <path
         d="m 12.058247,95.433903 q -0.09207,-0.0508 -0.19685,-0.0508 -0.07938,0 -0.1397,0.03175 -0.06033,0.03175 -0.104775,0.104775 -0.04128,0.07303 -0.0635,0.193675 -0.02222,0.12065 -0.02222,0.29845 0,0.3429 0.0889,0.492125 0.09208,0.14605 0.276225,0.14605 0.03493,0 0.0762,-0.0032 0.04128,-0.0063 0.08573,-0.01905 z m 0,-1.000125 0.27305,-0.04763 v 2.41935 q -0.0889,0.0381 -0.2032,0.06032 -0.1143,0.0254 -0.231775,0.0254 -0.3429,0 -0.498475,-0.219075 -0.1524,-0.219075 -0.1524,-0.6604 0,-0.200025 0.03175,-0.358775 0.03493,-0.161925 0.104775,-0.27305 0.07303,-0.1143 0.18415,-0.174625 0.111125,-0.0635 0.263525,-0.0635 0.07303,0 0.123825,0.01588 0.05398,0.0127 0.104775,0.0381 z"
         style="font-family:'Ubuntu Condensed';-inkscape-font-specification:'Ubuntu Condensed, ';fill:#800000"
         id="path202898" />
      <path
         d="m 13.855293,96.802328 q -0.04127,0.01587 -0.1016,0.03175 -0.05715,0.0127 -0.123825,0.02222 -0.0635,0.0127 -0.130175,0.01905 -0.0635,0.0095 -0.117475,0.0095 -0.130175,0 -0.238125,-0.03175 -0.10795,-0.02858 -0.18415,-0.104775 -0.0762,-0.0762 -0.117475,-0.206375 -0.04128,-0.13335 -0.04128,-0.333375 v -1.025525 h 0.27305 v 1.016 q 0,0.244475 0.07303,0.346075 0.0762,0.09843 0.2286,0.09843 0.0508,0 0.1016,-0.0032 0.0508,-0.0064 0.104775,-0.02223 v -1.4351 h 0.27305 z"
         style="font-family:'Ubuntu Condensed';-inkscape-font-specification:'Ubuntu Condensed, ';fill:#800000"
         id="path202900" />
      <path
         d="m 15.068142,95.430728 q -0.1016,-0.04445 -0.2286,-0.04445 -0.117475,0 -0.219075,0.04127 v 1.4224 h -0.27305 v -1.59385 q 0.09207,-0.04445 0.20955,-0.07303 0.12065,-0.03175 0.263525,-0.03175 0.0762,0 0.1524,0.0095 0.0762,0.0095 0.142875,0.03493 z"
         style="font-family:'Ubuntu Condensed';-inkscape-font-specification:'Ubuntu Condensed, ';fill:#800000"
         id="path202902" />
      <path
         d="m 15.366585,95.218003 q 0.08255,-0.03493 0.174625,-0.05397 0.09208,-0.02223 0.200025,-0.02223 0.22225,0 0.36195,0.1397 0.1397,0.136525 0.1397,0.428625 v 1.1049 q -0.1143,0.03175 -0.23495,0.0508 -0.117475,0.01905 -0.231775,0.01905 -0.1143,0 -0.2159,-0.02858 -0.09842,-0.02858 -0.174625,-0.09207 -0.07303,-0.0635 -0.117475,-0.15875 -0.04445,-0.09843 -0.04445,-0.238125 0,-0.130175 0.0381,-0.225425 0.04127,-0.09842 0.111125,-0.161925 0.06985,-0.06667 0.1651,-0.09842 0.09525,-0.03493 0.206375,-0.03493 0.104775,0 0.231775,0.0254 v -0.1524 q 0,-0.18415 -0.07302,-0.257175 -0.06985,-0.07303 -0.2032,-0.07303 -0.07303,0 -0.1397,0.01587 -0.0635,0.0127 -0.136525,0.04445 z m 0.130175,1.146175 q 0,0.14605 0.0762,0.2159 0.0762,0.06985 0.2159,0.06985 0.08573,0 0.187325,-0.02223 v -0.530225 q -0.09525,-0.0254 -0.187325,-0.0254 -0.06032,0 -0.1143,0.01587 -0.05397,0.0127 -0.09525,0.04762 -0.0381,0.03175 -0.06032,0.0889 -0.02223,0.05397 -0.02223,0.1397 z"
         style="font-family:'Ubuntu Condensed';-inkscape-font-specification:'Ubuntu Condensed, ';fill:#800000"
         id="path202904" />
      <path
         d="m 16.973129,95.183078 h 0.4191 v 0.23495 h -0.4191 v 0.917575 q 0,0.17145 0.06032,0.2413 0.0635,0.06668 0.168275,0.06668 0.05398,0 0.1016,-0.01588 0.0508,-0.01587 0.08573,-0.0381 l 0.05397,0.219075 q -0.130175,0.0762 -0.276225,0.0762 -0.23495,0 -0.352425,-0.130175 -0.1143,-0.13335 -0.1143,-0.43815 v -1.58115 l 0.27305,-0.04763 z"
         style="font-family:'Ubuntu Condensed';-inkscape-font-specification:'Ubuntu Condensed, ';fill:#800000"
         id="path202906" />
      <path
         d="m 18.011351,96.849953 h -0.27305 v -1.666875 h 0.27305 z m -0.136525,-1.96215 q -0.07302,0 -0.127,-0.04763 -0.0508,-0.0508 -0.0508,-0.13335 0,-0.08255 0.0508,-0.130175 0.05398,-0.0508 0.127,-0.0508 0.07303,0 0.123825,0.0508 0.05398,0.04763 0.05398,0.130175 0,0.08255 -0.05398,0.13335 -0.0508,0.04763 -0.123825,0.04763 z"
         style="font-family:'Ubuntu Condensed';-inkscape-font-specification:'Ubuntu Condensed, ';fill:#800000"
         id="path202908" />
      <path
         d="m 19.576622,96.018103 q 0,0.19685 -0.03493,0.358775 -0.03492,0.15875 -0.10795,0.27305 -0.06985,0.1143 -0.180975,0.1778 -0.10795,0.0635 -0.257175,0.0635 -0.149225,0 -0.26035,-0.0635 -0.111125,-0.0635 -0.18415,-0.1778 -0.06985,-0.1143 -0.104775,-0.27305 -0.03492,-0.161925 -0.03492,-0.358775 0,-0.193675 0.03492,-0.3556 0.03493,-0.161925 0.104775,-0.276225 0.07303,-0.117475 0.18415,-0.180975 0.111125,-0.0635 0.26035,-0.0635 0.149225,0 0.257175,0.0635 0.111125,0.0635 0.180975,0.180975 0.07303,0.1143 0.10795,0.276225 0.03493,0.161925 0.03493,0.3556 z m -0.28575,0 q 0,-0.1397 -0.01588,-0.254 -0.01587,-0.117475 -0.0508,-0.200025 -0.03493,-0.08572 -0.09208,-0.130175 -0.05715,-0.04762 -0.136525,-0.04762 -0.08255,0 -0.1397,0.04762 -0.05397,0.04445 -0.09207,0.130175 -0.03493,0.08255 -0.0508,0.200025 -0.01587,0.1143 -0.01587,0.254 0,0.1397 0.01587,0.257175 0.01588,0.1143 0.0508,0.19685 0.0381,0.08255 0.09207,0.130175 0.05715,0.04445 0.1397,0.04445 0.07937,0 0.136525,-0.04445 0.05715,-0.04763 0.09208,-0.130175 0.03493,-0.08255 0.0508,-0.19685 0.01588,-0.117475 0.01588,-0.257175 z"
         style="font-family:'Ubuntu Condensed';-inkscape-font-specification:'Ubuntu Condensed, ';fill:#800000"
         id="path202910" />
      <path
         d="m 19.97667,95.230703 q 0.117475,-0.03493 0.254,-0.05715 0.136525,-0.0254 0.250825,-0.0254 0.123825,0 0.225425,0.03493 0.1016,0.03175 0.17145,0.111125 0.07303,0.07937 0.111125,0.2159 0.04127,0.13335 0.04127,0.333375 v 1.006475 h -0.27305 v -0.98425 q 0,-0.24765 -0.0635,-0.36195 -0.0635,-0.1143 -0.238125,-0.1143 -0.09208,0 -0.206375,0.03175 v 1.42875 h -0.27305 z"
         style="font-family:'Ubuntu Condensed';-inkscape-font-specification:'Ubuntu Condensed, ';fill:#800000"
         id="path202912" />
    </g>
    <rect
       style="font-size:2.6524px;line-height:1.25;-inkscape-font-specification:'sans-serif, Normal';font-variant-ligatures:none;display:inline;fill:#800000;stroke-width:0.0154974"
       id="rect57152-2"
       width="2.1336002"
       height="0.25700217"
       x="-93.933502"
       y="10.566401"
       rx="3.809769e-07"
       transform="rotate(-90)" />
    <rect
       style="font-size:2.6524px;line-height:1.25;-inkscape-font-specification:'sans-serif, Normal';font-variant-ligatures:none;display:inline;fill:#800000;stroke-width:0.0169502"
       id="rect57152-2-2"
       width="2.3336"
       height="0.28109312"
       x="15.218835"
       y="87.221161"
       rx="4.1668901e-07" />
    <rect
       style="font-size:2.6524px;line-height:1.25;-inkscape-font-specification:'sans-serif, Normal';font-variant-ligatures:none;display:inline;fill:#800000;stroke-width:0.0173203"
       id="rect57152-2-2-3"
       width="2.4366331"
       height="0.28109312"
       x="55.255001"
       y="-28.588549"
       rx="4.3508666e-07"
       transform="rotate(90)" />
    <rect
       style="font-size:2.6524px;line-height:1.25;-inkscape-font-specification:'sans-serif, Normal';font-variant-ligatures:none;display:inline;fill:#800000;stroke-width:0.0167407"
       id="rect57152-2-2-3-5"
       width="2.3896194"
       height="0.26775762"
       x="40.592743"
       y="46.817211"
       rx="4.2669186e-07"
       transform="matrix(0.97075742,0.24006257,-0.28058362,0.95982959,0,0)" />
    <g
       aria-label="CV"
       transform="matrix(1.0834914,0,0,0.92294225,3.5983408,12.819666)"
       id="text974"
       style="font-size:2.49457px;line-height:1.25;-inkscape-font-specification:'sans-serif, Normal';font-variant-ligatures:none;display:inline;fill:#800000;stroke-width:0.10394">
      <path
         d="m 21.14097,81.655651 q -0.304337,0 -0.466484,-0.227006 -0.162147,-0.227005 -0.162147,-0.700974 0,-0.241973 0.0449,-0.409109 0.0474,-0.167136 0.129718,-0.271908 0.08232,-0.104772 0.194576,-0.149675 0.112256,-0.0474 0.244468,-0.0474 0.109761,0 0.204555,0.02993 0.09479,0.02744 0.154663,0.06985 l -0.06735,0.187093 q -0.05987,-0.03991 -0.129718,-0.06486 -0.06735,-0.02495 -0.157158,-0.02495 -0.199566,0 -0.28937,0.167136 -0.08981,0.164641 -0.08981,0.513881 0,0.351735 0.09479,0.541322 0.09479,0.189587 0.309327,0.189587 0.102277,0 0.164641,-0.02495 0.06486,-0.02495 0.124729,-0.06486 l 0.06236,0.177114 q -0.05738,0.0449 -0.152169,0.07733 -0.0923,0.03243 -0.214533,0.03243 z"
         style="font-family:'Ubuntu Condensed';-inkscape-font-specification:'Ubuntu Condensed, ';fill:#800000"
         id="path138" />
      <path
         d="m 22.118838,81.618233 q -0.05738,-0.187093 -0.11475,-0.37668 -0.05738,-0.192082 -0.11475,-0.401626 -0.05488,-0.209544 -0.109761,-0.441539 -0.05488,-0.23449 -0.109761,-0.508892 h 0.234489 q 0.03243,0.192082 0.07234,0.386658 0.03991,0.192082 0.08481,0.379175 0.0449,0.187092 0.08981,0.364207 0.0474,0.17462 0.0923,0.331778 0.0449,-0.157158 0.0898,-0.331778 0.0474,-0.177115 0.0923,-0.364207 0.0449,-0.187093 0.08481,-0.379175 0.03991,-0.194576 0.07234,-0.386658 h 0.227006 q -0.05488,0.274402 -0.109761,0.508892 -0.05488,0.231995 -0.112255,0.441539 -0.05488,0.209544 -0.112256,0.401626 -0.05738,0.189587 -0.11475,0.37668 z"
         style="font-family:'Ubuntu Condensed';-inkscape-font-specification:'Ubuntu Condensed, ';fill:#800000"
         id="path140" />
    </g>
    <g
       aria-label="CV"
       transform="matrix(1.0834914,0,0,0.92294225,11.074408,-11.565)"
       id="text974-6"
       style="font-size:2.49457px;line-height:1.25;-inkscape-font-specification:'sans-serif, Normal';font-variant-ligatures:none;display:inline;fill:#800000;stroke-width:0.10394">
      <path
         d="m 21.14097,81.655651 q -0.304337,0 -0.466484,-0.227006 -0.162147,-0.227005 -0.162147,-0.700974 0,-0.241973 0.0449,-0.409109 0.0474,-0.167136 0.129718,-0.271908 0.08232,-0.104772 0.194576,-0.149675 0.112256,-0.0474 0.244468,-0.0474 0.109761,0 0.204555,0.02993 0.09479,0.02744 0.154663,0.06985 l -0.06735,0.187093 q -0.05987,-0.03991 -0.129718,-0.06486 -0.06735,-0.02495 -0.157158,-0.02495 -0.199566,0 -0.28937,0.167136 -0.08981,0.164641 -0.08981,0.513881 0,0.351735 0.09479,0.541322 0.09479,0.189587 0.309327,0.189587 0.102277,0 0.164641,-0.02495 0.06486,-0.02495 0.124729,-0.06486 l 0.06236,0.177114 q -0.05738,0.0449 -0.152169,0.07733 -0.0923,0.03243 -0.214533,0.03243 z"
         style="font-family:'Ubuntu Condensed';-inkscape-font-specification:'Ubuntu Condensed, ';fill:#800000"
         id="path138-7" />
      <path
         d="m 22.118838,81.618233 q -0.05738,-0.187093 -0.11475,-0.37668 -0.05738,-0.192082 -0.11475,-0.401626 -0.05488,-0.209544 -0.109761,-0.441539 -0.05488,-0.23449 -0.109761,-0.508892 h 0.234489 q 0.03243,0.192082 0.07234,0.386658 0.03991,0.192082 0.08481,0.379175 0.0449,0.187092 0.08981,0.364207 0.0474,0.17462 0.0923,0.331778 0.0449,-0.157158 0.0898,-0.331778 0.0474,-0.177115 0.0923,-0.364207 0.0449,-0.187093 0.08481,-0.379175 0.03991,-0.194576 0.07234,-0.386658 h 0.227006 q -0.05488,0.274402 -0.109761,0.508892 -0.05488,0.231995 -0.112255,0.441539 -0.05488,0.209544 -0.112256,0.401626 -0.05738,0.189587 -0.11475,0.37668 z"
         style="font-family:'Ubuntu Condensed';-inkscape-font-specification:'Ubuntu Condensed, ';fill:#800000"
         id="path140-5" />
    </g>
    <g
       aria-label="Mult"
       transform="matrix(1.0958237,0,0,0.91255555,-1.9092394,-9.1083379)"
       id="text207284"
       style="font-size:2.89736px;line-height:1.25;-inkscape-font-specification:'sans-serif, Normal';font-variant-ligatures:none;stroke-width:0.241447">
      <path
         d="m 32.054994,57.859499 q -0.05795,-0.20861 -0.118792,-0.399836 -0.06084,-0.191225 -0.118792,-0.359272 -0.05505,-0.170944 -0.107202,-0.310018 -0.05215,-0.139073 -0.09561,-0.243378 -0.01159,0.16515 -0.02028,0.365067 -0.0058,0.197021 -0.01449,0.405631 -0.0058,0.20861 -0.01159,0.420117 -0.0029,0.20861 -0.0058,0.399836 H 31.31327 q 0.0087,-0.260763 0.01738,-0.524422 0.0087,-0.266558 0.02028,-0.521525 0.01449,-0.257865 0.02897,-0.501244 0.01738,-0.243378 0.03767,-0.46068 h 0.257865 q 0.05215,0.124587 0.118791,0.298428 0.06664,0.170945 0.133279,0.359273 0.06954,0.188328 0.133279,0.376657 0.06374,0.188328 0.110099,0.344786 0.04636,-0.156458 0.107203,-0.344786 0.06084,-0.188329 0.127483,-0.376657 0.06664,-0.188328 0.130382,-0.359273 0.06664,-0.173841 0.118791,-0.298428 h 0.257865 q 0.02028,0.217302 0.03477,0.46068 0.01738,0.243379 0.02897,0.501244 0.01449,0.254967 0.02318,0.521525 0.0087,0.263659 0.01738,0.524422 h -0.249173 q -0.0058,-0.191226 -0.01159,-0.402733 -0.0029,-0.211508 -0.01159,-0.423015 -0.0058,-0.214405 -0.01449,-0.414322 -0.0087,-0.202816 -0.02028,-0.370862 -0.02608,0.07243 -0.06664,0.182533 -0.03767,0.107203 -0.08113,0.234686 -0.04056,0.127484 -0.08692,0.26366 -0.04346,0.133279 -0.08402,0.257865 -0.03767,0.124587 -0.06954,0.228892 -0.02897,0.101407 -0.04636,0.165149 z"
         style="font-family:'Ubuntu Condensed';-inkscape-font-specification:'Ubuntu Condensed, ';fill:#800000"
         id="path226126" />
      <path
         d="m 34.369981,58.094185 q -0.03767,0.01449 -0.09272,0.02897 -0.05215,0.01159 -0.112997,0.02028 -0.05795,0.01159 -0.118791,0.01739 -0.05795,0.0087 -0.107203,0.0087 -0.118791,0 -0.217302,-0.02897 -0.09851,-0.02608 -0.168047,-0.09561 -0.06954,-0.06954 -0.107202,-0.188328 -0.03767,-0.121689 -0.03767,-0.304223 v -0.935847 h 0.249173 v 0.927155 q 0,0.223097 0.06664,0.315812 0.06954,0.08982 0.20861,0.08982 0.04636,0 0.09271,-0.0029 0.04636,-0.0058 0.09561,-0.02028 v -1.309606 h 0.249173 z"
         style="font-family:'Ubuntu Condensed';-inkscape-font-specification:'Ubuntu Condensed, ';fill:#800000"
         id="path226128" />
      <path
         d="m 35.213112,58.166619 q -0.214405,-0.0058 -0.307121,-0.104305 -0.09271,-0.101407 -0.09271,-0.318709 v -1.81085 l 0.249173,-0.04346 V 57.7494 q 0,0.101408 0.04056,0.147766 0.04056,0.04346 0.14197,0.06084 z"
         style="font-family:'Ubuntu Condensed';-inkscape-font-specification:'Ubuntu Condensed, ';fill:#800000"
         id="path226130" />
      <path
         d="m 35.754913,56.616532 h 0.382451 v 0.214404 h -0.382451 v 0.837337 q 0,0.156458 0.05505,0.2202 0.05795,0.06084 0.15356,0.06084 0.04926,0 0.09272,-0.01449 0.04636,-0.01449 0.07823,-0.03477 l 0.04926,0.199918 q -0.118792,0.06954 -0.252071,0.06954 -0.214404,0 -0.321606,-0.118792 -0.104305,-0.121689 -0.104305,-0.399836 v -1.442885 l 0.249173,-0.04346 z"
         style="font-family:'Ubuntu Condensed';-inkscape-font-specification:'Ubuntu Condensed, ';fill:#800000"
         id="path226132" />
    </g>
    <g
       aria-label="Reset"
       transform="matrix(1.137432,0,0,0.87917343,0,0.99983008)"
       id="text1453"
       style="font-size:2.79138px;line-height:1.25;-inkscape-font-specification:'sans-serif, Normal';font-variant-ligatures:none;display:inline;stroke-width:0.232614">
      <path
         d="m 27.677887,89.542622 q 0.195396,-0.04745 0.376836,-0.04745 0.145152,0 0.26239,0.0335 0.117238,0.0335 0.200979,0.106073 0.08374,0.07258 0.128404,0.187022 0.04745,0.114447 0.04745,0.276347 0,0.200979 -0.07816,0.326591 -0.07537,0.122821 -0.206562,0.187023 0.0335,0.05583 0.08374,0.153526 0.05304,0.09491 0.106072,0.212145 0.05583,0.114446 0.106073,0.237267 0.05304,0.122821 0.08932,0.234476 h -0.251224 q -0.03071,-0.08374 -0.07816,-0.189814 -0.04466,-0.106072 -0.09491,-0.209354 -0.05025,-0.106072 -0.10049,-0.200979 -0.05025,-0.0977 -0.08932,-0.164691 -0.04466,0.0056 -0.09211,0.0084 -0.04745,0.0028 -0.09491,0.0028 h -0.06978 v 0.753673 h -0.245641 z m 0.245641,0.946278 h 0.106073 q 0.192605,0 0.295886,-0.08653 0.103281,-0.08932 0.103281,-0.30426 0,-0.108864 -0.02791,-0.18144 -0.02512,-0.07537 -0.07537,-0.117238 -0.04745,-0.04466 -0.117238,-0.0642 -0.06699,-0.01954 -0.150735,-0.01954 -0.07258,0 -0.133986,0.0084 z"
         style="font-family:'Ubuntu Condensed';-inkscape-font-specification:'Ubuntu Condensed, ';fill:#800000"
         id="path129" />
      <path
         d="m 29.20477,90.787578 q 0.0028,0.106072 0.01954,0.195396 0.01675,0.08653 0.05304,0.153526 0.03908,0.0642 0.10049,0.10049 0.0642,0.03629 0.1619,0.03629 0.08095,0 0.147943,-0.02233 0.06978,-0.02512 0.10049,-0.04187 l 0.04466,0.192605 q -0.03629,0.02512 -0.122821,0.05304 -0.08374,0.0307 -0.200979,0.0307 -0.153526,0 -0.259599,-0.05583 -0.103281,-0.05583 -0.170274,-0.156317 -0.0642,-0.10049 -0.09211,-0.240059 -0.02791,-0.139569 -0.02791,-0.307052 0,-0.40475 0.133986,-0.591772 0.133986,-0.187023 0.354505,-0.187023 0.248433,0 0.351714,0.187023 0.103281,0.187022 0.103281,0.524779 0,0.03071 0,0.0642 0,0.0307 -0.0028,0.0642 z m 0.24285,-0.636435 q -0.120029,0 -0.175857,0.120029 -0.05304,0.12003 -0.0642,0.321009 h 0.443829 q 0,-0.203771 -0.04187,-0.321009 -0.04187,-0.120029 -0.1619,-0.120029 z"
         style="font-family:'Ubuntu Condensed';-inkscape-font-specification:'Ubuntu Condensed, ';fill:#800000"
         id="path131" />
      <path
         d="m 30.460888,91.278861 q 0.106072,0 0.159109,-0.05862 0.05583,-0.06141 0.05583,-0.159109 0,-0.06141 -0.02233,-0.103281 -0.02233,-0.04466 -0.05862,-0.07816 -0.03629,-0.0335 -0.08374,-0.05862 -0.04745,-0.02791 -0.09491,-0.05862 -0.04745,-0.02791 -0.09212,-0.0642 -0.04466,-0.03908 -0.08095,-0.08653 -0.0335,-0.05025 -0.05583,-0.111655 -0.01954,-0.0642 -0.01954,-0.147943 0,-0.18144 0.111655,-0.293095 0.114447,-0.111656 0.307052,-0.111656 0.08095,0 0.153526,0.02233 0.07258,0.01954 0.120029,0.04466 l -0.05304,0.192605 q -0.05025,-0.02791 -0.10049,-0.04187 -0.05024,-0.01396 -0.108863,-0.01396 -0.08932,0 -0.142361,0.05304 -0.05304,0.05025 -0.05304,0.147944 0,0.05583 0.01954,0.0977 0.01954,0.03908 0.05024,0.07258 0.0335,0.0307 0.07258,0.05862 0.04187,0.02791 0.08653,0.05304 0.05304,0.0307 0.103281,0.06699 0.05304,0.03629 0.09212,0.08653 0.04187,0.04745 0.06699,0.114446 0.02512,0.0642 0.02512,0.156318 0,0.192605 -0.114446,0.309843 -0.111655,0.117238 -0.329383,0.117238 -0.111655,0 -0.200979,-0.0307 -0.08933,-0.03071 -0.133987,-0.05583 l 0.05025,-0.198188 q 0.04187,0.02233 0.111655,0.05024 0.07258,0.02791 0.159109,0.02791 z"
         style="font-family:'Ubuntu Condensed';-inkscape-font-specification:'Ubuntu Condensed, ';fill:#800000"
         id="path133" />
      <path
         d="m 31.373668,90.787578 q 0.0028,0.106072 0.01954,0.195396 0.01675,0.08653 0.05304,0.153526 0.03908,0.0642 0.10049,0.10049 0.0642,0.03629 0.1619,0.03629 0.08095,0 0.147943,-0.02233 0.06978,-0.02512 0.10049,-0.04187 l 0.04466,0.192605 q -0.03629,0.02512 -0.122821,0.05304 -0.08374,0.0307 -0.200979,0.0307 -0.153526,0 -0.259599,-0.05583 -0.103281,-0.05583 -0.170274,-0.156317 -0.0642,-0.10049 -0.09211,-0.240059 -0.02791,-0.139569 -0.02791,-0.307052 0,-0.40475 0.133986,-0.591772 0.133986,-0.187023 0.354505,-0.187023 0.248433,0 0.351714,0.187023 0.103281,0.187022 0.103281,0.524779 0,0.03071 0,0.0642 0,0.0307 -0.0028,0.0642 z m 0.24285,-0.636435 q -0.120029,0 -0.175857,0.120029 -0.05304,0.12003 -0.0642,0.321009 h 0.443829 q 0,-0.203771 -0.04187,-0.321009 -0.04187,-0.120029 -0.1619,-0.120029 z"
         style="font-family:'Ubuntu Condensed';-inkscape-font-specification:'Ubuntu Condensed, ';fill:#800000"
         id="path135" />
      <path
         d="m 32.649326,89.98366 h 0.368462 v 0.206562 h -0.368462 v 0.806709 q 0,0.150735 0.05304,0.212145 0.05583,0.05862 0.147943,0.05862 0.04745,0 0.08932,-0.01396 0.04466,-0.01396 0.07537,-0.0335 l 0.04745,0.192605 q -0.114447,0.06699 -0.24285,0.06699 -0.206562,0 -0.309843,-0.114447 -0.10049,-0.117238 -0.10049,-0.38521 v -1.390107 l 0.240059,-0.04187 z"
         style="font-family:'Ubuntu Condensed';-inkscape-font-specification:'Ubuntu Condensed, ';fill:#800000"
         id="path137" />
    </g>
    <g
       aria-label="Run"
       transform="matrix(1.137432,0,0,0.87917343,0,0.99983008)"
       id="text1453-3"
       style="font-size:2.79138px;line-height:1.25;-inkscape-font-specification:'sans-serif, Normal';font-variant-ligatures:none;display:inline;stroke-width:0.232614">
      <path
         d="m 3.5310889,89.545415 q 0.1953966,-0.04745 0.3768363,-0.04745 0.1451517,0 0.2623897,0.0335 0.117238,0.0335 0.2009794,0.106072 0.083741,0.07258 0.1284034,0.187023 0.047454,0.114446 0.047454,0.276346 0,0.20098 -0.078159,0.326592 -0.075367,0.12282 -0.2065621,0.187022 0.033497,0.05583 0.083741,0.153526 0.053036,0.09491 0.1060725,0.212145 0.055828,0.114447 0.1060724,0.237267 0.053036,0.122821 0.089324,0.234476 H 4.3964167 Q 4.3657115,91.368186 4.318258,91.262113 4.273596,91.156041 4.2233511,91.05276 4.1731063,90.946687 4.1228614,90.851781 q -0.050245,-0.0977 -0.089324,-0.164692 -0.044662,0.0056 -0.092116,0.0084 -0.047453,0.0028 -0.094907,0.0028 h -0.069784 v 0.753672 H 3.5310889 Z m 0.2456414,0.946277 h 0.1060725 q 0.1926052,0 0.2958862,-0.08653 0.1032811,-0.08932 0.1032811,-0.304261 0,-0.108864 -0.027914,-0.181439 -0.025122,-0.07537 -0.075367,-0.117238 -0.047453,-0.04466 -0.1172379,-0.0642 -0.066993,-0.01954 -0.1507345,-0.01954 -0.072576,0 -0.1339863,0.0084 z"
         style="font-family:'Ubuntu Condensed';-inkscape-font-specification:'Ubuntu Condensed, ';fill:#800000"
         id="path158" />
      <path
         d="m 5.8283937,91.410056 q -0.036288,0.01396 -0.089324,0.02791 -0.050245,0.01117 -0.1088639,0.01954 -0.055828,0.01117 -0.1144465,0.01675 -0.055828,0.0084 -0.1032811,0.0084 -0.1144466,0 -0.2093535,-0.02791 -0.094907,-0.02512 -0.1619,-0.09212 -0.066993,-0.06699 -0.1032811,-0.18144 -0.036288,-0.117238 -0.036288,-0.293095 v -0.901615 h 0.2400587 v 0.893241 q 0,0.214937 0.064202,0.304261 0.066993,0.08653 0.2009793,0.08653 0.044662,0 0.089324,-0.0028 0.044662,-0.0056 0.092116,-0.01954 v -1.261703 h 0.2400587 z"
         style="font-family:'Ubuntu Condensed';-inkscape-font-specification:'Ubuntu Condensed, ';fill:#800000"
         id="path160" />
      <path
         d="m 6.2610562,90.028323 q 0.103281,-0.0307 0.2233104,-0.05024 0.1200293,-0.02233 0.220519,-0.02233 0.1088638,0 0.1981879,0.0307 0.089324,0.02791 0.1507346,0.0977 0.064202,0.06978 0.097698,0.189814 0.036288,0.117238 0.036288,0.293095 v 0.884867 H 6.9477356 v -0.865328 q 0,-0.217727 -0.055828,-0.318217 -0.055828,-0.10049 -0.2093535,-0.10049 -0.08095,0 -0.1814397,0.02791 v 1.256121 H 6.2610562 Z"
         style="font-family:'Ubuntu Condensed';-inkscape-font-specification:'Ubuntu Condensed, ';fill:#800000"
         id="path162" />
    </g>
  </g>
  <g
     inkscape:groupmode="layer"
     id="layer2"
     inkscape:label="components"
     style="display:none">
    <circle
       style="display:inline;vector-effect:none;fill:#ff0000;fill-opacity:1;fill-rule:evenodd;stroke:none;stroke-width:1;stroke-linecap:butt;stroke-linejoin:miter;stroke-miterlimit:4;stroke-dasharray:none;stroke-dashoffset:0;stroke-opacity:1;paint-order:normal"
       id="path4954-4-5-6"
       cx="15.0368"
       cy="52.0425"
       r="4"
       inkscape:label="TEMPO" />
    <circle
       style="display:inline;vector-effect:none;fill:#ffff00;fill-opacity:1;fill-rule:evenodd;stroke:none;stroke-width:1;stroke-linecap:butt;stroke-linejoin:miter;stroke-miterlimit:4;stroke-dasharray:none;stroke-dashoffset:0;stroke-opacity:1;paint-order:normal"
       id="path4954-4-5-6-7"
       cx="14.833601"
       cy="29.555"
       r="4"
       inkscape:label="BPMDISP" />
    <circle
       style="display:inline;vector-effect:none;fill:#ffff00;fill-opacity:1;fill-rule:evenodd;stroke:none;stroke-width:1;stroke-linecap:butt;stroke-linejoin:miter;stroke-miterlimit:4;stroke-dasharray:none;stroke-dashoffset:0;stroke-opacity:1;paint-order:normal"
       id="path4954-4-5-6-7-5"
       cx="32.9184"
       cy="29.555"
       r="4"
       inkscape:label="DIVDISP" />
    <circle
       style="display:inline;vector-effect:none;fill:#ff0000;fill-opacity:1;fill-rule:evenodd;stroke:none;stroke-width:1;stroke-linecap:butt;stroke-linejoin:miter;stroke-miterlimit:4;stroke-dasharray:none;stroke-dashoffset:0;stroke-opacity:1;paint-order:normal"
       id="path4954-4-5-6-2"
       cx="10.795002"
       cy="100.52546"
       r="4"
       inkscape:label="TRIGTIME" />
    <circle
       style="display:inline;vector-effect:none;fill:#0000ff;fill-opacity:1;fill-rule:evenodd;stroke:none;stroke-width:1;stroke-linecap:butt;stroke-linejoin:miter;stroke-miterlimit:4;stroke-dasharray:none;stroke-dashoffset:0;stroke-opacity:1;paint-order:normal"
       id="circle4958"
       cx="29.315844"
       cy="100.52546"
       r="4"
       inkscape:label="CLOCK" />
    <circle
       cy="87.29628"
       cx="10.795002"
       id="circle4956-7-0-5-2"
       style="display:inline;vector-effect:none;fill:#00ff00;fill-opacity:1;fill-rule:evenodd;stroke:none;stroke-width:0.999984;stroke-linecap:butt;stroke-linejoin:miter;stroke-miterlimit:4;stroke-dasharray:none;stroke-dashoffset:0;stroke-opacity:1;paint-order:normal"
       inkscape:label="CVTRIG"
       r="4" />
    <circle
       cy="74.774002"
       cx="26.416"
       id="circle4956-7-0-5-2-3"
       style="display:inline;vector-effect:none;fill:#00ff00;fill-opacity:1;fill-rule:evenodd;stroke:none;stroke-width:0.999984;stroke-linecap:butt;stroke-linejoin:miter;stroke-miterlimit:4;stroke-dasharray:none;stroke-dashoffset:0;stroke-opacity:1;paint-order:normal"
       inkscape:label="RESET"
       r="4" />
    <circle
       cy="62.322498"
       cx="28.448002"
       id="circle4956-7-0-5-2-3-3"
       style="display:inline;vector-effect:none;fill:#00ff00;fill-opacity:1;fill-rule:evenodd;stroke:none;stroke-width:0.999984;stroke-linecap:butt;stroke-linejoin:miter;stroke-miterlimit:4;stroke-dasharray:none;stroke-dashoffset:0;stroke-opacity:1;paint-order:normal"
       inkscape:label="BPM"
       r="4" />
    <circle
       style="display:inline;vector-effect:none;fill:#ff0000;fill-opacity:1;fill-rule:evenodd;stroke:none;stroke-width:1;stroke-linecap:butt;stroke-linejoin:miter;stroke-miterlimit:4;stroke-dasharray:none;stroke-dashoffset:0;stroke-opacity:1;paint-order:normal"
       id="path4954-4-5-6-2-2"
       cx="21.159702"
       cy="87.388458"
       r="4"
       inkscape:label="CVGAIN" />
    <circle
       style="display:inline;vector-effect:none;fill:#ff0000;fill-opacity:1;fill-rule:evenodd;stroke:none;stroke-width:1;stroke-linecap:butt;stroke-linejoin:miter;stroke-miterlimit:4;stroke-dasharray:none;stroke-dashoffset:0;stroke-opacity:1;paint-order:normal"
       id="path4954-8-7-4-6"
       cx="28.041601"
       cy="43.047501"
       r="4"
       inkscape:label="MULT" />
    <circle
       style="display:inline;vector-effect:none;fill:#ff0000;fill-opacity:1;fill-rule:evenodd;stroke:none;stroke-width:1;stroke-linecap:butt;stroke-linejoin:miter;stroke-miterlimit:4;stroke-dasharray:none;stroke-dashoffset:0;stroke-opacity:1;paint-order:normal"
       id="path4954-8-7-4-6-7-1"
       cx="34.544003"
       cy="56.540001"
       r="4"
       inkscape:label="TEMPOGAIN" />
    <circle
       style="display:inline;vector-effect:none;fill:#ff0000;fill-opacity:1;fill-rule:evenodd;stroke:none;stroke-width:1;stroke-linecap:butt;stroke-linejoin:miter;stroke-miterlimit:4;stroke-dasharray:none;stroke-dashoffset:0;stroke-opacity:1;paint-order:normal"
       id="path4954-8-7-4-6-7-1-6"
       cx="34.544003"
       cy="74.774002"
       r="4"
       inkscape:label="RESET" />
    <circle
       cy="74.774002"
       cx="6.0959988"
       id="circle4956-7-0-5-2-3-5"
       style="display:inline;vector-effect:none;fill:#ff0000;fill-opacity:1;fill-rule:evenodd;stroke:none;stroke-width:0.999984;stroke-linecap:butt;stroke-linejoin:miter;stroke-miterlimit:4;stroke-dasharray:none;stroke-dashoffset:0;stroke-opacity:1;paint-order:normal"
       inkscape:label="RUN"
       r="4" />
    <circle
       style="display:inline;vector-effect:none;fill:#00ff00;fill-opacity:1;fill-rule:evenodd;stroke:none;stroke-width:1;stroke-linecap:butt;stroke-linejoin:miter;stroke-miterlimit:4;stroke-dasharray:none;stroke-dashoffset:0;stroke-opacity:1;paint-order:normal"
       id="path4954-8-7-4-6-7-1-6-9"
       cx="14.224001"
       cy="74.774002"
       r="4"
       inkscape:label="RUN" />
    <circle
       style="display:inline;fill:#ff00ff;stroke-width:0.042277"
       id="path171"
       cx="34.759747"
       cy="96.786224"
       r="1"
       inkscape:label="CLOCK" />
  </g>
</svg>
