<?xml version="1.0" encoding="UTF-8" standalone="no"?>
<!-- Created with Inkscape (http://www.inkscape.org/) -->

<svg
   width="30.48mm"
   height="128.5mm"
   viewBox="0 0 30.48 128.5"
   version="1.1"
   id="svg5"
   inkscape:version="1.1.2 (0a00cf5339, 2022-02-04)"
   sodipodi:docname="MyComparator.svg"
   xmlns:inkscape="http://www.inkscape.org/namespaces/inkscape"
   xmlns:sodipodi="http://sodipodi.sourceforge.net/DTD/sodipodi-0.dtd"
   xmlns="http://www.w3.org/2000/svg"
   xmlns:svg="http://www.w3.org/2000/svg">
  <sodipodi:namedview
     id="namedview7"
     pagecolor="#ffffff"
     bordercolor="#666666"
     borderopacity="1.0"
     inkscape:pageshadow="2"
     inkscape:pageopacity="0.0"
     inkscape:pagecheckerboard="0"
     inkscape:document-units="mm"
     showgrid="true"
     width="30.48mm"
     showborder="true"
     inkscape:showpageshadow="false"
     inkscape:zoom="4"
     inkscape:cx="63"
     inkscape:cy="342.375"
     inkscape:window-width="1846"
     inkscape:window-height="1016"
     inkscape:window-x="1994"
     inkscape:window-y="27"
     inkscape:window-maximized="1"
     inkscape:current-layer="layer1"
     inkscape:snap-page="true"
     objecttolerance="10"
     guidetolerance="20"
     inkscape:snap-perpendicular="false"
     gridtolerance="10"
     inkscape:snap-center="true">
    <inkscape:grid
       type="xygrid"
       id="grid1011"
       units="mm"
       spacingx="0.30480001"
       spacingy="0.1285"
       originx="15.24"
       originy="64.250001"
       empspacing="5"
       color="#3f3f40"
       opacity="0.1254902"
       empcolor="#ff3300"
       empopacity="0.25098039" />
  </sodipodi:namedview>
  <defs
     id="defs2">
    <rect
       x="132.48"
       y="407.96221"
       width="80.640003"
       height="53.423622"
       id="rect326210" />
    <linearGradient
       id="SVGID_1_-2"
       gradientUnits="userSpaceOnUse"
       x1="-602.2439"
       y1="-1759.6412"
       x2="-578.86902"
       y2="-1759.6412"
       gradientTransform="rotate(90,-1175.1201,-572.7211)">
      <stop
         offset="0"
         style="stop-color:#818080"
         id="stop53683-7" />
      <stop
         offset="1"
         style="stop-color:#575757"
         id="stop53685-0" />
    </linearGradient>
    <linearGradient
       id="SVGID_00000133507252578815705350000014969287794782242715_-9"
       gradientUnits="userSpaceOnUse"
       x1="1061.9836"
       y1="4127.6396"
       x2="1084.1836"
       y2="4127.6396"
       gradientTransform="matrix(0,1,1,0,-4115.8398,-1061.2317)">
      <stop
         offset="0.00559"
         style="stop-color:#FFFFFF"
         id="stop53692-3" />
      <stop
         offset="1"
         style="stop-color:#7B7B7B"
         id="stop53694-6" />
    </linearGradient>
    <linearGradient
       id="SVGID_00000016783443767324647770000012896450620973326471_-0"
       gradientUnits="userSpaceOnUse"
       x1="58.8937"
       y1="90.555496"
       x2="58.8937"
       y2="87.782799"
       gradientTransform="translate(-47.0062,-77.3266)">
      <stop
         offset="0"
         style="stop-color:#FFFAFC"
         id="stop53701-6" />
      <stop
         offset="1"
         style="stop-color:#808080"
         id="stop53703-2" />
    </linearGradient>
    <linearGradient
       id="SVGID_00000142168628243639577640000009478606774827061173_-6"
       gradientUnits="userSpaceOnUse"
       x1="-1250.7072"
       y1="417.8472"
       x2="-1233.2302"
       y2="417.8472"
       gradientTransform="rotate(-90,-818.08665,-412.03944)">
      <stop
         offset="0"
         style="stop-color:#AFADAD"
         id="stop53708-1" />
      <stop
         offset="1"
         style="stop-color:#616262"
         id="stop53710-8" />
    </linearGradient>
    <linearGradient
       id="SVGID_00000129173681066646684810000007828613576644480430_-7"
       gradientUnits="userSpaceOnUse"
       x1="-1894.8135"
       y1="14.4203"
       x2="-1894.8135"
       y2="29.682699"
       gradientTransform="matrix(-1,0,0,1,-1883.0134,-10.2203)">
      <stop
         offset="0.00559"
         style="stop-color:#707171"
         id="stop53719-9" />
      <stop
         offset="1"
         style="stop-color:#181717"
         id="stop53721-2" />
    </linearGradient>
    <linearGradient
       id="SVGID_00000158015276085111732840000007822288051635862172_-0"
       gradientUnits="userSpaceOnUse"
       x1="-1894.8135"
       y1="27.2339"
       x2="-1894.8135"
       y2="16.892099"
       gradientTransform="matrix(-1,0,0,1,-1883.0134,-10.2203)">
      <stop
         offset="0"
         style="stop-color:#595A5A"
         id="stop53736-2" />
      <stop
         offset="1"
         style="stop-color:#181717"
         id="stop53738-3" />
    </linearGradient>
  </defs>
  <g
     inkscape:label="Background"
     inkscape:groupmode="layer"
     id="layer1"
     style="display:inline;opacity:1">
    <rect
       style="fill:#dbe3db;stroke-width:1.31938"
       id="rect220"
       width="30.48"
       height="128.5"
       x="9.1552738e-07"
       y="0"
       rx="1.2207032e-06"
       inkscape:label="Background" />
    <g
       id="g88240"
       transform="matrix(0.94583228,0,0,1,1.6391166,0.42862211)">
      <g
         aria-label="C⌀mparat⌀r"
         id="text2236"
         style="font-size:4.58611px;line-height:1.25;-inkscape-font-specification:'sans-serif, Normal';font-variant-ligatures:none;stroke-width:0.264583"
         transform="matrix(1.0745686,0,0,1.0745683,-1.2304023,-0.39208168)">
        <g
           aria-label="e"
           transform="scale(0.98833027,1.0118075)"
           id="text204636"
           style="font-size:4.47137px;font-family:'URW Gothic';-inkscape-font-specification:'URW Gothic';stroke-width:0.0492938" />
      </g>
      <g
         aria-label="Dual Hysteresis Comparator"
         transform="matrix(1.0836931,0,0,0.97607409,-3.8656569,2.5285433)"
         id="text2236-9"
         style="font-size:2.22978px;line-height:1.25;-inkscape-font-specification:'sans-serif, Normal';font-variant-ligatures:none;stroke-width:0.271069">
        <path
           d="m 4.941645,11.829756 h 0.1650037 v -0.773734 h 0.8540058 v 0.773734 H 6.1256582 V 10.181948 H 5.9606545 v 0.724679 H 5.1066487 V 10.181948 H 4.941645 Z"
           style="font-family:'URW Gothic';-inkscape-font-specification:'URW Gothic';fill:#1a1a1a"
           id="path54636" />
        <path
           d="M 6.5872165,12.257874 H 6.7633691 L 7.4679796,10.610066 H 7.291827 L 6.8793177,11.58225 6.4935657,10.610066 H 6.3129536 l 0.4727133,1.179554 z"
           style="font-family:'URW Gothic';-inkscape-font-specification:'URW Gothic';fill:#1a1a1a"
           id="path54638" />
        <path
           d="m 7.5170311,11.470761 c 0.00223,0.236357 0.1560846,0.387982 0.3924413,0.387982 0.2207482,0 0.3723733,-0.156085 0.3723733,-0.379063 0,-0.149395 -0.069123,-0.251965 -0.2118291,-0.312169 -0.1873016,-0.07804 -0.1962207,-0.08027 -0.2296674,-0.09811 -0.075813,-0.03791 -0.111489,-0.08919 -0.111489,-0.160544 0,-0.09811 0.078042,-0.176153 0.1761526,-0.176153 0.1070295,0 0.1694633,0.06243 0.1783824,0.178382 h 0.1672335 c -0.00669,-0.19622 -0.1471654,-0.330007 -0.3433861,-0.330007 -0.1984504,0 -0.3456159,0.144936 -0.3456159,0.343386 0,0.08919 0.031217,0.162774 0.091421,0.218519 0.051285,0.04683 0.053515,0.04905 0.2252078,0.118178 0.1895313,0.07804 0.2363567,0.122638 0.2363567,0.234127 0,0.122638 -0.084732,0.211829 -0.2051398,0.211829 -0.1382464,0 -0.2207482,-0.08473 -0.2296673,-0.236357 z"
           style="font-family:'URW Gothic';-inkscape-font-specification:'URW Gothic';fill:#1a1a1a"
           id="path54640" />
        <path
           d="M 8.6430644,11.829756 H 8.8080682 V 10.759461 H 9.0823311 V 10.610066 H 8.8080682 V 10.181948 H 8.6430644 v 0.428118 h -0.263114 v 0.149395 h 0.263114 z"
           style="font-family:'URW Gothic';-inkscape-font-specification:'URW Gothic';fill:#1a1a1a"
           id="path54642" />
        <path
           d="m 10.417967,11.274541 c 0,-0.167234 -0.0223,-0.269804 -0.0825,-0.376833 -0.109259,-0.196221 -0.321088,-0.316629 -0.5552152,-0.316629 -0.354535,0 -0.6310277,0.278723 -0.6310277,0.633258 0,0.361224 0.283182,0.644406 0.6444064,0.644406 0.2653435,0 0.5039305,-0.171693 0.5931215,-0.430348 h -0.171693 c -0.06912,0.167234 -0.2408163,0.278723 -0.4258881,0.278723 -0.2519651,0 -0.4615644,-0.191761 -0.4749431,-0.432577 z M 9.3186854,11.125145 c 0.044596,-0.234127 0.2296673,-0.392441 0.4615644,-0.392441 0.2363562,0 0.4147392,0.147166 0.4727132,0.392441 z"
           style="font-family:'URW Gothic';-inkscape-font-specification:'URW Gothic';fill:#1a1a1a"
           id="path54644" />
        <path
           d="m 10.645404,11.829756 h 0.165003 v -0.7113 c -0.0022,-0.220748 0.120408,-0.356765 0.345616,-0.374603 v -0.162774 c -0.176152,0.0089 -0.280952,0.06912 -0.345616,0.20291 v -0.173923 h -0.165003 z"
           style="font-family:'URW Gothic';-inkscape-font-specification:'URW Gothic';fill:#1a1a1a"
           id="path54646" />
        <path
           d="m 12.46936,11.274541 c 0,-0.167234 -0.0223,-0.269804 -0.0825,-0.376833 -0.10926,-0.196221 -0.321089,-0.316629 -0.555216,-0.316629 -0.354535,0 -0.631027,0.278723 -0.631027,0.633258 0,0.361224 0.283182,0.644406 0.644406,0.644406 0.265344,0 0.50393,-0.171693 0.593121,-0.430348 H 12.26645 c -0.06912,0.167234 -0.240816,0.278723 -0.425888,0.278723 -0.251965,0 -0.461564,-0.191761 -0.474943,-0.432577 z m -1.099281,-0.149396 c 0.04459,-0.234127 0.229667,-0.392441 0.461564,-0.392441 0.236357,0 0.414739,0.147166 0.472714,0.392441 z"
           style="font-family:'URW Gothic';-inkscape-font-specification:'URW Gothic';fill:#1a1a1a"
           id="path54648" />
        <path
           d="m 12.607603,11.470761 c 0.0022,0.236357 0.156085,0.387982 0.392442,0.387982 0.220748,0 0.372373,-0.156085 0.372373,-0.379063 0,-0.149395 -0.06912,-0.251965 -0.211829,-0.312169 -0.187302,-0.07804 -0.196221,-0.08027 -0.229667,-0.09811 -0.07581,-0.03791 -0.111489,-0.08919 -0.111489,-0.160544 0,-0.09811 0.07804,-0.176153 0.176152,-0.176153 0.10703,0 0.169463,0.06243 0.178383,0.178382 h 0.167233 c -0.0067,-0.19622 -0.147165,-0.330007 -0.343386,-0.330007 -0.19845,0 -0.345616,0.144936 -0.345616,0.343386 0,0.08919 0.03122,0.162774 0.09142,0.218519 0.05129,0.04683 0.05352,0.04905 0.225208,0.118178 0.189531,0.07804 0.236357,0.122638 0.236357,0.234127 0,0.122638 -0.08473,0.211829 -0.20514,0.211829 -0.138247,0 -0.220748,-0.08473 -0.229668,-0.236357 z"
           style="font-family:'URW Gothic';-inkscape-font-specification:'URW Gothic';fill:#1a1a1a"
           id="path54650" />
        <path
           d="m 13.573095,11.829756 h 0.165004 v -1.21969 h -0.165004 z m 0,-1.366855 h 0.165004 v -0.280953 h -0.165004 z"
           style="font-family:'URW Gothic';-inkscape-font-specification:'URW Gothic';fill:#1a1a1a"
           id="path54652" />
        <path
           d="m 13.918708,11.470761 c 0.0022,0.236357 0.156085,0.387982 0.392442,0.387982 0.220748,0 0.372373,-0.156085 0.372373,-0.379063 0,-0.149395 -0.06912,-0.251965 -0.211829,-0.312169 -0.187302,-0.07804 -0.196221,-0.08027 -0.229668,-0.09811 -0.07581,-0.03791 -0.111489,-0.08919 -0.111489,-0.160544 0,-0.09811 0.07804,-0.176153 0.176153,-0.176153 0.107029,0 0.169463,0.06243 0.178382,0.178382 h 0.167234 c -0.0067,-0.19622 -0.147166,-0.330007 -0.343386,-0.330007 -0.198451,0 -0.345616,0.144936 -0.345616,0.343386 0,0.08919 0.03122,0.162774 0.09142,0.218519 0.05129,0.04683 0.05352,0.04905 0.225208,0.118178 0.189531,0.07804 0.236356,0.122638 0.236356,0.234127 0,0.122638 -0.08473,0.211829 -0.205139,0.211829 -0.138247,0 -0.220749,-0.08473 -0.229668,-0.236357 z"
           style="font-family:'URW Gothic';-inkscape-font-specification:'URW Gothic';fill:#1a1a1a"
           id="path54654" />
        <path
           d="m 16.895458,11.397178 c -0.06912,0.08696 -0.10926,0.131557 -0.165004,0.173923 -0.111489,0.08696 -0.258655,0.136017 -0.40805,0.136017 -0.383522,0 -0.695691,-0.314399 -0.695691,-0.702381 0,-0.396901 0.29879,-0.700151 0.693461,-0.700151 0.142706,0 0.276493,0.03791 0.385752,0.111489 0.07358,0.04683 0.118179,0.09588 0.180612,0.193991 h 0.185072 c -0.127097,-0.283182 -0.416969,-0.457105 -0.758125,-0.457105 -0.490552,0 -0.854006,0.365684 -0.854006,0.858466 0,0.483862 0.372373,0.847316 0.865155,0.847316 0.334467,0 0.588662,-0.156085 0.753665,-0.461565 z"
           style="font-family:'URW Gothic';-inkscape-font-specification:'URW Gothic';fill:#1a1a1a"
           id="path54656" />
        <path
           d="m 17.898855,10.581079 c -0.363454,0 -0.639947,0.274263 -0.639947,0.631028 0,0.376833 0.274263,0.646636 0.653326,0.646636 0.356764,0 0.619878,-0.269803 0.619878,-0.635487 0,-0.372374 -0.265343,-0.642177 -0.633257,-0.642177 z m 0,0.151625 c 0.269803,0 0.466024,0.20737 0.466024,0.492781 0,0.280953 -0.191761,0.481633 -0.457105,0.481633 -0.280952,0 -0.481633,-0.20291 -0.481633,-0.490552 0,-0.276492 0.20291,-0.483862 0.472714,-0.483862 z"
           style="font-family:'URW Gothic';-inkscape-font-specification:'URW Gothic';fill:#1a1a1a"
           id="path54658" />
        <path
           d="m 18.766236,11.829756 h 0.165004 v -0.7113 c 0,-0.243046 0.122638,-0.385752 0.327777,-0.385752 0.10034,0 0.193991,0.04014 0.254195,0.111489 0.05352,0.06243 0.07581,0.147166 0.07581,0.274263 v 0.7113 h 0.165003 v -0.70684 c 0,-0.118179 0.01784,-0.191762 0.05797,-0.251966 0.05797,-0.08696 0.160544,-0.138246 0.276492,-0.138246 0.10703,0 0.200681,0.04237 0.256425,0.115949 0.0446,0.0602 0.06689,0.151625 0.06689,0.274263 v 0.70684 h 0.165003 v -0.724679 c 0,-0.160544 -0.02899,-0.263114 -0.09811,-0.352305 -0.08473,-0.109259 -0.222978,-0.171693 -0.381292,-0.171693 -0.189532,0 -0.321089,0.07135 -0.423659,0.234127 -0.09588,-0.165004 -0.214058,-0.234127 -0.39913,-0.234127 -0.153855,0 -0.247506,0.04682 -0.343386,0.169463 v -0.140476 h -0.165004 z"
           style="font-family:'URW Gothic';-inkscape-font-specification:'URW Gothic';fill:#1a1a1a"
           id="path54660" />
        <path
           d="m 20.884526,10.610066 v 1.647808 h 0.165004 v -0.637718 c 0.107029,0.156085 0.272033,0.238587 0.474943,0.238587 0.365684,0 0.646636,-0.278723 0.646636,-0.635487 0,-0.365684 -0.278723,-0.642177 -0.642177,-0.642177 -0.209599,0 -0.374603,0.0825 -0.479402,0.238586 v -0.209599 z m 0.637717,0.122638 c 0.276493,0 0.481632,0.209599 0.481632,0.490552 0,0.274263 -0.207369,0.483862 -0.479402,0.483862 -0.278723,0 -0.486092,-0.209599 -0.486092,-0.492781 0,-0.269804 0.211829,-0.481633 0.483862,-0.481633 z"
           style="font-family:'URW Gothic';-inkscape-font-specification:'URW Gothic';fill:#1a1a1a"
           id="path54662" />
        <path
           d="m 23.647221,10.610066 h -0.165003 v 0.216289 c -0.122638,-0.169463 -0.269804,-0.245276 -0.481633,-0.245276 -0.365684,0 -0.642176,0.276493 -0.642176,0.642177 0,0.365684 0.278722,0.635487 0.655555,0.635487 0.207369,0 0.336697,-0.06689 0.468254,-0.243046 v 0.214059 h 0.165003 z m -0.642176,0.122638 c 0.269803,0 0.477173,0.209599 0.477173,0.481633 0,0.278722 -0.20514,0.492781 -0.468254,0.492781 -0.276493,0 -0.488322,-0.216289 -0.488322,-0.495011 0,-0.265344 0.214059,-0.479403 0.479403,-0.479403 z"
           style="font-family:'URW Gothic';-inkscape-font-specification:'URW Gothic';fill:#1a1a1a"
           id="path54664" />
        <path
           d="m 23.92817,11.829756 h 0.165004 v -0.7113 c -0.0022,-0.220748 0.120408,-0.356765 0.345615,-0.374603 v -0.162774 c -0.176152,0.0089 -0.280952,0.06912 -0.345615,0.20291 V 10.610066 H 23.92817 Z"
           style="font-family:'URW Gothic';-inkscape-font-specification:'URW Gothic';fill:#1a1a1a"
           id="path54666" />
        <path
           d="M 25.767733,10.610066 H 25.60273 v 0.216289 c -0.122638,-0.169463 -0.269804,-0.245276 -0.481633,-0.245276 -0.365684,0 -0.642176,0.276493 -0.642176,0.642177 0,0.365684 0.278722,0.635487 0.655555,0.635487 0.207369,0 0.336697,-0.06689 0.468254,-0.243046 v 0.214059 h 0.165003 z m -0.642176,0.122638 c 0.269803,0 0.477173,0.209599 0.477173,0.481633 0,0.278722 -0.20514,0.492781 -0.468254,0.492781 -0.276493,0 -0.488322,-0.216289 -0.488322,-0.495011 0,-0.265344 0.214059,-0.479403 0.479403,-0.479403 z"
           style="font-family:'URW Gothic';-inkscape-font-specification:'URW Gothic';fill:#1a1a1a"
           id="path54668" />
        <path
           d="M 26.206996,11.829756 H 26.372 v -1.070295 h 0.274263 V 10.610066 H 26.372 v -0.428118 h -0.165004 v 0.428118 h -0.263114 v 0.149395 h 0.263114 z"
           style="font-family:'URW Gothic';-inkscape-font-specification:'URW Gothic';fill:#1a1a1a"
           id="path54670" />
        <path
           d="m 27.353099,10.581079 c -0.363454,0 -0.639946,0.274263 -0.639946,0.631028 0,0.376833 0.274263,0.646636 0.653325,0.646636 0.356765,0 0.619879,-0.269803 0.619879,-0.635487 0,-0.372374 -0.265344,-0.642177 -0.633258,-0.642177 z m 0,0.151625 c 0.269804,0 0.466024,0.20737 0.466024,0.492781 0,0.280953 -0.191761,0.481633 -0.457104,0.481633 -0.280953,0 -0.481633,-0.20291 -0.481633,-0.490552 0,-0.276492 0.20291,-0.483862 0.472713,-0.483862 z"
           style="font-family:'URW Gothic';-inkscape-font-specification:'URW Gothic';fill:#1a1a1a"
           id="path54672" />
        <path
           d="m 28.220482,11.829756 h 0.165004 v -0.7113 c -0.0022,-0.220748 0.120408,-0.356765 0.345616,-0.374603 v -0.162774 c -0.176153,0.0089 -0.280952,0.06912 -0.345616,0.20291 v -0.173923 h -0.165004 z"
           style="font-family:'URW Gothic';-inkscape-font-specification:'URW Gothic';fill:#1a1a1a"
           id="path54674" />
      </g>
      <path
         id="rect167813"
         style="fill:#4d4d4d;stroke-width:0.139793"
         d="M -0.76622154,15.709714 H 29.848087 c 0,0 0,0 0,0 v 0.5 c 0,0 0,0 0,0 H -0.76622154 c -1.2e-7,0 -2.2e-7,0 -2.2e-7,0 v -0.5 c 0,0 10e-8,0 2.2e-7,0 z" />
      <path
         id="rect167813-3-5"
         style="display:inline;fill:#4d4d4d;stroke-width:0.139794"
         d="M -0.76622054,87.093879 H 29.848087 c 0,0 0,0 0,0 v 0.5 c 0,0 0,0 0,0 H -0.76622054 c 0,0 -1e-6,0 -1e-6,0 v -0.5 c 0,0 1e-6,0 1e-6,0 z" />
      <text
         xml:space="preserve"
         style="font-size:6.5293px;line-height:1.25;font-family:sans-serif;-inkscape-font-specification:'sans-serif, Normal';font-variant-ligatures:none;stroke-width:0.272054"
         x="-4.8194642"
         y="10.129545"
         id="text41854"
         transform="scale(1.0282363,0.97253909)"><tspan
           sodipodi:role="line"
           id="tspan41852"
           style="stroke-width:0.272054" /></text>
    </g>
    <g
       aria-label="MØ  "
       transform="matrix(-0.00189572,-0.74371248,0.75217567,-0.00187439,9.9261076,27.800443)"
       id="text192522"
       style="font-size:10.5833px;line-height:1.25;display:inline;stroke-width:0.264583">
      <path
         d="m -123.33763,0.54124944 1.43867,5.48597226 h -0.7028 l -0.87229,-3.3527683 -1.50069,3.55534 -1.50482,-3.5801447 -0.88056,3.377573 h -0.7028 l 1.43867,-5.48597226 1.64951,3.92741046 z"
         style="font-size:8.46667px;font-family:'Tw Cen MT';-inkscape-font-specification:'Tw Cen MT'"
         id="path296409" />
      <path
         d="m -116.26829,0.17744722 0.47542,0.40514339 -0.73173,0.85576209 q 0.36793,0.4299481 0.52916,0.926042 0.16537,0.4960939 0.16537,0.9095056 0,1.2154301 -0.75655,2.0174487 -0.75654,0.8020185 -1.90169,0.8020185 -0.23564,0 -0.63252,-0.066146 -0.39687,-0.062012 -1.01699,-0.3886069 l -0.74414,0.8640302 -0.49196,-0.4010092 0.75241,-0.8805668 q -0.43409,-0.5994468 -0.56224,-1.0417973 -0.12403,-0.4423504 -0.12403,-0.888835 0,-1.1658207 0.78962,-1.9554369 0.79375,-0.79375036 1.9637,-0.79375036 0.33073,0 0.65733,0.0826823 0.33073,0.0826823 0.9095,0.38447286 z m -3.57188,4.12171388 2.1084,-2.4308603 q -0.43821,-0.2439129 -0.85576,-0.2439129 -0.63252,0 -1.07487,0.5002281 -0.44235,0.500228 -0.44235,1.2195642 0,0.3679364 0.26458,0.9549809 z m 2.53835,-1.9471687 -2.08359,2.4225921 q 0.42168,0.2439128 0.83922,0.2439128 0.64906,0 1.06247,-0.4588869 0.41755,-0.463021 0.41755,-1.1906255 0,-0.463021 -0.11163,-0.7524091 -0.004,-0.020671 -0.004,-0.024805 l -0.062,-0.1529623 q -0.0331,-0.086816 -0.0579,-0.086816 z"
         style="font-weight:bold;fill:#800000"
         id="path296411" />
    </g>
    <g
       aria-label="JØ"
       transform="matrix(-0.00533298,-0.74369609,0.7521591,-0.00527294,9.9261016,27.800427)"
       id="text231945"
       style="font-size:8.46667px;line-height:1.25;display:inline;stroke-width:0.264583">
      <path
         d="m -123.20599,7.0810457 h 0.71934 V 10.94231 q 0,1.575099 -1.31052,1.575099 -0.45475,0 -0.8971,-0.235645 l 0.35553,-0.587045 q 0.34727,0.11989 0.56638,0.11989 0.56637,0 0.56637,-0.760678 z"
         style="font-family:'Tw Cen MT';-inkscape-font-specification:'Tw Cen MT'"
         id="path296414" />
      <path
         d="m -116.28961,6.4898671 0.47542,0.4051434 -0.73174,0.8557621 q 0.36794,0.429948 0.52917,0.926042 0.16536,0.4960939 0.16536,0.9095056 0,1.2154298 -0.75654,2.0174488 -0.75654,0.802018 -1.90169,0.802018 -0.23565,0 -0.63252,-0.06615 -0.39688,-0.06201 -1.01699,-0.388607 l -0.74415,0.86403 -0.49196,-0.401009 0.75241,-0.880567 q -0.43408,-0.599447 -0.56224,-1.041797 -0.12402,-0.442351 -0.12402,-0.8888354 0,-1.1658207 0.78962,-1.9554369 0.79375,-0.7937504 1.9637,-0.7937504 0.33073,0 0.65733,0.082682 0.33073,0.082682 0.9095,0.3844728 z m -3.57188,4.1217139 2.1084,-2.4308604 q -0.43821,-0.2439128 -0.85576,-0.2439128 -0.63252,0 -1.07487,0.5002281 -0.44235,0.500228 -0.44235,1.2195642 0,0.3679359 0.26458,0.9549809 z m 2.53835,-1.9471688 -2.0836,2.4225918 q 0.42168,0.243913 0.83923,0.243913 0.64906,0 1.06247,-0.458887 0.41754,-0.463021 0.41754,-1.1906252 0,-0.463021 -0.11162,-0.7524091 -0.004,-0.020671 -0.004,-0.024805 l -0.062,-0.1529623 q -0.0331,-0.086817 -0.0579,-0.086817 z"
         style="font-weight:bold;fill:#800000"
         id="path296416" />
    </g>
    <g
       aria-label="IN A"
       transform="matrix(1.4470313,0,0,1.1641683,-1.3557262,-0.39073846)"
       id="text7958"
       style="font-size:2.6524px;line-height:1.25;-inkscape-font-specification:'sans-serif, Normal';font-variant-ligatures:none;stroke-width:0.165775">
      <path
         d="m 4.934327,26.427279 h 0.238716 v 1.838113 H 4.934327 Z"
         style="font-family:'Ubuntu Condensed';-inkscape-font-specification:'Ubuntu Condensed, ';fill:#800000"
         id="path54696" />
      <path
         d="M 6.5204607,28.265392 Q 6.4568031,28.108901 6.3745787,27.928538 6.2950067,27.745522 6.2048251,27.562506 6.1172959,27.376838 6.0244619,27.196475 5.9316279,27.013459 5.8414463,26.856968 v 1.408424 H 5.6186447 v -1.838113 h 0.19893 q 0.1007912,0.164449 0.1936252,0.336855 0.095486,0.172406 0.1803632,0.342159 0.084877,0.167102 0.159144,0.33155 0.07692,0.161797 0.1405772,0.307679 v -1.318243 h 0.2228016 v 1.838113 z"
         style="font-family:'Ubuntu Condensed';-inkscape-font-specification:'Ubuntu Condensed, ';fill:#800000"
         id="path54698" />
      <path
         d="m 8.2471706,26.427279 q 0.063658,0.19893 0.1246628,0.403165 0.063658,0.201582 0.1220104,0.424384 0.061005,0.222801 0.119358,0.472127 0.061005,0.249326 0.1220104,0.538437 H 8.4964962 Q 8.475277,28.146034 8.4514054,28.029329 8.4301862,27.912623 8.4063146,27.795918 H 7.8280914 q -0.026524,0.116705 -0.047743,0.233411 -0.021219,0.116705 -0.042438,0.236063 H 7.507151 q 0.058353,-0.289111 0.119358,-0.538437 0.061005,-0.249326 0.119358,-0.472127 0.061005,-0.222802 0.1220104,-0.424384 0.063658,-0.204235 0.1273152,-0.403165 z M 8.117203,26.697824 q -0.06631,0.220149 -0.1273152,0.442951 -0.061005,0.222801 -0.1167056,0.456212 H 8.3585714 Q 8.3055234,27.363576 8.2445182,27.140775 8.183513,26.917973 8.117203,26.697824 Z"
         style="font-family:'Ubuntu Condensed';-inkscape-font-specification:'Ubuntu Condensed, ';fill:#800000"
         id="path54700" />
    </g>
    <g
       aria-label="IN B"
       transform="matrix(1.4531124,0,0,1.1690607,-7.8494726,-0.52452293)"
       id="text7958-7"
       style="font-size:2.6524px;line-height:1.25;-inkscape-font-specification:'sans-serif, Normal';font-variant-ligatures:none;display:inline;stroke-width:0.165775">
      <path
         d="m 18.611824,26.42993 h 0.238716 v 1.838114 h -0.238716 z"
         style="font-family:'Ubuntu Condensed';-inkscape-font-specification:'Ubuntu Condensed, ';fill:#800000"
         id="path54721" />
      <path
         d="m 20.197958,28.268044 q -0.06366,-0.156492 -0.145882,-0.336855 -0.07957,-0.183016 -0.169754,-0.366031 -0.08753,-0.185668 -0.180363,-0.366032 -0.09283,-0.183015 -0.183015,-0.339507 v 1.408425 H 19.296142 V 26.42993 h 0.19893 q 0.100791,0.164449 0.193625,0.336855 0.09549,0.172406 0.180363,0.34216 0.08488,0.167101 0.159144,0.33155 0.07692,0.161796 0.140578,0.307678 V 26.42993 h 0.222801 v 1.838114 z"
         style="font-family:'Ubuntu Condensed';-inkscape-font-specification:'Ubuntu Condensed, ';fill:#800000"
         id="path54723" />
      <path
         d="m 21.593118,27.212388 h 0.164449 q 0.328897,0 0.328897,-0.297068 0,-0.09283 -0.02918,-0.151187 -0.02652,-0.06101 -0.07162,-0.09283 -0.04509,-0.03448 -0.106096,-0.04774 -0.05835,-0.01326 -0.124663,-0.01326 -0.03979,0 -0.08222,0.0027 -0.03979,0.0027 -0.07957,0.008 z m 0,0.190973 v 0.6631 q 0.0504,0.008 0.09814,0.01326 0.05039,0.0053 0.09814,0.0053 0.07427,0 0.140577,-0.01591 0.06631,-0.01591 0.114053,-0.05305 0.0504,-0.03713 0.07692,-0.100792 0.02918,-0.06631 0.02918,-0.161796 0,-0.164449 -0.09018,-0.257283 -0.08753,-0.09283 -0.275849,-0.09283 z m -0.238716,-0.946907 q 0.09283,-0.02122 0.18832,-0.03183 0.09814,-0.01326 0.193626,-0.01326 0.119358,0 0.225454,0.02387 0.108748,0.02122 0.190972,0.07692 0.08222,0.05305 0.129968,0.143229 0.0504,0.08753 0.0504,0.22015 0,0.164448 -0.06896,0.270544 -0.06896,0.103444 -0.177711,0.15384 0.135273,0.05305 0.222802,0.161796 0.08753,0.108748 0.08753,0.299721 0,0.14323 -0.04774,0.241369 -0.04509,0.09814 -0.129968,0.161796 -0.08488,0.06101 -0.204234,0.09018 -0.116706,0.02652 -0.257283,0.02652 -0.09283,0 -0.193625,-0.01061 -0.100792,-0.01061 -0.20954,-0.03183 z"
         style="font-family:'Ubuntu Condensed';-inkscape-font-specification:'Ubuntu Condensed, ';fill:#800000"
         id="path54725" />
    </g>
    <rect
       style="display:inline;fill:#808080;stroke-width:0.32748"
       id="rect36354-3"
       width="28.0368"
       height="15.408944"
       x="1.2191995"
       y="35.985527"
       ry="1.1991395" />
    <rect
       style="display:inline;fill:#333333;stroke-width:0.318373"
       id="rect36354"
       width="27.431999"
       height="14.884861"
       x="1.5240004"
       y="36.242252"
       ry="1.158355" />
    <g
       aria-label="&gt;"
       transform="matrix(2.2308696,0,0,1.6177456,-6.7986795,-21.208436)"
       id="text7958-5"
       style="font-size:2.6524px;line-height:1.25;-inkscape-font-specification:'sans-serif, Normal';font-variant-ligatures:none;display:inline;stroke-width:0.165775">
      <path
         d="m 6.4846527,43.549185 -0.098139,-0.172406 0.676362,-0.39786 -0.676362,-0.39786 0.098139,-0.172406 0.7983724,0.488041 v 0.164449 z"
         style="font-family:'Ubuntu Condensed';-inkscape-font-specification:'Ubuntu Condensed, ';fill:#ececec"
         id="path54746" />
    </g>
    <g
       aria-label="&lt;"
       transform="matrix(2.2308656,0,0,1.6177428,-23.711161,-21.208317)"
       id="text7958-5-2"
       style="font-size:2.6524px;line-height:1.25;-inkscape-font-specification:'sans-serif, Normal';font-variant-ligatures:none;display:inline;stroke-width:0.165775">
      <path
         d="m 20.056054,43.061143 v -0.164449 l 0.798373,-0.488041 0.09814,0.172406 -0.676362,0.39786 0.676362,0.39786 -0.09814,0.172406 z"
         style="font-family:'Ubuntu Condensed';-inkscape-font-specification:'Ubuntu Condensed, ';fill:#ececec"
         id="path54767" />
    </g>
    <rect
       style="display:inline;fill:#808080;stroke-width:0.232672"
       id="rect36354-3-1"
       width="14.630404"
       height="14.90615"
       x="1.2191976"
       y="92.605324"
       ry="1.1600115" />
    <rect
       style="display:inline;fill:#333333;stroke-width:0.226201"
       id="rect36354-5"
       width="14.314801"
       height="14.399168"
       x="1.378252"
       y="92.853676"
       ry="1.1205578" />
    <g
       aria-label="IN A"
       transform="matrix(1.5299026,0,0,1.1641683,14.452968,36.179524)"
       id="text7958-6-2"
       style="font-size:2.6524px;line-height:1.25;-inkscape-font-specification:'sans-serif, Normal';font-variant-ligatures:none;display:inline;stroke-width:0.165775">
      <rect
         style="fill:#800000;stroke-width:0.0138793"
         id="rect57152"
         width="1.9922837"
         height="0.22076032"
         x="-0.48170912"
         y="24.323765"
         rx="3.5574334e-07" />
      <rect
         style="font-size:2.6524px;line-height:1.25;-inkscape-font-specification:'sans-serif, Normal';font-variant-ligatures:none;display:inline;fill:#800000;stroke-width:0.0116123"
         id="rect57152-43"
         width="1.3945986"
         height="0.22076032"
         x="1.5105747"
         y="20.018976"
         rx="2.4902033e-07" />
      <rect
         style="font-size:2.6524px;line-height:1.25;-inkscape-font-specification:'sans-serif, Normal';font-variant-ligatures:none;display:inline;fill:#800000;stroke-width:0.0116123"
         id="rect57152-43-0"
         width="1.3945986"
         height="0.22076032"
         x="1.5105747"
         y="28.628553"
         rx="2.4902033e-07" />
      <rect
         style="font-size:2.6524px;line-height:1.25;-inkscape-font-specification:'sans-serif, Normal';font-variant-ligatures:none;display:inline;fill:#800000;stroke-width:0.0254892"
         id="rect57152-4"
         width="8.8303394"
         height="0.16798596"
         x="-28.849314"
         y="1.4265816"
         rx="1.5767507e-06"
         transform="rotate(-90)" />
    </g>
    <circle
       style="display:inline;fill:#800000;fill-opacity:1;fill-rule:evenodd;stroke:#000000;stroke-width:0.1;stroke-linecap:butt;stroke-linejoin:miter;stroke-miterlimit:4;stroke-dasharray:none;stroke-dashoffset:0;stroke-opacity:1;paint-order:normal"
       id="path4954-4-6-8"
       cx="7.6199999"
       cy="64.624969"
       inkscape:label=""
       r="5.75" />
    <circle
       style="display:inline;fill:#800000;fill-opacity:1;fill-rule:evenodd;stroke:#000000;stroke-width:0.1;stroke-linecap:butt;stroke-linejoin:miter;stroke-miterlimit:4;stroke-dasharray:none;stroke-dashoffset:0;stroke-opacity:1;paint-order:normal"
       id="path4954-4-6-8-3"
       cx="23.533102"
       cy="98.302498"
       inkscape:label=""
       r="5.75" />
    <g
       aria-label="Threshold"
       transform="matrix(1.1241357,0,0,0.88957232,-0.81111712,-31.722126)"
       id="text62477"
       style="font-size:2.49735px;line-height:1.25;-inkscape-font-specification:'sans-serif, Normal';font-variant-ligatures:none;display:inline;stroke-width:0.144078;fill:#800000">
      <path
         d="m 21.587704,101.7826 v 0.19229 h -0.384592 v 1.53837 h -0.224761 v -1.53837 h -0.384592 v -0.19229 z"
         style="font-family:'Ubuntu Condensed';-inkscape-font-specification:'Ubuntu Condensed, ';fill:#800000"
         id="path159991" />
      <path
         d="m 21.73273,103.51326 v -1.07385 l 0.121356,-0.0212 v 0.35842 q 0.02681,-0.008 0.05785,-0.0141 0.03246,-0.006 0.06491,-0.006 0.04657,0 0.08749,0.0155 0.04092,0.0141 0.07056,0.0494 0.03104,0.0353 0.04798,0.096 0.01834,0.0593 0.01834,0.14817 v 0.44732 H 22.07986 v -0.43744 q 0,-0.11007 -0.02822,-0.16087 -0.02822,-0.0508 -0.105833,-0.0508 -0.04092,0 -0.09172,0.0141 v 0.635 z"
         style="font-size:1.41111px;fill:#800000"
         id="path159993" />
      <path
         d="m 22.733205,102.88249 q -0.04516,-0.0198 -0.1016,-0.0198 -0.05221,0 -0.09737,0.0183 v 0.63218 h -0.121356 v -0.70838 q 0.04092,-0.0198 0.09313,-0.0324 0.05362,-0.0141 0.117123,-0.0141 0.03387,0 0.06773,0.004 0.03387,0.004 0.0635,0.0155 z"
         style="font-size:1.41111px;fill:#800000"
         id="path159995" />
      <path
         d="m 22.94487,103.17883 q 0.0014,0.0536 0.0099,0.0988 0.0085,0.0437 0.02681,0.0776 0.01976,0.0324 0.0508,0.0508 0.03245,0.0183 0.08184,0.0183 0.04092,0 0.07479,-0.0113 0.03528,-0.0127 0.0508,-0.0212 l 0.02258,0.0974 q -0.01835,0.0127 -0.06209,0.0268 -0.04233,0.0155 -0.1016,0.0155 -0.07761,0 -0.131233,-0.0282 -0.05221,-0.0282 -0.08608,-0.079 -0.03245,-0.0508 -0.04657,-0.12136 -0.01411,-0.0705 -0.01411,-0.15522 0,-0.20461 0.06773,-0.29915 0.06773,-0.0945 0.179211,-0.0945 0.125588,0 0.1778,0.0945 0.05221,0.0945 0.05221,0.26529 0,0.0155 0,0.0325 0,0.0155 -0.0014,0.0325 z m 0.122767,-0.32174 q -0.06068,0 -0.0889,0.0607 -0.02681,0.0607 -0.03246,0.16228 h 0.224367 q 0,-0.10301 -0.02117,-0.16228 -0.02117,-0.0607 -0.08184,-0.0607 z"
         style="font-size:1.41111px;fill:#800000"
         id="path159997" />
      <path
         d="m 23.579868,103.42718 q 0.05362,0 0.08043,-0.0296 0.02822,-0.031 0.02822,-0.0804 0,-0.0311 -0.01129,-0.0522 -0.01129,-0.0226 -0.02963,-0.0395 -0.01834,-0.0169 -0.04233,-0.0296 -0.02399,-0.0141 -0.04798,-0.0296 -0.02399,-0.0141 -0.04657,-0.0325 -0.02258,-0.0198 -0.04092,-0.0437 -0.01693,-0.0254 -0.02822,-0.0564 -0.0099,-0.0324 -0.0099,-0.0748 0,-0.0917 0.05645,-0.14816 0.05785,-0.0564 0.155222,-0.0564 0.04092,0 0.07761,0.0113 0.03669,0.01 0.06068,0.0226 l -0.02681,0.0974 q -0.0254,-0.0141 -0.0508,-0.0212 -0.0254,-0.007 -0.05503,-0.007 -0.04515,0 -0.07197,0.0268 -0.02681,0.0254 -0.02681,0.0748 0,0.0282 0.0099,0.0494 0.0099,0.0198 0.0254,0.0367 0.01693,0.0155 0.03669,0.0296 0.02117,0.0141 0.04375,0.0268 0.02681,0.0155 0.05221,0.0339 0.02681,0.0183 0.04657,0.0438 0.02117,0.024 0.03387,0.0579 0.0127,0.0325 0.0127,0.079 0,0.0974 -0.05786,0.15664 -0.05644,0.0593 -0.166511,0.0593 -0.05644,0 -0.101599,-0.0155 -0.04516,-0.0155 -0.06773,-0.0282 l 0.0254,-0.10019 q 0.02117,0.0113 0.05644,0.0254 0.03669,0.0141 0.08043,0.0141 z"
         style="font-size:1.41111px;fill:#800000"
         id="path159999" />
      <path
         d="m 23.958045,103.51326 v -1.07385 l 0.121355,-0.0212 v 0.35842 q 0.02681,-0.008 0.05786,-0.0141 0.03245,-0.006 0.06491,-0.006 0.04657,0 0.08749,0.0155 0.04092,0.0141 0.07055,0.0494 0.03104,0.0353 0.04798,0.096 0.01834,0.0593 0.01834,0.14817 v 0.44732 h -0.121355 v -0.43744 q 0,-0.11007 -0.02822,-0.16087 -0.02822,-0.0508 -0.105833,-0.0508 -0.04092,0 -0.09172,0.0141 v 0.635 z"
         style="font-size:1.41111px;fill:#800000"
         id="path160001" />
      <path
         d="m 25.113742,103.14355 q 0,0.0875 -0.01552,0.15945 -0.01552,0.0706 -0.04798,0.12136 -0.03104,0.0508 -0.08043,0.079 -0.04798,0.0282 -0.1143,0.0282 -0.06632,0 -0.115711,-0.0282 -0.04939,-0.0282 -0.08185,-0.079 -0.03104,-0.0508 -0.04657,-0.12136 -0.01552,-0.072 -0.01552,-0.15945 0,-0.0861 0.01552,-0.15805 0.01552,-0.072 0.04657,-0.12276 0.03246,-0.0522 0.08185,-0.0804 0.04939,-0.0282 0.115711,-0.0282 0.06632,0 0.1143,0.0282 0.04939,0.0282 0.08043,0.0804 0.03245,0.0508 0.04798,0.12276 0.01552,0.072 0.01552,0.15805 z m -0.127,0 q 0,-0.0621 -0.0071,-0.11289 -0.0071,-0.0522 -0.02258,-0.0889 -0.01552,-0.0381 -0.04092,-0.0579 -0.0254,-0.0212 -0.06068,-0.0212 -0.03669,0 -0.06209,0.0212 -0.02399,0.0198 -0.04092,0.0579 -0.01552,0.0367 -0.02258,0.0889 -0.0071,0.0508 -0.0071,0.11289 0,0.0621 0.0071,0.1143 0.0071,0.0508 0.02258,0.0875 0.01693,0.0367 0.04092,0.0579 0.0254,0.0198 0.06209,0.0198 0.03528,0 0.06068,-0.0198 0.0254,-0.0212 0.04092,-0.0579 0.01552,-0.0367 0.02258,-0.0875 0.0071,-0.0522 0.0071,-0.1143 z"
         style="font-size:1.41111px;fill:#800000"
         id="path160003" />
      <path
         d="m 25.483452,103.52737 q -0.104422,-0.003 -0.149578,-0.0508 -0.04516,-0.0494 -0.04516,-0.15522 v -0.88194 l 0.121355,-0.0212 v 0.90593 q 0,0.0494 0.01976,0.072 0.01975,0.0212 0.06914,0.0296 z"
         style="font-size:1.41111px;fill:#800000"
         id="path160005" />
      <path
         d="m 25.953349,102.8839 q -0.04092,-0.0226 -0.08749,-0.0226 -0.03528,0 -0.06209,0.0141 -0.02681,0.0141 -0.04657,0.0466 -0.01834,0.0325 -0.02822,0.0861 -0.0099,0.0536 -0.0099,0.13265 0,0.1524 0.03951,0.21872 0.04092,0.0649 0.122767,0.0649 0.01552,0 0.03387,-10e-4 0.01834,-0.003 0.0381,-0.008 z m 0,-0.44449 0.121355,-0.0212 v 1.07526 q -0.03951,0.0169 -0.09031,0.0268 -0.0508,0.0113 -0.103011,0.0113 -0.1524,0 -0.221544,-0.0974 -0.06773,-0.0974 -0.06773,-0.29351 0,-0.0889 0.01411,-0.15946 0.01552,-0.072 0.04657,-0.12135 0.03246,-0.0508 0.08185,-0.0776 0.04939,-0.0282 0.117122,-0.0282 0.03245,0 0.05503,0.007 0.02399,0.006 0.04657,0.0169 z"
         style="font-size:1.41111px;fill:#800000"
         id="path160007" />
    </g>
    <g
       aria-label="Hysteresis"
       transform="matrix(1.1241357,0,0,0.88957232,-0.94415443,-31.861094)"
       id="text62477-1"
       style="font-size:2.49735px;line-height:1.25;-inkscape-font-specification:'sans-serif, Normal';font-variant-ligatures:none;display:inline;stroke-width:0.144078;fill:#800000">
      <path
         d="m 21.552992,113.11866 h 0.224761 v 1.73067 h -0.224761 v -0.80415 h -0.569396 v 0.80415 h -0.224762 v -1.73067 h 0.224762 v 0.73173 h 0.569396 z"
         style="font-family:'Ubuntu Condensed';-inkscape-font-specification:'Ubuntu Condensed, ';fill:#800000"
         id="path159952" />
      <path
         d="m 22.268337,114.69552 q 0.04092,-0.14111 0.07479,-0.28364 0.03387,-0.14252 0.06491,-0.30339 h 0.119945 q -0.02117,0.10302 -0.04657,0.2032 -0.02399,0.10019 -0.0508,0.19333 -0.0254,0.0931 -0.05221,0.17638 -0.0254,0.0819 -0.04798,0.14958 -0.02681,0.079 -0.05221,0.13265 -0.02399,0.055 -0.05362,0.0875 -0.02822,0.0339 -0.06209,0.048 -0.03387,0.0155 -0.08043,0.0155 -0.0254,0 -0.0508,-0.007 -0.0254,-0.006 -0.04233,-0.0127 l 0.02258,-0.0988 q 0.03669,0.0155 0.06915,0.0155 0.04092,0 0.06632,-0.0296 0.0254,-0.0296 0.04939,-0.0889 l 0.01411,-0.0353 q -0.02681,-0.0734 -0.05503,-0.16227 -0.02681,-0.0903 -0.05362,-0.18768 -0.0254,-0.0974 -0.04939,-0.19897 -0.02399,-0.10301 -0.04374,-0.20038 h 0.128411 q 0.01129,0.0663 0.02681,0.14535 0.01552,0.079 0.03246,0.15804 0.01834,0.079 0.03669,0.15381 0.01834,0.0734 0.03528,0.12983 z"
         style="font-size:1.41111px;fill:#800000"
         id="path159954" />
      <path
         d="m 22.759404,114.76325 q 0.05362,0 0.08043,-0.0296 0.02822,-0.0311 0.02822,-0.0804 0,-0.031 -0.01129,-0.0522 -0.01129,-0.0226 -0.02963,-0.0395 -0.01835,-0.0169 -0.04233,-0.0296 -0.02399,-0.0141 -0.04798,-0.0296 -0.02399,-0.0141 -0.04657,-0.0324 -0.02258,-0.0198 -0.04092,-0.0438 -0.01693,-0.0254 -0.02822,-0.0564 -0.0099,-0.0325 -0.0099,-0.0748 0,-0.0917 0.05644,-0.14817 0.05786,-0.0564 0.155222,-0.0564 0.04092,0 0.07761,0.0113 0.03669,0.01 0.06068,0.0226 l -0.02681,0.0974 q -0.0254,-0.0141 -0.0508,-0.0212 -0.0254,-0.007 -0.05503,-0.007 -0.04516,0 -0.07197,0.0268 -0.02681,0.0254 -0.02681,0.0748 0,0.0282 0.0099,0.0494 0.0099,0.0198 0.0254,0.0367 0.01693,0.0155 0.03669,0.0296 0.02117,0.0141 0.04374,0.0268 0.02681,0.0155 0.05221,0.0339 0.02681,0.0183 0.04657,0.0437 0.02117,0.024 0.03387,0.0579 0.0127,0.0325 0.0127,0.079 0,0.0974 -0.05786,0.15663 -0.05644,0.0593 -0.166511,0.0593 -0.05644,0 -0.1016,-0.0155 -0.04516,-0.0155 -0.06773,-0.0282 l 0.0254,-0.10019 q 0.02117,0.0113 0.05644,0.0254 0.03669,0.0141 0.08043,0.0141 z"
         style="font-size:1.41111px;fill:#800000"
         id="path159956" />
      <path
         d="m 23.250469,114.10849 h 0.186267 v 0.10443 h -0.186267 v 0.40781 q 0,0.0762 0.02681,0.10724 0.02822,0.0296 0.07479,0.0296 0.02399,0 0.04516,-0.007 0.02258,-0.007 0.0381,-0.0169 l 0.02399,0.0974 q -0.05785,0.0339 -0.122766,0.0339 -0.104422,0 -0.156633,-0.0579 -0.0508,-0.0593 -0.0508,-0.19473 v -0.70273 l 0.121355,-0.0212 z"
         style="font-size:1.41111px;fill:#800000"
         id="path159958" />
      <path
         d="m 23.666744,114.51489 q 0.0014,0.0536 0.0099,0.0988 0.0085,0.0438 0.02681,0.0776 0.01975,0.0325 0.0508,0.0508 0.03246,0.0183 0.08184,0.0183 0.04092,0 0.07479,-0.0113 0.03528,-0.0127 0.0508,-0.0212 l 0.02258,0.0974 q -0.01835,0.0127 -0.06209,0.0268 -0.04233,0.0155 -0.1016,0.0155 -0.07761,0 -0.131233,-0.0282 -0.05221,-0.0282 -0.08608,-0.079 -0.03246,-0.0508 -0.04657,-0.12136 -0.01411,-0.0705 -0.01411,-0.15522 0,-0.20461 0.06773,-0.29916 0.06773,-0.0945 0.179211,-0.0945 0.125589,0 0.1778,0.0945 0.05221,0.0945 0.05221,0.26529 0,0.0155 0,0.0325 0,0.0155 -0.0014,0.0324 z m 0.122766,-0.32173 q -0.06068,0 -0.0889,0.0607 -0.02681,0.0607 -0.03246,0.16228 h 0.224366 q 0,-0.10301 -0.02117,-0.16228 -0.02117,-0.0607 -0.08185,-0.0607 z"
         style="font-size:1.41111px;fill:#800000"
         id="path159960" />
      <path
         d="m 24.519053,114.21856 q -0.04516,-0.0198 -0.1016,-0.0198 -0.05221,0 -0.09737,0.0183 v 0.63218 h -0.121355 v -0.70838 q 0.04092,-0.0198 0.09313,-0.0325 0.05362,-0.0141 0.117122,-0.0141 0.03387,0 0.06773,0.004 0.03387,0.004 0.0635,0.0155 z"
         style="font-size:1.41111px;fill:#800000"
         id="path159962" />
      <path
         d="m 24.730718,114.51489 q 0.0014,0.0536 0.0099,0.0988 0.0085,0.0438 0.02681,0.0776 0.01975,0.0325 0.0508,0.0508 0.03245,0.0183 0.08184,0.0183 0.04092,0 0.07479,-0.0113 0.03528,-0.0127 0.0508,-0.0212 l 0.02258,0.0974 q -0.01835,0.0127 -0.06209,0.0268 -0.04233,0.0155 -0.1016,0.0155 -0.07761,0 -0.131233,-0.0282 -0.05221,-0.0282 -0.08608,-0.079 -0.03246,-0.0508 -0.04657,-0.12136 -0.01411,-0.0705 -0.01411,-0.15522 0,-0.20461 0.06773,-0.29916 0.06773,-0.0945 0.179211,-0.0945 0.125589,0 0.1778,0.0945 0.05221,0.0945 0.05221,0.26529 0,0.0155 0,0.0325 0,0.0155 -0.0014,0.0324 z m 0.122766,-0.32173 q -0.06068,0 -0.0889,0.0607 -0.02681,0.0607 -0.03245,0.16228 H 24.9565 q 0,-0.10301 -0.02117,-0.16228 -0.02117,-0.0607 -0.08184,-0.0607 z"
         style="font-size:1.41111px;fill:#800000"
         id="path159964" />
      <path
         d="m 25.365716,114.76325 q 0.05362,0 0.08043,-0.0296 0.02822,-0.0311 0.02822,-0.0804 0,-0.031 -0.01129,-0.0522 -0.01129,-0.0226 -0.02963,-0.0395 -0.01835,-0.0169 -0.04233,-0.0296 -0.02399,-0.0141 -0.04798,-0.0296 -0.02399,-0.0141 -0.04657,-0.0324 -0.02258,-0.0198 -0.04092,-0.0438 -0.01693,-0.0254 -0.02822,-0.0564 -0.0099,-0.0325 -0.0099,-0.0748 0,-0.0917 0.05644,-0.14817 0.05786,-0.0564 0.155223,-0.0564 0.04092,0 0.07761,0.0113 0.03669,0.01 0.06068,0.0226 l -0.02681,0.0974 q -0.0254,-0.0141 -0.0508,-0.0212 -0.0254,-0.007 -0.05503,-0.007 -0.04516,0 -0.07197,0.0268 -0.02681,0.0254 -0.02681,0.0748 0,0.0282 0.0099,0.0494 0.0099,0.0198 0.0254,0.0367 0.01693,0.0155 0.03669,0.0296 0.02117,0.0141 0.04374,0.0268 0.02681,0.0155 0.05221,0.0339 0.02681,0.0183 0.04657,0.0437 0.02117,0.024 0.03387,0.0579 0.0127,0.0325 0.0127,0.079 0,0.0974 -0.05786,0.15663 -0.05644,0.0593 -0.166511,0.0593 -0.05644,0 -0.1016,-0.0155 -0.04515,-0.0155 -0.06773,-0.0282 l 0.0254,-0.10019 q 0.02117,0.0113 0.05644,0.0254 0.03669,0.0141 0.08043,0.0141 z"
         style="font-size:1.41111px;fill:#800000"
         id="path159966" />
      <path
         d="m 25.865248,114.84933 h -0.121355 v -0.74084 h 0.121355 z m -0.06068,-0.87207 q -0.03246,0 -0.05645,-0.0212 -0.02258,-0.0226 -0.02258,-0.0593 0,-0.0367 0.02258,-0.0579 0.02399,-0.0226 0.05645,-0.0226 0.03246,0 0.05503,0.0226 0.02399,0.0212 0.02399,0.0579 0,0.0367 -0.02399,0.0593 -0.02258,0.0212 -0.05503,0.0212 z"
         style="font-size:1.41111px;fill:#800000"
         id="path159968" />
      <path
         d="m 26.18839,114.76325 q 0.05362,0 0.08043,-0.0296 0.02822,-0.0311 0.02822,-0.0804 0,-0.031 -0.01129,-0.0522 -0.01129,-0.0226 -0.02963,-0.0395 -0.01835,-0.0169 -0.04233,-0.0296 -0.02399,-0.0141 -0.04798,-0.0296 -0.02399,-0.0141 -0.04657,-0.0324 -0.02258,-0.0198 -0.04092,-0.0438 -0.01693,-0.0254 -0.02822,-0.0564 -0.0099,-0.0325 -0.0099,-0.0748 0,-0.0917 0.05644,-0.14817 0.05786,-0.0564 0.155222,-0.0564 0.04092,0 0.07761,0.0113 0.03669,0.01 0.06068,0.0226 l -0.02681,0.0974 q -0.0254,-0.0141 -0.0508,-0.0212 -0.0254,-0.007 -0.05503,-0.007 -0.04516,0 -0.07197,0.0268 -0.02681,0.0254 -0.02681,0.0748 0,0.0282 0.0099,0.0494 0.0099,0.0198 0.0254,0.0367 0.01693,0.0155 0.03669,0.0296 0.02117,0.0141 0.04374,0.0268 0.02681,0.0155 0.05221,0.0339 0.02681,0.0183 0.04657,0.0437 0.02117,0.024 0.03387,0.0579 0.0127,0.0325 0.0127,0.079 0,0.0974 -0.05785,0.15663 -0.05645,0.0593 -0.166511,0.0593 -0.05645,0 -0.1016,-0.0155 -0.04516,-0.0155 -0.06773,-0.0282 l 0.0254,-0.10019 q 0.02117,0.0113 0.05644,0.0254 0.03669,0.0141 0.08043,0.0141 z"
         style="font-size:1.41111px;fill:#800000"
         id="path159970" />
    </g>
    <rect
       style="font-size:2.6524px;line-height:1.25;-inkscape-font-specification:'sans-serif, Normal';font-variant-ligatures:none;display:inline;opacity:1;fill:#800000;stroke-width:0.0154974"
       id="rect57152-2"
       width="2.1336002"
       height="0.25700217"
       x="11.887199"
       y="77.988968"
       rx="3.809769e-07" />
    <rect
       style="font-size:2.6524px;line-height:1.25;-inkscape-font-specification:'sans-serif, Normal';font-variant-ligatures:none;display:inline;opacity:1;fill:#800000;stroke-width:0.0185228"
       id="rect57152-7"
       width="3.0480001"
       height="0.25700215"
       x="-73.858971"
       y="7.4914985"
       rx="5.4425266e-07"
       transform="rotate(-90)" />
    <path
       d="M 6.5270772,9.9007538 C 6.3598268,10.121892 6.2627135,10.235296 6.1278336,10.34303 5.8580738,10.564169 5.5019909,10.688914 5.140513,10.688914 c -0.9279739,0 -1.6833004,-0.7995009 -1.6833004,-1.7861182 0,-1.009298 0.722956,-1.7804473 1.6779053,-1.7804473 0.3452924,0 0.6690033,0.096395 0.9333679,0.2835106 0.1780415,0.1190743 0.2859452,0.2438193 0.4370111,0.4933087 H 6.9532981 C 6.6457718,7.1790504 5.944397,6.7367736 5.1189324,6.7367736 c -1.1869425,0 -2.0663594,0.9299155 -2.0663594,2.1830328 0,1.2304366 0.9009974,2.1546816 2.093335,2.1546816 0.8092792,0 1.4243308,-0.396915 1.8235754,-1.1737342 z"
       style="font-size:4.58611px;line-height:1.25;font-family:'URW Gothic';-inkscape-font-specification:'URW Gothic';font-variant-ligatures:none;display:inline;opacity:1;stroke-width:0.319093"
       id="path54607" />
    <path
       d="m 8.8242455,8.1019884 q 0.471551,0 0.8350979,0.2879408 L 9.9728339,8.060459 10.286325,8.3899292 9.9728339,8.7221686 q 0.2660691,0.3765373 0.2660691,0.8721277 0,0.6118737 -0.4135983,1.0493217 -0.4188612,0.437449 -1.0010592,0.437449 -0.4636432,0 -0.8271894,-0.282404 L 7.6835666,11.128134 7.3700773,10.798663 7.6835666,10.469193 Q 7.4122232,10.089886 7.4122232,9.5942963 q 0,-0.6174109 0.4135957,-1.0548591 Q 8.2446896,8.1019884 8.8242455,8.1019884 Z M 9.3353138,8.7332431 Q 9.1087624,8.5809667 8.8690294,8.5809667 q -0.4373036,0 -0.7218184,0.2962469 -0.2818759,0.2962462 -0.2818759,0.7170827 0,0.2962464 0.1448882,0.5315827 z M 8.3237209,10.45535 q 0.2239165,0.146739 0.4610095,0.146739 0.434678,0 0.7191856,-0.296247 0.2818807,-0.296247 0.2818807,-0.7115457 0,-0.2962468 -0.1396266,-0.5288144 z"
       style="font-weight:600;font-size:4.58611px;line-height:1.25;font-family:'URW Gothic';-inkscape-font-specification:'URW Gothic Semi-Bold';font-variant-ligatures:none;display:inline;opacity:1;fill:#800000;stroke-width:0.319093"
       id="path54609" />
    <path
       d="m 26.000476,8.0597774 q 0.471552,0 0.835098,0.2879408 l 0.313491,-0.3294702 0.313491,0.3294702 -0.313491,0.3322394 q 0.266069,0.3765373 0.266069,0.8721277 0,0.6118737 -0.413599,1.0493217 -0.41886,0.437448 -1.001059,0.437448 -0.463644,0 -0.827189,-0.282403 l -0.31349,0.329471 -0.313489,-0.329471 0.313489,-0.32947 q -0.271343,-0.379307 -0.271343,-0.8748967 0,-0.6174109 0.413596,-1.0548591 0.41887,-0.4374488 0.998426,-0.4374488 z m 0.511069,0.6312547 Q 26.284993,8.5387557 26.04526,8.5387557 q -0.437304,0 -0.721819,0.2962469 -0.281875,0.2962462 -0.281875,0.7170827 0,0.2962464 0.144887,0.5315827 z m -1.011594,1.7221069 q 0.223917,0.146739 0.46101,0.146739 0.434678,0 0.719186,-0.296247 0.28188,-0.2962467 0.28188,-0.7115457 0,-0.2962468 -0.139627,-0.5288144 z"
       style="font-weight:600;font-size:4.58611px;line-height:1.25;font-family:'URW Gothic';-inkscape-font-specification:'URW Gothic Semi-Bold';font-variant-ligatures:none;display:inline;fill:#800000;stroke-width:0.319093"
       id="path54609-1" />
    <path
       d="m 10.789549,11.000775 h 0.399252 V 9.1919765 c 0,-0.6180534 0.296731,-0.9809468 0.793089,-0.9809468 0.24278,0 0.469386,0.102066 0.615048,0.2835107 0.129489,0.158766 0.183441,0.374234 0.183441,0.6974361 v 1.8087985 h 0.399243 V 9.2033171 c 0,-0.3005213 0.0432,-0.4876386 0.140281,-0.640734 0.140267,-0.2211387 0.388445,-0.3515534 0.669,-0.3515534 0.25897,0 0.485566,0.1077345 0.62045,0.2948514 0.107917,0.1530953 0.161855,0.3855741 0.161855,0.697436 v 1.7974579 h 0.399237 V 9.1579557 c 0,-0.4082559 -0.07012,-0.6690853 -0.237384,-0.895894 -0.205018,-0.2778407 -0.539518,-0.4366065 -0.92258,-0.4366065 -0.458591,0 -0.776902,0.1814466 -1.025084,0.5953725 -0.231994,-0.4195959 -0.51794,-0.5953725 -0.965737,-0.5953725 -0.372275,0 -0.598865,0.1190742 -0.830859,0.4309359 V 7.8991678 h -0.399252 z"
       style="font-size:4.58611px;line-height:1.25;font-family:'URW Gothic';-inkscape-font-specification:'URW Gothic';font-variant-ligatures:none;display:inline;opacity:1;stroke-width:0.319093"
       id="path54611" />
    <path
       d="m 15.914982,7.8991678 v 4.1902892 h 0.399244 v -1.621682 c 0.258969,0.396915 0.658212,0.606713 1.149177,0.606713 0.884809,0 1.564602,-0.708777 1.564602,-1.6160109 0,-0.9299154 -0.674401,-1.6330219 -1.553817,-1.6330219 -0.507147,0 -0.906389,0.2097979 -1.159962,0.6067126 v -0.533 z m 1.543024,0.3118619 c 0.669007,0 1.165359,0.5330001 1.165359,1.2474474 0,0.6974359 -0.501749,1.2304369 -1.159962,1.2304369 -0.674405,0 -1.176159,-0.533001 -1.176159,-1.2531182 0,-0.686096 0.512549,-1.2247661 1.170762,-1.2247661 z"
       style="font-size:4.58611px;line-height:1.25;font-family:'URW Gothic';-inkscape-font-specification:'URW Gothic';font-variant-ligatures:none;display:inline;opacity:1;stroke-width:0.319093"
       id="path54613" />
    <path
       d="m 22.599624,7.8991678 h -0.399252 v 0.5500107 c -0.29673,-0.4309361 -0.652817,-0.6237233 -1.165358,-0.6237233 -0.884812,0 -1.553818,0.7031065 -1.553818,1.6330219 0,0.9299149 0.674404,1.6160109 1.58619,1.6160109 0.501757,0 0.81467,-0.170106 1.132986,-0.618054 v 0.544341 h 0.399252 z m -1.553816,0.3118619 c 0.652815,0 1.154564,0.5330001 1.154564,1.2247661 0,0.7087772 -0.496353,1.2531182 -1.132986,1.2531182 -0.669007,0 -1.181549,-0.550012 -1.181549,-1.2587882 0,-0.6747555 0.517938,-1.2190961 1.159971,-1.2190961 z"
       style="font-size:4.58611px;line-height:1.25;font-family:'URW Gothic';-inkscape-font-specification:'URW Gothic';font-variant-ligatures:none;display:inline;opacity:1;stroke-width:0.319093"
       id="path54615" />
    <path
       d="m 23.27941,11.000775 h 0.399243 V 9.1919765 c -0.0054,-0.5613508 0.291341,-0.9072341 0.836257,-0.952596 V 7.8254552 c -0.426219,0.02268 -0.679801,0.1757766 -0.836257,0.5159892 V 7.8991678 H 23.27941 Z"
       style="font-size:4.58611px;line-height:1.25;font-family:'URW Gothic';-inkscape-font-specification:'URW Gothic';font-variant-ligatures:none;display:inline;opacity:1;stroke-width:0.319093"
       id="path54617" />
    <g
       aria-label="="
       transform="scale(0.76737102,1.3031506)"
       id="text279176"
       style="font-size:4.8728px;line-height:1.25;-inkscape-font-specification:'sans-serif, Normal';font-variant-ligatures:none;fill:#e6e6e6;stroke-width:0.203034">
      <path
         d="m 9.596479,79.637451 h 3.050259 v 0.399722 H 9.596479 Z m 0,0.970753 h 3.050259 v 0.40448 H 9.596479 Z"
         id="path331170" />
    </g>
    <text
       xml:space="preserve"
       transform="scale(0.26458333)"
       id="text326208"
       style="line-height:1.25;font-family:sans-serif;font-size:24px;-inkscape-font-specification:'sans-serif, Normal';font-variant-ligatures:none;white-space:pre;shape-inside:url(#rect326210)" />
    <g
       aria-label="CV"
       transform="matrix(1.0834914,0,0,0.92294225,0,3.7041668)"
       id="text974"
       style="font-size:2.49457px;line-height:1.25;-inkscape-font-specification:'sans-serif, Normal';font-variant-ligatures:none;stroke-width:0.10394;fill:#800000">
      <path
         d="m 21.14097,81.655651 q -0.304337,0 -0.466484,-0.227006 -0.162147,-0.227005 -0.162147,-0.700974 0,-0.241973 0.0449,-0.409109 0.0474,-0.167136 0.129718,-0.271908 0.08232,-0.104772 0.194576,-0.149675 0.112256,-0.0474 0.244468,-0.0474 0.109761,0 0.204555,0.02993 0.09479,0.02744 0.154663,0.06985 l -0.06735,0.187093 q -0.05987,-0.03991 -0.129718,-0.06486 -0.06735,-0.02495 -0.157158,-0.02495 -0.199566,0 -0.28937,0.167136 -0.08981,0.164641 -0.08981,0.513881 0,0.351735 0.09479,0.541322 0.09479,0.189587 0.309327,0.189587 0.102277,0 0.164641,-0.02495 0.06486,-0.02495 0.124729,-0.06486 l 0.06236,0.177114 q -0.05738,0.0449 -0.152169,0.07733 -0.0923,0.03243 -0.214533,0.03243 z"
         style="font-family:'Ubuntu Condensed';-inkscape-font-specification:'Ubuntu Condensed, ';fill:#800000"
         id="path138" />
      <path
         d="m 22.118838,81.618233 q -0.05738,-0.187093 -0.11475,-0.37668 -0.05738,-0.192082 -0.11475,-0.401626 -0.05488,-0.209544 -0.109761,-0.441539 -0.05488,-0.23449 -0.109761,-0.508892 h 0.234489 q 0.03243,0.192082 0.07234,0.386658 0.03991,0.192082 0.08481,0.379175 0.0449,0.187092 0.08981,0.364207 0.0474,0.17462 0.0923,0.331778 0.0449,-0.157158 0.0898,-0.331778 0.0474,-0.177115 0.0923,-0.364207 0.0449,-0.187093 0.08481,-0.379175 0.03991,-0.194576 0.07234,-0.386658 h 0.227006 q -0.05488,0.274402 -0.109761,0.508892 -0.05488,0.231995 -0.112255,0.441539 -0.05488,0.209544 -0.112256,0.401626 -0.05738,0.189587 -0.11475,0.37668 z"
         style="font-family:'Ubuntu Condensed';-inkscape-font-specification:'Ubuntu Condensed, ';fill:#800000"
         id="path140" />
    </g>
    <g
       aria-label="Tolerance"
       transform="matrix(1.1648951,0,0,0.85844639,0,0.52916663)"
       id="text1366"
       style="font-size:3.0284px;line-height:1.25;-inkscape-font-specification:'sans-serif, Normal';font-variant-ligatures:none;stroke-width:0.22713">
      <path
         d="m 15.985484,122.41807 v 0.23318 h -0.466373 v 1.8655 h -0.272556 v -1.8655 h -0.466374 v -0.23318 z"
         style="font-family:'Ubuntu Condensed';-inkscape-font-specification:'Ubuntu Condensed, ';fill:#800000"
         id="path15952" />
      <path
         d="m 17.118101,123.72331 q 0,0.18776 -0.03331,0.3422 -0.03331,0.15142 -0.102965,0.26045 -0.06662,0.10902 -0.172619,0.16959 -0.102966,0.0606 -0.2453,0.0606 -0.142335,0 -0.248329,-0.0606 -0.105994,-0.0606 -0.175647,-0.16959 -0.06663,-0.10903 -0.09994,-0.26045 -0.03331,-0.15444 -0.03331,-0.3422 0,-0.18474 0.03331,-0.33919 0.03331,-0.15444 0.09994,-0.26347 0.06965,-0.11205 0.175647,-0.17261 0.105994,-0.0606 0.248329,-0.0606 0.142334,0 0.2453,0.0606 0.105994,0.0606 0.172619,0.17261 0.06965,0.10903 0.102965,0.26347 0.03331,0.15445 0.03331,0.33919 z m -0.272556,0 q 0,-0.13325 -0.01514,-0.24228 -0.01514,-0.11205 -0.04846,-0.19079 -0.03331,-0.0818 -0.08782,-0.12416 -0.05451,-0.0454 -0.130221,-0.0454 -0.07874,0 -0.13325,0.0454 -0.05148,0.0424 -0.08782,0.12416 -0.03331,0.0787 -0.04845,0.19079 -0.01514,0.10903 -0.01514,0.24228 0,0.13325 0.01514,0.2453 0.01514,0.10902 0.04845,0.18776 0.03634,0.0787 0.08782,0.12416 0.05451,0.0424 0.13325,0.0424 0.07571,0 0.130221,-0.0424 0.05451,-0.0454 0.08782,-0.12416 0.03331,-0.0787 0.04846,-0.18776 0.01514,-0.11205 0.01514,-0.2453 z"
         style="font-family:'Ubuntu Condensed';-inkscape-font-specification:'Ubuntu Condensed, ';fill:#800000"
         id="path15954" />
      <path
         d="m 17.91154,124.54703 q -0.224102,-0.006 -0.321011,-0.10902 -0.09691,-0.106 -0.09691,-0.33313 v -1.89275 l 0.260443,-0.0454 v 1.94423 q 0,0.10599 0.0424,0.15445 0.0424,0.0454 0.148392,0.0636 z"
         style="font-family:'Ubuntu Condensed';-inkscape-font-specification:'Ubuntu Condensed, ';fill:#800000"
         id="path15956" />
      <path
         d="m 18.414248,123.79902 q 0.003,0.11507 0.0212,0.21198 0.01817,0.0939 0.05754,0.16657 0.0424,0.0696 0.109022,0.10902 0.06965,0.0394 0.175647,0.0394 0.08782,0 0.160506,-0.0242 0.07571,-0.0273 0.109022,-0.0454 l 0.04845,0.20896 q -0.03937,0.0273 -0.133249,0.0575 -0.09085,0.0333 -0.218045,0.0333 -0.166562,0 -0.281641,-0.0606 -0.112051,-0.0606 -0.184733,-0.16959 -0.06965,-0.10903 -0.09994,-0.26045 -0.03028,-0.15142 -0.03028,-0.33312 0,-0.43912 0.145363,-0.64202 0.145364,-0.2029 0.384607,-0.2029 0.269528,0 0.381579,0.2029 0.11205,0.2029 0.11205,0.56934 0,0.0333 0,0.0696 0,0.0333 -0.003,0.0697 z m 0.263471,-0.69048 q -0.130221,0 -0.190789,0.13022 -0.05754,0.13022 -0.06965,0.34827 h 0.481515 q 0,-0.22108 -0.04543,-0.34827 -0.04543,-0.13022 -0.175646,-0.13022 z"
         style="font-family:'Ubuntu Condensed';-inkscape-font-specification:'Ubuntu Condensed, ';fill:#800000"
         id="path15958" />
      <path
         d="m 20.243398,123.16305 q -0.09691,-0.0424 -0.218044,-0.0424 -0.112051,0 -0.20896,0.0394 v 1.35673 h -0.260442 v -1.52026 q 0.08782,-0.0424 0.199874,-0.0696 0.115079,-0.0303 0.251357,-0.0303 0.07268,0 0.145363,0.009 0.07268,0.009 0.136278,0.0333 z"
         style="font-family:'Ubuntu Condensed';-inkscape-font-specification:'Ubuntu Condensed, ';fill:#800000"
         id="path15960" />
      <path
         d="m 20.528062,122.96015 q 0.07874,-0.0333 0.166562,-0.0515 0.08782,-0.0212 0.190789,-0.0212 0.211988,0 0.345237,0.13325 0.13325,0.13022 0.13325,0.40883 v 1.05388 q -0.109022,0.0303 -0.224102,0.0485 -0.11205,0.0182 -0.221073,0.0182 -0.109022,0 -0.205931,-0.0273 -0.09388,-0.0273 -0.166562,-0.0878 -0.06965,-0.0606 -0.112051,-0.15142 -0.0424,-0.0939 -0.0424,-0.22713 0,-0.12416 0.03634,-0.21502 0.03937,-0.0939 0.105994,-0.15445 0.06663,-0.0636 0.157477,-0.0939 0.09085,-0.0333 0.196846,-0.0333 0.09994,0 0.221073,0.0242 v -0.14536 q 0,-0.17565 -0.06965,-0.2453 -0.06662,-0.0697 -0.193817,-0.0697 -0.06965,0 -0.13325,0.0151 -0.06057,0.0121 -0.130221,0.0424 z m 0.124164,1.09325 q 0,0.13931 0.07268,0.20593 0.07268,0.0666 0.205931,0.0666 0.08177,0 0.178675,-0.0212 v -0.50574 q -0.09085,-0.0242 -0.178675,-0.0242 -0.05754,0 -0.109023,0.0151 -0.05148,0.0121 -0.09085,0.0454 -0.03634,0.0303 -0.05754,0.0848 -0.0212,0.0515 -0.0212,0.13325 z"
         style="font-family:'Ubuntu Condensed';-inkscape-font-specification:'Ubuntu Condensed, ';fill:#800000"
         id="path15962" />
      <path
         d="m 21.818154,122.97226 q 0.112051,-0.0333 0.242272,-0.0545 0.130222,-0.0242 0.239244,-0.0242 0.118108,0 0.215016,0.0333 0.09691,0.0303 0.163534,0.10599 0.06965,0.0757 0.105994,0.20593 0.03937,0.12719 0.03937,0.31798 v 0.96001 h -0.260442 v -0.93881 q 0,-0.23621 -0.06057,-0.34524 -0.06057,-0.10902 -0.22713,-0.10902 -0.08782,0 -0.196846,0.0303 v 1.36278 h -0.260443 z"
         style="font-family:'Ubuntu Condensed';-inkscape-font-specification:'Ubuntu Condensed, ';fill:#800000"
         id="path15964" />
      <path
         d="m 23.762382,124.55612 q -0.163533,0 -0.272556,-0.0636 -0.109022,-0.0636 -0.178675,-0.17262 -0.06662,-0.11205 -0.09691,-0.26347 -0.02726,-0.15142 -0.02726,-0.3301 0,-0.39369 0.142335,-0.61476 0.145363,-0.2241 0.43609,-0.2241 0.08782,0 0.157476,0.0212 0.06965,0.0212 0.130222,0.0545 l -0.06662,0.21501 q -0.09388,-0.0606 -0.20896,-0.0606 -0.163533,0 -0.242272,0.14839 -0.07571,0.14839 -0.07571,0.46031 0,0.13023 0.01514,0.24228 0.01514,0.10902 0.05148,0.18776 0.03937,0.0787 0.09994,0.12416 0.0636,0.0454 0.160506,0.0454 0.06662,0 0.118107,-0.0151 0.05451,-0.0182 0.102966,-0.0454 l 0.05754,0.2029 q -0.04845,0.0333 -0.130221,0.0606 -0.07874,0.0273 -0.172619,0.0273 z"
         style="font-family:'Ubuntu Condensed';-inkscape-font-specification:'Ubuntu Condensed, ';fill:#800000"
         id="path15966" />
      <path
         d="m 24.51039,123.79902 q 0.003,0.11507 0.0212,0.21198 0.01817,0.0939 0.05754,0.16657 0.0424,0.0696 0.109023,0.10902 0.06965,0.0394 0.175647,0.0394 0.08782,0 0.160505,-0.0242 0.07571,-0.0273 0.109022,-0.0454 l 0.04846,0.20896 q -0.03937,0.0273 -0.13325,0.0575 -0.09085,0.0333 -0.218045,0.0333 -0.166562,0 -0.281641,-0.0606 -0.112051,-0.0606 -0.184732,-0.16959 -0.06965,-0.10903 -0.09994,-0.26045 -0.03028,-0.15142 -0.03028,-0.33312 0,-0.43912 0.145363,-0.64202 0.145363,-0.2029 0.384607,-0.2029 0.269527,0 0.381578,0.2029 0.112051,0.2029 0.112051,0.56934 0,0.0333 0,0.0696 0,0.0333 -0.003,0.0697 z m 0.263471,-0.69048 q -0.130222,0 -0.19079,0.13022 -0.05754,0.13022 -0.06965,0.34827 h 0.481516 q 0,-0.22108 -0.04543,-0.34827 -0.04543,-0.13022 -0.175647,-0.13022 z"
         style="font-family:'Ubuntu Condensed';-inkscape-font-specification:'Ubuntu Condensed, ';fill:#800000"
         id="path15968" />
    </g>
    <g
       aria-label="("
       id="text18260"
       style="font-size:3.88056px;line-height:1.25;-inkscape-font-specification:'sans-serif, Normal';font-variant-ligatures:none;fill:#800000;stroke-width:0.264583"
       transform="translate(0,1.0583333)">
      <path
         d="m 18.22591,30.454501 q 0,0.496711 0.120298,0.935215 0.120297,0.438503 0.337608,0.803275 l -0.267758,0.147462 q -0.240595,-0.376415 -0.384176,-0.853723 -0.1397,-0.477309 -0.1397,-1.032229 0,-0.55492 0.1397,-1.032229 0.143581,-0.477309 0.384176,-0.853723 l 0.267758,0.147461 q -0.217311,0.364772 -0.337608,0.803276 -0.120298,0.438503 -0.120298,0.935215 z"
         style="font-family:'Ubuntu Condensed';-inkscape-font-specification:'Ubuntu Condensed, '"
         id="path40789" />
    </g>
    <g
       aria-label=")"
       id="text18260-7"
       style="font-size:3.88056px;line-height:1.25;-inkscape-font-specification:'sans-serif, Normal';font-variant-ligatures:none;display:inline;fill:#800000;stroke-width:0.264583"
       transform="translate(0,1.0583333)">
      <path
         d="m 25.66529,30.454501 q 0,-0.496712 -0.120298,-0.935215 -0.120297,-0.438504 -0.337609,-0.803276 l 0.267759,-0.147461 q 0.240595,0.376414 0.380295,0.853723 0.143581,0.477309 0.143581,1.032229 0,0.55492 -0.143581,1.032229 -0.1397,0.477308 -0.380295,0.853723 l -0.267759,-0.147462 q 0.217312,-0.364772 0.337609,-0.803275 0.120298,-0.438504 0.120298,-0.935215 z"
         style="font-family:'Ubuntu Condensed';-inkscape-font-specification:'Ubuntu Condensed, '"
         id="path40810" />
    </g>
  </g>
  <g
     inkscape:groupmode="layer"
     id="layer2"
     inkscape:label="components"
     style="display:none">
    <circle
       cy="24.377504"
       cx="8.5344"
       id="circle4956-7-0"
       style="display:inline;opacity:1;vector-effect:none;fill:#00ff00;fill-opacity:1;fill-rule:evenodd;stroke:none;stroke-width:0.999981;stroke-linecap:butt;stroke-linejoin:miter;stroke-miterlimit:4;stroke-dasharray:none;stroke-dashoffset:0;stroke-opacity:1;paint-order:normal"
       inkscape:label="INA"
       r="4" />
    <circle
       cy="24.377504"
       cx="21.945601"
       id="circle4956-7-0-3"
       style="display:inline;vector-effect:none;fill:#00ff00;fill-opacity:1;fill-rule:evenodd;stroke:none;stroke-width:0.999981;stroke-linecap:butt;stroke-linejoin:miter;stroke-miterlimit:4;stroke-dasharray:none;stroke-dashoffset:0;stroke-opacity:1;paint-order:normal"
       inkscape:label="INB"
       r="4" />
    <circle
       style="display:inline;vector-effect:none;fill:#0000ff;fill-opacity:1;fill-rule:evenodd;stroke:none;stroke-width:1;stroke-linecap:butt;stroke-linejoin:miter;stroke-miterlimit:4;stroke-dasharray:none;stroke-dashoffset:0;stroke-opacity:1;paint-order:normal"
       id="circle4958"
       cx="8.5344"
       cy="41.883839"
       r="4"
       inkscape:label="OUTG" />
    <circle
       style="display:inline;vector-effect:none;fill:#0000ff;fill-opacity:1;fill-rule:evenodd;stroke:none;stroke-width:1;stroke-linecap:butt;stroke-linejoin:miter;stroke-miterlimit:4;stroke-dasharray:none;stroke-dashoffset:0;stroke-opacity:1;paint-order:normal"
       id="circle4958-6"
       cx="21.945601"
       cy="41.883839"
       r="4"
       inkscape:label="OUTL" />
    <circle
       cy="78.117508"
       cx="7.6199999"
       id="circle4956-7-0-5-2"
       style="display:inline;vector-effect:none;fill:#00ff00;fill-opacity:1;fill-rule:evenodd;stroke:none;stroke-width:0.999984;stroke-linecap:butt;stroke-linejoin:miter;stroke-miterlimit:4;stroke-dasharray:none;stroke-dashoffset:0;stroke-opacity:1;paint-order:normal"
       inkscape:label="CVTHRESH"
       r="4" />
    <circle
       style="display:inline;opacity:1;vector-effect:none;fill:#0000ff;fill-opacity:1;fill-rule:evenodd;stroke:none;stroke-width:1;stroke-linecap:butt;stroke-linejoin:miter;stroke-miterlimit:4;stroke-dasharray:none;stroke-dashoffset:0;stroke-opacity:1;paint-order:normal"
       id="circle4958-9"
       cx="8.5340004"
       cy="98.379181"
       inkscape:label="OUTEQ"
       r="4" />
    <circle
       style="display:inline;vector-effect:none;fill:#ff00ff;fill-opacity:1;fill-rule:evenodd;stroke:none;stroke-width:0.249999;stroke-linecap:butt;stroke-linejoin:miter;stroke-miterlimit:4;stroke-dasharray:none;stroke-dashoffset:0;stroke-opacity:1;paint-order:normal"
       id="path4954-8-7-4-6-7-1-7-7"
       cx="20.4216"
       cy="59.601673"
       inkscape:label="LEDTHR"
       r="1" />
    <circle
       style="display:inline;vector-effect:none;fill:#ff00ff;fill-opacity:1;fill-rule:evenodd;stroke:none;stroke-width:0.249999;stroke-linecap:butt;stroke-linejoin:miter;stroke-miterlimit:4;stroke-dasharray:none;stroke-dashoffset:0;stroke-opacity:1;paint-order:normal"
       id="path4954-8-7-4-6-7-1-7-7-8"
       cx="20.4216"
       cy="69.624672"
       inkscape:label="LEDHYST"
       r="1" />
    <circle
       style="display:inline;opacity:1;vector-effect:none;fill:#ff0000;fill-opacity:1;fill-rule:evenodd;stroke:none;stroke-width:1;stroke-linecap:butt;stroke-linejoin:miter;stroke-miterlimit:4;stroke-dasharray:none;stroke-dashoffset:0;stroke-opacity:1;paint-order:normal"
       id="path4954-4-5-6"
       cx="7.6199999"
       cy="64.624969"
       r="4"
       inkscape:label="THRESH" />
    <circle
       style="display:inline;vector-effect:none;fill:#ff0000;fill-opacity:1;fill-rule:evenodd;stroke:none;stroke-width:1;stroke-linecap:butt;stroke-linejoin:miter;stroke-miterlimit:4;stroke-dasharray:none;stroke-dashoffset:0;stroke-opacity:1;paint-order:normal"
       id="path4954-4-5-6-2"
       cx="18.288"
       cy="78.117508"
       r="4"
       inkscape:label="CVGAIN" />
    <circle
       style="display:inline;vector-effect:none;fill:#ff0000;fill-opacity:1;fill-rule:evenodd;stroke:none;stroke-width:1;stroke-linecap:butt;stroke-linejoin:miter;stroke-miterlimit:4;stroke-dasharray:none;stroke-dashoffset:0;stroke-opacity:1;paint-order:normal"
       id="path4954-4-5-6-2-7"
       cx="23.533102"
       cy="98.302498"
       r="4"
       inkscape:label="PRECISION" />
  </g>
</svg>
