<?xml version="1.0" encoding="UTF-8" standalone="no"?>
<!-- Created with Inkscape (http://www.inkscape.org/) -->

<svg
   width="20.32mm"
   height="128.5mm"
   viewBox="0 0 20.32 128.5"
   version="1.1"
   id="svg517"
   inkscape:version="1.1.2 (0a00cf5339, 2022-02-04)"
   sodipodi:docname="MyDivider.svg"
   xmlns:inkscape="http://www.inkscape.org/namespaces/inkscape"
   xmlns:sodipodi="http://sodipodi.sourceforge.net/DTD/sodipodi-0.dtd"
   xmlns="http://www.w3.org/2000/svg"
   xmlns:svg="http://www.w3.org/2000/svg">
  <sodipodi:namedview
     id="namedview519"
     pagecolor="#ffffff"
     bordercolor="#666666"
     borderopacity="1.0"
     inkscape:pageshadow="2"
     inkscape:pageopacity="0.0"
     inkscape:pagecheckerboard="0"
     inkscape:document-units="mm"
     showgrid="true"
     height="128.5mm"
     inkscape:zoom="2.0000001"
     inkscape:cx="230.99999"
     inkscape:cy="278.24999"
     inkscape:window-width="1846"
     inkscape:window-height="1016"
     inkscape:window-x="74"
     inkscape:window-y="27"
     inkscape:window-maximized="1"
     inkscape:current-layer="layer2"
     inkscape:showpageshadow="false"
     inkscape:snap-center="true">
    <inkscape:grid
       type="xygrid"
       id="grid521"
       empcolor="#f63f01"
       empopacity="0.25098039"
       spacingy="0.12850001"
       spacingx="0.20320001"
       units="mm" />
  </sodipodi:namedview>
  <defs
     id="defs514" />
  <g
     inkscape:label="Background"
     inkscape:groupmode="layer"
     id="layer1">
    <rect
       style="display:inline;fill:#ffd5d5;stroke-width:0.881945"
       id="rect213"
       width="20.319998"
       height="128.5"
       x="4.5177003e-06"
       y="0"
       rx="3.0275388e-07" />
    <g
       aria-label="MØ  "
       transform="matrix(-0.00189572,-0.74371248,0.75217567,-0.00187439,4.8401164,27.800813)"
       id="text192522"
       style="font-size:10.5833px;line-height:1.25;display:inline;stroke-width:0.264583">
      <path
         d="m -123.33763,0.54124944 1.43867,5.48597226 h -0.7028 l -0.87229,-3.3527683 -1.50069,3.55534 -1.50482,-3.5801447 -0.88056,3.377573 h -0.7028 l 1.43867,-5.48597226 1.64951,3.92741046 z"
         style="font-size:8.46667px;font-family:'Tw Cen MT';-inkscape-font-specification:'Tw Cen MT'"
         id="path296409" />
      <path
         d="m -116.26829,0.17744722 0.47542,0.40514339 -0.73173,0.85576209 q 0.36793,0.4299481 0.52916,0.926042 0.16537,0.4960939 0.16537,0.9095056 0,1.2154301 -0.75655,2.0174487 -0.75654,0.8020185 -1.90169,0.8020185 -0.23564,0 -0.63252,-0.066146 -0.39687,-0.062012 -1.01699,-0.3886069 l -0.74414,0.8640302 -0.49196,-0.4010092 0.75241,-0.8805668 q -0.43409,-0.5994468 -0.56224,-1.0417973 -0.12403,-0.4423504 -0.12403,-0.888835 0,-1.1658207 0.78962,-1.9554369 0.79375,-0.79375036 1.9637,-0.79375036 0.33073,0 0.65733,0.0826823 0.33073,0.0826823 0.9095,0.38447286 z m -3.57188,4.12171388 2.1084,-2.4308603 q -0.43821,-0.2439129 -0.85576,-0.2439129 -0.63252,0 -1.07487,0.5002281 -0.44235,0.500228 -0.44235,1.2195642 0,0.3679364 0.26458,0.9549809 z m 2.53835,-1.9471687 -2.08359,2.4225921 q 0.42168,0.2439128 0.83922,0.2439128 0.64906,0 1.06247,-0.4588869 0.41755,-0.463021 0.41755,-1.1906255 0,-0.463021 -0.11163,-0.7524091 -0.004,-0.020671 -0.004,-0.024805 l -0.062,-0.1529623 q -0.0331,-0.086816 -0.0579,-0.086816 z"
         style="font-weight:bold;fill:#800000"
         id="path296411" />
    </g>
    <g
       aria-label="JØ"
       transform="matrix(-0.00533298,-0.74369609,0.7521591,-0.00527294,4.8401104,27.800797)"
       id="text231945"
       style="font-size:8.46667px;line-height:1.25;display:inline;stroke-width:0.264583">
      <path
         d="m -123.20599,7.0810457 h 0.71934 V 10.94231 q 0,1.575099 -1.31052,1.575099 -0.45475,0 -0.8971,-0.235645 l 0.35553,-0.587045 q 0.34727,0.11989 0.56638,0.11989 0.56637,0 0.56637,-0.760678 z"
         style="font-family:'Tw Cen MT';-inkscape-font-specification:'Tw Cen MT'"
         id="path296414" />
      <path
         d="m -116.28961,6.4898671 0.47542,0.4051434 -0.73174,0.8557621 q 0.36794,0.429948 0.52917,0.926042 0.16536,0.4960939 0.16536,0.9095056 0,1.2154298 -0.75654,2.0174488 -0.75654,0.802018 -1.90169,0.802018 -0.23565,0 -0.63252,-0.06615 -0.39688,-0.06201 -1.01699,-0.388607 l -0.74415,0.86403 -0.49196,-0.401009 0.75241,-0.880567 q -0.43408,-0.599447 -0.56224,-1.041797 -0.12402,-0.442351 -0.12402,-0.8888354 0,-1.1658207 0.78962,-1.9554369 0.79375,-0.7937504 1.9637,-0.7937504 0.33073,0 0.65733,0.082682 0.33073,0.082682 0.9095,0.3844728 z m -3.57188,4.1217139 2.1084,-2.4308604 q -0.43821,-0.2439128 -0.85576,-0.2439128 -0.63252,0 -1.07487,0.5002281 -0.44235,0.500228 -0.44235,1.2195642 0,0.3679359 0.26458,0.9549809 z m 2.53835,-1.9471688 -2.0836,2.4225918 q 0.42168,0.243913 0.83923,0.243913 0.64906,0 1.06247,-0.458887 0.41754,-0.463021 0.41754,-1.1906252 0,-0.463021 -0.11162,-0.7524091 -0.004,-0.020671 -0.004,-0.024805 l -0.062,-0.1529623 q -0.0331,-0.086817 -0.0579,-0.086817 z"
         style="font-weight:bold;fill:#800000"
         id="path296416" />
    </g>
    <g
       aria-label="Div"
       id="text1528"
       style="font-size:6.35px;line-height:1.25;-inkscape-font-specification:'sans-serif, Normal';font-variant-ligatures:none;stroke-width:0.264583"
       transform="translate(0,-0.52916667)">
      <path
         d="m 5.6546834,11.983826 h 1.26365 c 0.7048499,0 1.2001499,-0.10795 1.6128999,-0.34925 0.7112,-0.4191 1.08585,-1.1049 1.08585,-1.9812003 0,-0.88265 -0.3683,-1.58115 -1.06045,-1.9939 -0.45085,-0.2666999 -0.94615,-0.3682999 -1.7970499,-0.3682999 h -1.1049 z m 0.4699,-0.42545 V 7.7166257 h 0.65405 c 0.7048499,0 1.1683999,0.09525 1.5112999,0.29845 0.53975,0.3302 0.8509,0.92075 0.8509,1.61925 0,0.6159503 -0.2413,1.1557003 -0.6731,1.5049503 -0.37465,0.29845 -0.85725,0.4191 -1.6890999,0.4191 z"
         style="font-family:'URW Gothic';-inkscape-font-specification:'URW Gothic'"
         id="path47377" />
      <path
         d="m 10.29653,11.983826 h 0.4699 V 8.5103757 h -0.4699 z m 0,-3.8925503 h 0.4699 V 7.2911758 h -0.4699 z"
         style="font-family:'URW Gothic';-inkscape-font-specification:'URW Gothic'"
         id="path47379" />
      <path
         d="m 12.709517,11.983826 h 0.4953 l 1.4605,-3.4734503 h -0.47625 l -1.2446,2.9210003 -1.2192,-2.9210003 h -0.47625 z"
         style="font-family:'URW Gothic';-inkscape-font-specification:'URW Gothic'"
         id="path47381" />
    </g>
    <g
       aria-label="Clock divider"
       id="text12736"
       style="font-size:2.82222px;line-height:1.25;-inkscape-font-specification:'sans-serif, Normal';font-variant-ligatures:none;stroke-width:0.264583"
       transform="translate(0,-0.52916667)">
      <path
         d="m 3.0536691,14.630301 c -0.087489,0.110067 -0.1382888,0.166511 -0.2088443,0.220133 -0.141111,0.110067 -0.3273776,0.172156 -0.5164663,0.172156 -0.4854219,0 -0.8805327,-0.397934 -0.8805327,-0.889 0,-0.502355 0.3781775,-0.886177 0.8777105,-0.886177 0.1806221,0 0.3499553,0.04798 0.488244,0.141111 0.093133,0.05927 0.1495777,0.121356 0.2285999,0.245533 H 3.2766244 C 3.1157579,13.275635 2.7488693,13.055502 2.3170696,13.055502 c -0.6208884,0 -1.0809103,0.462844 -1.0809103,1.086555 0,0.612422 0.4713108,1.072443 1.0950214,1.072443 0.423333,0 0.7450661,-0.197555 0.9539104,-0.584199 z"
         style="font-family:'URW Gothic';-inkscape-font-specification:'URW Gothic';fill:#333333"
         id="path47334" />
      <path
         d="M 3.5842456,15.177812 H 3.7930899 V 13.092191 H 3.5842456 Z"
         style="font-family:'URW Gothic';-inkscape-font-specification:'URW Gothic';fill:#333333"
         id="path47336" />
      <path
         d="m 4.8993969,13.597368 c -0.4600219,0 -0.8099772,0.347133 -0.8099772,0.798689 0,0.476955 0.3471331,0.818443 0.8269105,0.818443 0.4515552,0 0.7845772,-0.341488 0.7845772,-0.804332 0,-0.471311 -0.3358442,-0.8128 -0.8015105,-0.8128 z m 0,0.191911 c 0.3414886,0 0.589844,0.262467 0.589844,0.623711 0,0.3556 -0.242711,0.6096 -0.5785551,0.6096 -0.3555998,0 -0.6095996,-0.256823 -0.6095996,-0.620889 0,-0.349955 0.256822,-0.612422 0.5983107,-0.612422 z"
         style="font-family:'URW Gothic';-inkscape-font-specification:'URW Gothic';fill:#333333"
         id="path47338" />
      <path
         d="m 7.2982806,14.723434 c -0.1608666,0.214489 -0.307622,0.299156 -0.5305774,0.299156 -0.3443108,0 -0.6180662,-0.270934 -0.6180662,-0.615244 0,-0.347134 0.2681109,-0.618067 0.6124218,-0.618067 0.2285998,0 0.4176885,0.110067 0.5362218,0.313267 H 7.5325249 C 7.4083472,13.792102 7.1120141,13.597368 6.764881,13.597368 c -0.4628441,0 -0.8269105,0.3556 -0.8269105,0.804333 0,0.460022 0.3668886,0.812799 0.8410216,0.812799 0.191911,0 0.3697108,-0.05927 0.5136441,-0.174977 0.098778,-0.07902 0.1580443,-0.155222 0.2427109,-0.316089 z"
         style="font-family:'URW Gothic';-inkscape-font-specification:'URW Gothic';fill:#333333"
         id="path47340" />
      <path
         d="m 7.8147444,15.177812 h 0.2088443 v -0.318911 l 0.2427109,-0.299156 0.5136441,0.618067 H 9.0395879 L 8.398944,14.410168 9.0000768,13.634057 H 8.7432548 L 8.0235887,14.571034 V 13.092191 H 7.8147444 Z"
         style="font-family:'URW Gothic';-inkscape-font-specification:'URW Gothic';fill:#333333"
         id="path47342" />
      <path
         d="m 11.590867,13.092191 h -0.208844 v 0.787399 c -0.1524,-0.183444 -0.364066,-0.282222 -0.606777,-0.282222 -0.468489,0 -0.8212662,0.349956 -0.8212662,0.8128 0,0.457199 0.3640662,0.804332 0.8410212,0.804332 0.259645,0 0.428978,-0.09313 0.587022,-0.316088 v 0.2794 h 0.208844 z m -0.821266,0.697088 c 0.344311,0 0.620889,0.273756 0.620889,0.612422 0,0.341489 -0.270933,0.620889 -0.601133,0.620889 -0.3556,0 -0.623711,-0.268111 -0.623711,-0.623711 0,-0.338667 0.268111,-0.6096 0.603955,-0.6096 z"
         style="font-family:'URW Gothic';-inkscape-font-specification:'URW Gothic';fill:#333333"
         id="path47344" />
      <path
         d="m 11.946465,15.177812 h 0.208845 v -1.543755 h -0.208845 z m 0,-1.730021 h 0.208845 v -0.3556 h -0.208845 z"
         style="font-family:'URW Gothic';-inkscape-font-specification:'URW Gothic';fill:#333333"
         id="path47346" />
      <path
         d="m 13.018903,15.177812 h 0.220133 l 0.649111,-1.543755 h -0.211666 l -0.553156,1.298221 -0.541866,-1.298221 h -0.211666 z"
         style="font-family:'URW Gothic';-inkscape-font-specification:'URW Gothic';fill:#333333"
         id="path47348" />
      <path
         d="m 14.105452,15.177812 h 0.208844 v -1.543755 h -0.208844 z m 0,-1.730021 h 0.208844 v -0.3556 h -0.208844 z"
         style="font-family:'URW Gothic';-inkscape-font-specification:'URW Gothic';fill:#333333"
         id="path47350" />
      <path
         d="m 16.247513,13.092191 h -0.208844 v 0.787399 c -0.1524,-0.183444 -0.364066,-0.282222 -0.606777,-0.282222 -0.468489,0 -0.821266,0.349956 -0.821266,0.8128 0,0.457199 0.364066,0.804332 0.841021,0.804332 0.259644,0 0.428978,-0.09313 0.587022,-0.316088 v 0.2794 h 0.208844 z m -0.821266,0.697088 c 0.344311,0 0.620889,0.273756 0.620889,0.612422 0,0.341489 -0.270933,0.620889 -0.601133,0.620889 -0.3556,0 -0.623711,-0.268111 -0.623711,-0.623711 0,-0.338667 0.268111,-0.6096 0.603955,-0.6096 z"
         style="font-family:'URW Gothic';-inkscape-font-specification:'URW Gothic';fill:#333333"
         id="path47352" />
      <path
         d="m 18.149688,14.475079 c 0,-0.211667 -0.02822,-0.341489 -0.104422,-0.476955 -0.138289,-0.248356 -0.4064,-0.400756 -0.702733,-0.400756 -0.448733,0 -0.798688,0.352778 -0.798688,0.801511 0,0.4572 0.358422,0.815621 0.815621,0.815621 0.335844,0 0.637822,-0.21731 0.750711,-0.544688 h -0.217311 c -0.08749,0.211667 -0.3048,0.352778 -0.539044,0.352778 -0.318911,0 -0.5842,-0.242711 -0.601133,-0.547511 z M 16.758333,14.28599 c 0.05645,-0.296333 0.290689,-0.496711 0.5842,-0.496711 0.299155,0 0.524933,0.186267 0.598311,0.496711 z"
         style="font-family:'URW Gothic';-inkscape-font-specification:'URW Gothic';fill:#333333"
         id="path47354" />
      <path
         d="m 18.437553,15.177812 h 0.208845 v -0.900289 c -0.0028,-0.279399 0.1524,-0.451555 0.437444,-0.474133 v -0.206022 c -0.222956,0.01129 -0.3556,0.08749 -0.437444,0.256822 v -0.220133 h -0.208845 z"
         style="font-family:'URW Gothic';-inkscape-font-specification:'URW Gothic';fill:#333333"
         id="path47356" />
    </g>
    <path
       id="rect167813"
       style="display:inline;fill:#4d4d4d;stroke-width:0.108045"
       d="M 0.81279989,16.069501 H 19.100801 c 0,0 0,0 0,0 v 0.5 c 0,0 0,0 0,0 H 0.81279989 c 0,0 0,0 0,0 v -0.5 c 0,0 0,0 0,0 z" />
    <g
       aria-label="Clock"
       transform="matrix(1.1139112,0,0,0.89773762,-3.0108646e-7,-1.285001)"
       id="text28916"
       style="font-size:3.67126px;line-height:1.25;-inkscape-font-specification:'sans-serif, Normal';font-variant-ligatures:none;stroke-width:0.237526">
      <path
         d="m 6.5713317,35.805008 q -0.4478937,0 -0.6865256,-0.334085 -0.2386319,-0.334084 -0.2386319,-1.031624 0,-0.356112 0.066083,-0.602087 0.069754,-0.245974 0.1909055,-0.400167 0.1211516,-0.154193 0.2863583,-0.220276 0.1652067,-0.06975 0.3597835,-0.06975 0.1615354,0 0.3010433,0.04406 0.1395079,0.04038 0.2276181,0.102795 l -0.099124,0.275344 q -0.08811,-0.05874 -0.1909055,-0.09545 -0.099124,-0.03671 -0.2312894,-0.03671 -0.2937008,0 -0.4258662,0.245975 -0.1321653,0.242303 -0.1321653,0.756279 0,0.517648 0.1395078,0.796664 0.1395079,0.279015 0.4552363,0.279015 0.1505217,0 0.2423032,-0.03671 0.095453,-0.03671 0.183563,-0.09545 l 0.091781,0.260659 q -0.084439,0.06608 -0.2239469,0.113809 -0.1358366,0.04773 -0.3157284,0.04773 z"
         style="font-family:'Ubuntu Condensed';-inkscape-font-specification:'Ubuntu Condensed, ';fill:#800000"
         id="path47472" />
      <path
         d="M 7.951725,35.786652 Q 7.6800518,35.779309 7.5625714,35.654486 7.4450911,35.525992 7.4450911,35.250648 V 32.95611 l 0.3157284,-0.05507 v 2.356949 q 0,0.128494 0.051398,0.187234 0.051398,0.05507 0.1798918,0.0771 z"
         style="font-family:'Ubuntu Condensed';-inkscape-font-specification:'Ubuntu Condensed, ';fill:#800000"
         id="path47474" />
      <path
         d="m 9.5817576,34.788069 q 0,0.227618 -0.040384,0.414852 -0.040384,0.183563 -0.1248228,0.315729 -0.080768,0.132165 -0.2092619,0.20559 -0.1248228,0.07343 -0.297372,0.07343 -0.1725493,0 -0.3010434,-0.07343 -0.1284941,-0.07343 -0.212933,-0.20559 -0.080768,-0.132166 -0.1211516,-0.315729 -0.040384,-0.187234 -0.040384,-0.414852 0,-0.223947 0.040384,-0.411181 0.040384,-0.187235 0.1211516,-0.3194 0.084439,-0.135837 0.212933,-0.209262 0.1284941,-0.07343 0.3010434,-0.07343 0.1725492,0 0.297372,0.07343 0.1284941,0.07343 0.2092619,0.209262 0.084439,0.132165 0.1248228,0.3194 0.040384,0.187234 0.040384,0.411181 z m -0.3304134,0 q 0,-0.161536 -0.018356,-0.293701 -0.018356,-0.135837 -0.05874,-0.231289 -0.040384,-0.09912 -0.1064665,-0.150522 -0.066083,-0.05507 -0.1578642,-0.05507 -0.095453,0 -0.1615355,0.05507 -0.062411,0.0514 -0.1064665,0.150522 -0.040384,0.09545 -0.05874,0.231289 -0.018356,0.132165 -0.018356,0.293701 0,0.161535 0.018356,0.297372 0.018356,0.132165 0.05874,0.227618 0.044055,0.09545 0.1064665,0.150522 0.066083,0.0514 0.1615355,0.0514 0.091781,0 0.1578642,-0.0514 0.066083,-0.05507 0.1064665,-0.150522 0.040384,-0.09545 0.05874,-0.227618 0.018356,-0.135837 0.018356,-0.297372 z"
         style="font-family:'Ubuntu Condensed';-inkscape-font-specification:'Ubuntu Condensed, ';fill:#800000"
         id="path47476" />
      <path
         d="m 10.631735,35.797665 q -0.198248,0 -0.330413,-0.0771 -0.132165,-0.0771 -0.216604,-0.209262 -0.08077,-0.135837 -0.1174806,-0.3194 -0.033041,-0.183563 -0.033041,-0.400167 0,-0.477264 0.1725486,-0.745266 0.176221,-0.271673 0.528662,-0.271673 0.106466,0 0.190905,0.0257 0.08444,0.0257 0.157864,0.06608 l -0.08077,0.260659 q -0.113809,-0.07343 -0.253317,-0.07343 -0.198248,0 -0.293701,0.179892 -0.09178,0.179891 -0.09178,0.558031 0,0.157864 0.01836,0.293701 0.01836,0.132165 0.06241,0.227618 0.04773,0.09545 0.121152,0.150522 0.0771,0.05507 0.194577,0.05507 0.08077,0 0.143179,-0.01836 0.06608,-0.02203 0.124823,-0.05507 l 0.06975,0.245975 q -0.05874,0.04038 -0.157864,0.07343 -0.09545,0.03304 -0.209262,0.03304 z"
         style="font-family:'Ubuntu Condensed';-inkscape-font-specification:'Ubuntu Condensed, ';fill:#800000"
         id="path47478" />
      <path
         d="m 12.533444,33.822527 q -0.154193,0.264331 -0.297372,0.484607 -0.139508,0.216604 -0.279016,0.40751 0.08811,0.102795 0.179892,0.231289 0.09178,0.128494 0.17622,0.268002 0.08444,0.135837 0.157864,0.275344 0.07343,0.135837 0.124823,0.26066 h -0.345098 q -0.05507,-0.121152 -0.128494,-0.253317 -0.07343,-0.132165 -0.154193,-0.256988 -0.08077,-0.128494 -0.161536,-0.242303 -0.08077,-0.113809 -0.150521,-0.190906 v 0.943514 H 11.340284 V 32.95611 l 0.315729,-0.05507 v 1.751191 q 0.06608,-0.08811 0.139508,-0.198248 0.0771,-0.110138 0.150521,-0.220275 0.07343,-0.11381 0.139508,-0.220276 0.06608,-0.106467 0.110138,-0.190906 z"
         style="font-family:'Ubuntu Condensed';-inkscape-font-specification:'Ubuntu Condensed, ';fill:#800000"
         id="path47480" />
    </g>
    <rect
       style="display:inline;fill:#808080;stroke-width:0.602187"
       id="rect36354-3-1"
       width="18.546316"
       height="78.765442"
       x="0.9108851"
       y="32.86718"
       ry="1.056915" />
    <rect
       style="display:inline;fill:#333333;stroke-width:0.592762"
       id="rect36354-5"
       width="18.14624"
       height="78.002495"
       x="1.1166046"
       y="33.247616"
       ry="1.0992926" />
    <g
       aria-label="Ratio"
       transform="matrix(1.1396472,0,0,0.87746453,0.09934484,-1.4473886)"
       id="text1758"
       style="font-size:2.11667px;line-height:1.25;-inkscape-font-specification:'sans-serif, Normal';font-variant-ligatures:none;stroke-width:0.232162">
      <path
         d="m 3.410159,42.516438 q 0.1481669,-0.03598 0.2857504,-0.03598 0.1100668,0 0.198967,0.0254 0.0889,0.0254 0.1524002,0.08043 0.0635,0.05503 0.097367,0.141817 0.035983,0.08678 0.035983,0.209551 0,0.1524 -0.059267,0.24765 -0.05715,0.09313 -0.1566335,0.141817 0.0254,0.04233 0.0635,0.116417 0.040217,0.07197 0.080433,0.160867 0.042333,0.08678 0.080433,0.179917 0.040217,0.09313 0.067733,0.1778 H 4.0663266 q -0.023283,-0.0635 -0.059267,-0.143934 -0.033867,-0.08043 -0.071967,-0.15875 -0.0381,-0.08043 -0.0762,-0.1524 -0.0381,-0.07408 -0.067734,-0.124884 -0.033867,0.0042 -0.06985,0.0063 -0.035983,0.0021 -0.071967,0.0021 h -0.052917 v 0.571501 H 3.410159 Z m 0.1862669,0.717551 h 0.080434 q 0.1460502,0 0.224367,-0.06562 0.078317,-0.06773 0.078317,-0.230717 0,-0.08255 -0.021167,-0.137584 -0.01905,-0.05715 -0.05715,-0.0889 -0.035983,-0.03387 -0.0889,-0.04868 -0.0508,-0.01482 -0.1143001,-0.01482 -0.055033,0 -0.1016002,0.0063 z"
         style="font-family:'Ubuntu Condensed';-inkscape-font-specification:'Ubuntu Condensed, ';fill:#e6e6e6"
         id="path41403" />
      <path
         d="m 4.4811934,42.874156 q 0.055033,-0.02328 0.1164168,-0.03598 0.061383,-0.01482 0.1333502,-0.01482 0.1481669,0 0.2413004,0.09313 0.093134,0.09102 0.093134,0.28575 v 0.736602 q -0.0762,0.02117 -0.1566336,0.03387 -0.078317,0.0127 -0.1545169,0.0127 -0.0762,0 -0.1439336,-0.01905 -0.065617,-0.01905 -0.1164168,-0.06138 -0.048683,-0.04233 -0.078317,-0.105834 -0.029633,-0.06562 -0.029633,-0.15875 0,-0.08678 0.0254,-0.150284 0.027517,-0.06562 0.074083,-0.10795 0.046567,-0.04445 0.1100669,-0.06562 0.0635,-0.02328 0.1375835,-0.02328 0.06985,0 0.1545169,0.01693 v -0.101601 q 0,-0.122766 -0.048683,-0.17145 -0.046567,-0.04868 -0.1354669,-0.04868 -0.048683,0 -0.093134,0.01058 -0.042333,0.0085 -0.091017,0.02963 z m 0.086783,0.764117 q 0,0.09737 0.0508,0.143934 0.0508,0.04657 0.1439336,0.04657 0.05715,0 0.1248835,-0.01482 v -0.353484 q -0.0635,-0.01693 -0.1248835,-0.01693 -0.040217,0 -0.0762,0.01058 -0.035983,0.0085 -0.0635,0.03175 -0.0254,0.02117 -0.040217,0.05927 -0.014817,0.03598 -0.014817,0.09313 z"
         style="font-family:'Ubuntu Condensed';-inkscape-font-specification:'Ubuntu Condensed, ';fill:#e6e6e6"
         id="path41405" />
      <path
         d="m 5.5522243,42.850872 h 0.2794005 v 0.156634 H 5.5522243 v 0.611717 q 0,0.114301 0.040217,0.160867 0.042333,0.04445 0.1121835,0.04445 0.035983,0 0.067733,-0.01058 0.033867,-0.01058 0.05715,-0.0254 l 0.035983,0.14605 q -0.086784,0.0508 -0.1841503,0.0508 -0.1566336,0 -0.2349504,-0.08678 -0.0762,-0.0889 -0.0762,-0.292101 v -1.054101 l 0.1820336,-0.03175 z"
         style="font-family:'Ubuntu Condensed';-inkscape-font-specification:'Ubuntu Condensed, ';fill:#e6e6e6"
         id="path41407" />
      <path
         d="M 6.2443735,43.962124 H 6.0623399 v -1.111252 h 0.1820336 z m -0.091017,-1.308102 q -0.048683,0 -0.084667,-0.03175 -0.033867,-0.03387 -0.033867,-0.0889 0,-0.05503 0.033867,-0.08678 0.035983,-0.03387 0.084667,-0.03387 0.048683,0 0.08255,0.03387 0.035983,0.03175 0.035983,0.08678 0,0.05503 -0.035983,0.0889 -0.033867,0.03175 -0.08255,0.03175 z"
         style="font-family:'Ubuntu Condensed';-inkscape-font-specification:'Ubuntu Condensed, ';fill:#e6e6e6"
         id="path41409" />
      <path
         d="m 7.287889,43.407556 q 0,0.131234 -0.023283,0.239184 -0.023283,0.105834 -0.071967,0.182034 -0.046567,0.0762 -0.1206502,0.118533 -0.071967,0.04233 -0.1714502,0.04233 -0.099483,0 -0.173567,-0.04233 -0.074083,-0.04233 -0.1227668,-0.118533 -0.046567,-0.0762 -0.06985,-0.182034 -0.023283,-0.10795 -0.023283,-0.239184 0,-0.129117 0.023283,-0.237067 0.023283,-0.10795 0.06985,-0.18415 0.048683,-0.07832 0.1227668,-0.12065 0.074083,-0.04233 0.173567,-0.04233 0.099483,0 0.1714502,0.04233 0.074083,0.04233 0.1206502,0.12065 0.048683,0.0762 0.071967,0.18415 0.023283,0.10795 0.023283,0.237067 z m -0.1905002,0 q 0,-0.09313 -0.010583,-0.169333 -0.010583,-0.07832 -0.033867,-0.13335 -0.023283,-0.05715 -0.061383,-0.08678 -0.0381,-0.03175 -0.091017,-0.03175 -0.055033,0 -0.093133,0.03175 -0.035983,0.02963 -0.061383,0.08678 -0.023283,0.05503 -0.033867,0.13335 -0.010583,0.0762 -0.010583,0.169333 0,0.09313 0.010583,0.171451 0.010583,0.0762 0.033867,0.131233 0.0254,0.05503 0.061383,0.08678 0.0381,0.02963 0.093133,0.02963 0.052917,0 0.091017,-0.02963 0.0381,-0.03175 0.061383,-0.08678 0.023283,-0.05503 0.033867,-0.131233 0.010583,-0.07832 0.010583,-0.171451 z"
         style="font-family:'Ubuntu Condensed';-inkscape-font-specification:'Ubuntu Condensed, ';fill:#e6e6e6"
         id="path41411" />
    </g>
    <g
       aria-label="Div Clk"
       transform="matrix(1.1396472,0,0,0.87746453,0.09934484,-1.4473886)"
       id="text1758-6"
       style="font-size:2.11667px;line-height:1.25;-inkscape-font-specification:'sans-serif, Normal';font-variant-ligatures:none;stroke-width:0.232162">
      <path
         d="m 10.805718,43.272088 q 0,0.205317 -0.04445,0.349251 -0.04233,0.141817 -0.124883,0.230717 -0.08043,0.0889 -0.196851,0.129117 -0.1143,0.04022 -0.256117,0.04022 -0.143933,0 -0.3048001,-0.0381 v -1.422402 q 0.080433,-0.01693 0.1566331,-0.02752 0.0762,-0.01058 0.146051,-0.01058 0.143933,0 0.258233,0.04022 0.116417,0.04022 0.196851,0.129117 0.08255,0.0889 0.124883,0.232833 0.04445,0.141817 0.04445,0.347134 z m -0.2032,0 q 0,-0.156633 -0.02328,-0.2667 -0.02328,-0.110067 -0.07197,-0.179917 -0.04868,-0.06985 -0.129117,-0.1016 -0.07832,-0.03175 -0.188384,-0.03175 -0.02963,0 -0.05927,0.0021 -0.02963,0.0021 -0.06138,0.0063 v 1.143002 q 0.03175,0.0042 0.06138,0.0063 0.02963,0.0021 0.05715,0.0021 0.112183,0 0.1905,-0.03175 0.07832,-0.03175 0.127,-0.09948 0.0508,-0.06985 0.07408,-0.179917 0.02328,-0.110066 0.02328,-0.268817 z"
         style="font-family:'Ubuntu Condensed';-inkscape-font-specification:'Ubuntu Condensed, ';fill:#e6e6e6"
         id="path41414" />
      <path
         d="m 11.269265,44.006573 h -0.182033 v -1.111252 h 0.182033 z m -0.09102,-1.308102 q -0.04868,0 -0.08467,-0.03175 -0.03387,-0.03387 -0.03387,-0.0889 0,-0.05503 0.03387,-0.08678 0.03598,-0.03387 0.08467,-0.03387 0.04868,0 0.08255,0.03387 0.03598,0.03175 0.03598,0.08678 0,0.05503 -0.03598,0.0889 -0.03387,0.03175 -0.08255,0.03175 z"
         style="font-family:'Ubuntu Condensed';-inkscape-font-specification:'Ubuntu Condensed, ';fill:#e6e6e6"
         id="path41416" />
      <path
         d="m 11.857697,43.792789 q 0.0254,-0.08467 0.05292,-0.198967 0.02963,-0.1143 0.05715,-0.23495 0.02752,-0.122767 0.0508,-0.243417 0.0254,-0.12065 0.04233,-0.220134 h 0.182034 q -0.02752,0.1397 -0.06562,0.294217 -0.03598,0.154517 -0.0762,0.304801 -0.0381,0.148167 -0.07832,0.281517 -0.04022,0.13335 -0.07408,0.230717 H 11.76033 q -0.03387,-0.09737 -0.07408,-0.230717 -0.04022,-0.13335 -0.08043,-0.281517 -0.0381,-0.150284 -0.0762,-0.304801 -0.03598,-0.154517 -0.0635,-0.294217 h 0.192617 q 0.01693,0.09948 0.04022,0.220134 0.0254,0.12065 0.0508,0.243417 0.02752,0.12065 0.05503,0.23495 0.02752,0.1143 0.05292,0.198967 z"
         style="font-family:'Ubuntu Condensed';-inkscape-font-specification:'Ubuntu Condensed, ';fill:#e6e6e6"
         id="path41418" />
      <path
         d="m 13.337247,44.038323 q -0.258234,0 -0.395817,-0.192617 -0.137584,-0.192617 -0.137584,-0.594784 0,-0.205317 0.0381,-0.347134 0.04022,-0.141817 0.110067,-0.230717 0.06985,-0.0889 0.1651,-0.127001 0.09525,-0.04022 0.207434,-0.04022 0.09313,0 0.173567,0.0254 0.08043,0.02328 0.131234,0.05927 l -0.05715,0.15875 q -0.0508,-0.03387 -0.110066,-0.05503 -0.05715,-0.02117 -0.133351,-0.02117 -0.169333,0 -0.245533,0.141817 -0.0762,0.1397 -0.0762,0.436034 0,0.29845 0.08043,0.459317 0.08043,0.160867 0.262467,0.160867 0.08678,0 0.1397,-0.02117 0.05503,-0.02117 0.105834,-0.05503 l 0.05292,0.150283 q -0.04868,0.0381 -0.129117,0.06562 -0.07832,0.02752 -0.182034,0.02752 z"
         style="font-family:'Ubuntu Condensed';-inkscape-font-specification:'Ubuntu Condensed, ';fill:#e6e6e6"
         id="path41420" />
      <path
         d="m 14.133115,44.027739 q -0.156634,-0.0042 -0.224367,-0.0762 -0.06773,-0.07408 -0.06773,-0.232833 v -1.322919 l 0.182034,-0.03175 v 1.358902 q 0,0.07408 0.02963,0.10795 0.02963,0.03175 0.103717,0.04445 z"
         style="font-family:'Ubuntu Condensed';-inkscape-font-specification:'Ubuntu Condensed, ';fill:#e6e6e6"
         id="path41422" />
      <path
         d="m 15.047512,42.895321 q -0.0889,0.1524 -0.17145,0.2794 -0.08043,0.124884 -0.160867,0.234951 0.0508,0.05927 0.103717,0.13335 0.05292,0.07408 0.1016,0.154517 0.04868,0.07832 0.09102,0.15875 0.04233,0.07832 0.07197,0.150284 h -0.198967 q -0.03175,-0.06985 -0.07408,-0.14605 -0.04233,-0.0762 -0.0889,-0.148167 -0.04657,-0.07408 -0.09313,-0.139701 -0.04657,-0.06562 -0.08678,-0.110066 v 0.543984 h -0.182034 v -1.610786 l 0.182034,-0.03175 v 1.009651 q 0.0381,-0.0508 0.08043,-0.1143 0.04445,-0.0635 0.08678,-0.127 0.04233,-0.06562 0.08043,-0.127 0.0381,-0.06138 0.0635,-0.110067 z"
         style="font-family:'Ubuntu Condensed';-inkscape-font-specification:'Ubuntu Condensed, ';fill:#e6e6e6"
         id="path41424" />
    </g>
  </g>
  <g
     inkscape:groupmode="layer"
     id="layer2"
     inkscape:label="components"
     style="display:none">
    <circle
       cy="23.130001"
       cx="10.160001"
       id="circle4956-7-0-5-2-3-3"
       style="display:inline;vector-effect:none;fill:#00ff00;fill-opacity:1;fill-rule:evenodd;stroke:none;stroke-width:0.999984;stroke-linecap:butt;stroke-linejoin:miter;stroke-miterlimit:4;stroke-dasharray:none;stroke-dashoffset:0;stroke-opacity:1;paint-order:normal"
       inkscape:label="CLOCK"
       r="4" />
    <circle
       style="fill:#ff00ff;stroke-width:0.46312"
       id="path47229"
       cx="17.0688"
       cy="23.130001"
       r="1"
       inkscape:label="CLOCK" />
    <circle
       style="fill:#ff0000;stroke-width:0.267382"
       id="path120"
       cx="6.1953449"
       cy="42.847618"
       r="4"
       inkscape:label="RATIO1" />
    <circle
       style="fill:#0000ff;stroke-width:0.267382"
       id="path120-3"
       cx="14.323346"
       cy="42.847618"
       r="4"
       inkscape:label="OUT1" />
    <circle
       style="display:inline;fill:#ff0000;stroke-width:0.267382"
       id="path120-36"
       cx="6.1953454"
       cy="51.880116"
       r="4"
       inkscape:label="RATIO2" />
    <circle
       style="display:inline;fill:#0000ff;stroke-width:0.267382"
       id="path120-3-7"
       cx="14.323346"
       cy="51.880116"
       r="4"
       inkscape:label="OUT2" />
    <circle
       style="display:inline;fill:#ff0000;stroke-width:0.267382"
       id="path120-36-5"
       cx="6.1953454"
       cy="60.875118"
       r="4"
       inkscape:label="RATIO3" />
    <circle
       style="display:inline;fill:#0000ff;stroke-width:0.267382"
       id="path120-3-7-3"
       cx="14.323346"
       cy="61.517616"
       r="4"
       inkscape:label="OUT3" />
    <circle
       style="display:inline;fill:#ff0000;stroke-width:0.267382"
       id="path120-36-5-5"
       cx="6.1953454"
       cy="69.870117"
       r="4"
       inkscape:label="RATIO4" />
    <circle
       style="display:inline;fill:#0000ff;stroke-width:0.267382"
       id="path120-3-7-3-6"
       cx="14.323346"
       cy="69.870117"
       r="4"
       inkscape:label="OUT4" />
    <circle
       style="display:inline;fill:#ff0000;stroke-width:0.267382"
       id="path120-36-5-5-2"
       cx="6.1953449"
       cy="78.86512"
       r="4"
       inkscape:label="RATIO5" />
    <circle
       style="display:inline;fill:#0000ff;stroke-width:0.267382"
       id="path120-3-7-3-6-9"
       cx="14.323346"
       cy="78.86512"
       r="4"
       inkscape:label="OUT5" />
    <circle
       style="display:inline;fill:#ff0000;stroke-width:0.267382"
       id="path120-36-5-5-2-1"
       cx="6.1953449"
       cy="87.860123"
       r="4"
       inkscape:label="RATIO6" />
    <circle
       style="display:inline;fill:#0000ff;stroke-width:0.267382"
       id="path120-3-7-3-6-9-2"
       cx="14.323346"
       cy="87.860123"
       r="4"
       inkscape:label="OUT6" />
    <circle
       style="display:inline;fill:#ff0000;stroke-width:0.267382"
       id="path120-36-5-5-2-1-7"
       cx="6.1953449"
       cy="96.855118"
       r="4"
       inkscape:label="RATIO7" />
    <circle
       style="display:inline;fill:#0000ff;stroke-width:0.267382"
       id="path120-3-7-3-6-9-2-0"
       cx="14.323346"
       cy="96.855118"
       r="4"
       inkscape:label="OUT7" />
    <circle
       style="display:inline;fill:#ff0000;stroke-width:0.267382"
       id="path120-36-5-5-2-1-7-9"
       cx="6.1953449"
       cy="105.85012"
       r="4"
       inkscape:label="RATIO8" />
    <circle
       style="display:inline;fill:#0000ff;stroke-width:0.267382"
       id="path120-3-7-3-6-9-2-0-3"
       cx="14.323346"
       cy="105.85012"
       r="4"
       inkscape:label="OUT8" />
  </g>
</svg>
